<svg width="20" height="24" viewBox="0 0 20 24" fill="none" xmlns="http://www.w3.org/2000/svg">
<path d="M16.7045 12.7631C16.7166 11.8432 16.9669 10.9412 17.4321 10.1411C17.8972 9.34105 18.5621 8.66882 19.3648 8.18699C18.8548 7.47594 18.1821 6.89078 17.4 6.47797C16.6178 6.06517 15.7479 5.8361 14.8592 5.80895C12.9635 5.61468 11.1258 6.91641 10.1598 6.91641C9.17506 6.91641 7.68776 5.82824 6.08616 5.86041C5.05021 5.89308 4.04059 6.18719 3.15568 6.71407C2.27077 7.24096 1.54075 7.98265 1.03674 8.86688C-1.14648 12.5573 0.482005 17.9809 2.57338 20.964C3.61975 22.4247 4.84264 24.0563 6.44279 23.9985C8.00863 23.9351 8.59344 23.0237 10.4835 23.0237C12.3561 23.0237 12.9048 23.9985 14.5374 23.9617C16.2176 23.9351 17.2762 22.4945 18.2859 21.0199C19.0377 19.9791 19.6162 18.8288 20 17.6116C19.0238 17.2085 18.1908 16.5338 17.6048 15.6716C17.0187 14.8094 16.7056 13.7979 16.7045 12.7631Z" fill="white"/>
<path d="M13.6201 3.84713C14.5362 2.77343 14.9875 1.39335 14.8782 0C13.4786 0.143519 12.1857 0.796596 11.2572 1.82911C10.8033 2.33351 10.4556 2.92033 10.234 3.55601C10.0125 4.19168 9.92146 4.86375 9.96613 5.5338C10.6662 5.54084 11.3588 5.3927 11.9917 5.10054C12.6246 4.80838 13.1814 4.37982 13.6201 3.84713Z" fill="white"/>
</svg>
