<svg width="32" height="32" viewBox="0 0 32 32" fill="none" xmlns="http://www.w3.org/2000/svg">
<path d="M15.9993 2.66663C8.64735 2.66663 2.66602 8.64796 2.66602 16C2.66602 23.352 8.64735 29.3333 15.9993 29.3333C23.3513 29.3333 29.3327 23.352 29.3327 16C29.3327 8.64796 23.3513 2.66663 15.9993 2.66663ZM15.9993 26.6666C10.118 26.6666 5.33268 21.8813 5.33268 16C5.33268 10.1186 10.118 5.33329 15.9993 5.33329C21.8807 5.33329 26.666 10.1186 26.666 16C26.666 21.8813 21.8807 26.6666 15.9993 26.6666Z" fill="#45C8F5"/>
<path d="M11.334 16C12.4386 16 13.334 15.1046 13.334 14C13.334 12.8954 12.4386 12 11.334 12C10.2294 12 9.33398 12.8954 9.33398 14C9.33398 15.1046 10.2294 16 11.334 16Z" fill="#45C8F5"/>
<path d="M20.6567 15.9813C21.7561 15.9813 22.6473 15.0901 22.6473 13.9907C22.6473 12.8913 21.7561 12 20.6567 12C19.5573 12 18.666 12.8913 18.666 13.9907C18.666 15.0901 19.5573 15.9813 20.6567 15.9813Z" fill="#45C8F5"/>
<path d="M16.0007 24C21.334 24 22.6673 18.6666 22.6673 18.6666H9.33398C9.33398 18.6666 10.6673 24 16.0007 24Z" fill="#45C8F5"/>
</svg>
