<svg width="32" height="32" viewBox="0 0 32 32" fill="none" xmlns="http://www.w3.org/2000/svg">
<path d="M7.51429 5.79999C12.2 1.11428 19.8 1.11428 24.4857 5.79999C29.1714 10.4857 29.1714 18.0857 24.4857 22.7714L24.4743 22.7828L18.1783 28.8343C17.5926 29.3965 16.812 29.7103 16.0001 29.7099C15.1882 29.7095 14.408 29.3949 13.8229 28.832L7.52571 22.784L7.51429 22.7714C2.82857 18.0857 2.82857 10.4857 7.51429 5.79999ZM16 9.71428C14.7876 9.71428 13.6248 10.1959 12.7675 11.0532C11.9102 11.9105 11.4286 13.0733 11.4286 14.2857C11.4286 15.4981 11.9102 16.6609 12.7675 17.5182C13.6248 18.3755 14.7876 18.8571 16 18.8571C17.2124 18.8571 18.3752 18.3755 19.2325 17.5182C20.0898 16.6609 20.5714 15.4981 20.5714 14.2857C20.5714 13.0733 20.0898 11.9105 19.2325 11.0532C18.3752 10.1959 17.2124 9.71428 16 9.71428Z" fill="#FC46AA"/>
</svg>
