<svg width="69" height="40" viewBox="0 0 69 40" fill="none" xmlns="http://www.w3.org/2000/svg">
<path d="M8.17792 13.8058C7.57687 16.6141 7.27089 19.4936 7.27089 22.3676C7.27089 25.0993 7.55502 27.8692 8.53855 30.4148C9.52754 32.9603 11.276 35.276 13.6802 36.5624C16.0844 37.8434 19.1771 37.9583 21.4829 36.5022C24.4881 34.6026 25.4881 30.7432 26.0454 27.2288C26.7557 22.7563 27.1491 18.1141 25.958 13.7456C24.7613 9.37711 21.7069 5.29877 17.3903 3.94663C12.3087 2.35908 6.53324 5.02507 3.49522 9.39902C1.07464 12.8861 0.173073 17.2053 0.315139 21.4808H9.51661L9.45104 11.7913L4.51154 12.8916L8.17792 13.8058Z" fill="white"/>
<path d="M24.9583 31.7559C25.7506 34.5423 29.3405 38.013 32.2201 38.2922C37.7279 38.8177 42.9843 34.7832 45.0879 29.6592C47.1861 24.5353 46.5906 18.634 44.7546 13.4061C43.6946 10.3843 42.1975 7.45007 39.9135 5.20562C37.6295 2.96116 34.4767 1.47215 31.2857 1.70207C28.0947 1.93199 24.1333 5.18919 23.3027 8.28216" fill="white"/>
<path d="M44.1636 31.5095C46.5951 35.128 52.3214 38.8013 56.5834 37.9254C60.8453 37.0495 64.4571 33.7814 66.1018 29.7413C67.7464 25.7013 67.506 21.0153 65.8176 16.9917C64.1292 12.9681 61.0694 9.60692 57.4412 7.19824C55.2447 5.74208 52.7531 4.59248 50.1249 4.49942C47.4912 4.40636 44.4969 5.54501 43.1309 7.80041" fill="white"/>
<path d="M33.1698 40.0056C32.7983 40.0056 32.4322 39.9892 32.0661 39.9509C28.3014 39.5896 24.2907 35.4948 23.3564 32.2103L26.5638 31.2961C27.214 33.5898 30.3121 36.4255 32.383 36.6225C36.798 37.0495 41.6009 33.7759 43.5461 29.0188C45.2563 24.8419 45.1252 19.4935 43.1855 13.9535C42.0325 10.6635 40.5791 8.18913 38.7486 6.38809C36.6395 4.31333 33.8911 3.18015 31.4049 3.35533C28.9024 3.53598 25.5639 6.28407 24.9136 8.70918L21.6953 7.83877C22.7226 4.02867 27.2359 0.306152 31.1755 0.0269636C34.6506 -0.219379 38.2623 1.23131 41.0873 4.00677C43.2893 6.16911 45.005 9.065 46.3328 12.8477C47.9009 17.3147 49.2232 23.966 46.6333 30.2888C44.2673 36.0696 38.7322 40.0056 33.1698 40.0056Z" fill="#2C547B"/>
<path d="M55.2723 39.7264C50.6607 39.7264 45.3277 36.2338 42.776 32.4455L45.5408 30.5788C47.6991 33.7922 52.8518 36.9892 56.2449 36.294C59.813 35.5659 63.075 32.7466 64.5503 29.1172C65.971 25.6246 65.8726 21.4477 64.2771 17.6431C62.8127 14.156 60.0589 10.9426 56.5181 8.59411C54.1686 7.03394 52.0595 6.24016 50.0651 6.17447C47.7702 6.09783 45.4971 7.12152 44.5519 8.67074L41.7051 6.9354C43.5137 3.96287 47.262 2.73114 50.1853 2.83515C52.8135 2.92822 55.4909 3.89716 58.365 5.80768C62.5067 8.55577 65.6158 12.2016 67.3588 16.3457C69.2931 20.955 69.3969 26.068 67.6484 30.3763C65.7305 35.0842 61.6216 38.6041 56.9225 39.5676C56.387 39.6771 55.8406 39.7264 55.2778 39.7264H55.2723Z" fill="#2C547B"/>
<path d="M0.162266 21.4807C0.0202001 19.3731 -0.12733 17.2819 0.184122 15.1579C0.501037 12.9901 1.4955 10.9646 2.63202 9.18545C8.03051 0.618195 19.5651 -0.525937 25.1877 8.5121C28.8595 14.167 28.4388 21.3165 27.4443 27.6666C26.9525 30.88 26.0838 34.6737 23.4337 37.066C20.6142 39.7265 16.0463 39.825 12.8443 37.9419C5.70282 33.6117 5.2493 24.0536 7.2109 16.8166C7.4841 15.7929 7.78463 14.7856 8.17258 13.8057C8.05237 15.886 8.01958 17.9552 8.1234 20.0245C8.34196 23.9332 8.52228 28.0827 10.5768 31.422C12.3198 34.4712 15.784 36.5569 19.21 35.67C24.5046 34.2412 24.8707 25.8054 25.2751 21.1796C26.122 11.1507 18.8931 0.689355 8.3365 6.30597C4.9761 8.20555 2.33696 11.6981 1.24415 15.3769C0.714136 17.3038 0.648567 19.4059 0.473717 21.4752H0.162266V21.4807Z" fill="#2C547B"/>
</svg>
