<svg width="212" height="61" viewBox="0 0 212 61" fill="none" xmlns="http://www.w3.org/2000/svg">
<path d="M103.413 60.8466H33.8066L34.3203 56.8777C34.5006 55.4927 35.2437 54.2446 36.3748 53.4289C37.2381 52.8048 38.2708 52.4764 39.3199 52.4764C39.6477 52.4764 39.9701 52.5092 40.2925 52.5694L41.3416 52.7775L49.2481 54.3322V51.5293C49.2481 50.648 49.4721 49.8159 49.871 49.0933C50.7288 47.5331 52.3845 46.4766 54.2914 46.4766C54.663 46.4766 58.2146 46.5094 64.3016 47.555C65.225 47.7138 66.2085 47.8999 67.2467 48.1079C68.8094 48.4199 70.5033 48.7977 72.3119 49.2465C80.4861 51.272 91.0864 54.7756 103.413 60.8466Z" fill="#2C547B"/>
<path d="M70.5802 54.0421C68.7497 53.5932 67.0614 53.2265 65.515 52.9254C64.4878 52.7283 63.5261 52.5586 62.63 52.4108C57.2698 51.5349 54.2919 51.5349 54.2919 51.5349V60.4635L50.7839 59.7792L39.3203 57.5347L38.8887 60.8467H91.1797C83.1967 57.5457 76.2355 55.4107 70.5802 54.0421Z" fill="#FC46AA"/>
<path d="M196.231 60.8467H94.113C87.2883 57.8358 80.8189 55.0001 74.4205 52.5531C73.437 52.1754 72.4589 51.8305 71.4808 51.513C69.8143 50.9601 68.1587 50.4948 66.514 50.1171C65.5414 49.8871 64.5743 49.6901 63.6181 49.5258C60.7822 49.0277 57.9955 48.7759 55.258 48.7759C53.444 48.7759 51.6518 48.8799 49.8705 49.0934C48.1329 49.2959 46.4117 49.6025 44.7015 50.0131C42.9803 50.4291 41.27 50.9437 39.5653 51.5678C34.1231 53.5604 28.7847 56.6369 23.4627 60.8467H0C0.52455 59.2755 1.13106 57.6333 1.84139 55.9472C2.34408 54.7538 2.89595 53.544 3.50246 52.3232C4.02701 51.2667 4.58982 50.2046 5.2018 49.1426C5.7482 48.1846 6.33285 47.2321 6.95575 46.2796C15.0753 33.8584 29.7136 22.1818 56.0339 22.1818C60.3779 22.1818 64.9895 22.5103 69.7323 23.1562C70.9071 23.315 72.071 23.4792 73.2239 23.6434C74.4642 23.8186 75.6881 23.9993 76.8957 24.1799C78.6715 24.4427 80.4146 24.7109 82.1248 24.9846C88.4194 25.9755 94.2988 26.9937 99.7355 27.9298C114.756 30.5246 127.733 32.7691 139.334 32.7691C158.042 32.7691 175.877 27.4426 202.11 1.45069C203.066 0.503639 204.339 0 205.645 0C206.154 0 206.667 0.0766443 207.17 0.235399C208.957 0.79925 210.284 2.31563 210.623 4.16046C210.623 4.16046 210.705 4.6203 210.803 5.45239C211.59 11.7861 213.962 40.2852 196.231 60.8467Z" fill="#2C547B"/>
<path d="M189.269 60.8466H106.691C96.3526 56.3905 86.0911 51.606 76.2176 47.8342C75.2122 47.451 74.2177 47.0952 73.2287 46.7722C71.5513 46.2084 69.9011 45.7376 68.2728 45.3434C67.2729 45.0916 66.2839 44.8781 65.3004 44.692C55.558 42.8362 46.7663 43.7668 38.8653 46.4821C37.2424 47.0405 35.6524 47.6755 34.1061 48.3762C27.5765 51.3268 21.7027 55.4654 16.4298 60.1514C16.173 60.3813 15.9162 60.6112 15.6594 60.8466H5.22852C5.62193 59.7517 6.05906 58.624 6.55083 57.4799C7.0863 56.2427 7.67641 54.9836 8.3321 53.7136C8.88397 52.6571 9.47955 51.5951 10.1243 50.5385C10.7308 49.5367 11.3865 48.5404 12.0914 47.5496C21.0142 35.008 37.7397 23.9061 69.0542 28.1651C69.7973 28.2637 70.5349 28.3677 71.2671 28.4717C72.4692 28.6414 73.6604 28.8111 74.8297 28.9863C76.6055 29.2436 78.3431 29.5063 80.0533 29.7746C136.442 38.5608 160.479 49.7995 205.656 5.04175C205.656 5.04175 205.716 5.39758 205.792 6.04354C206.519 11.8408 209.109 41.6921 189.269 60.8466Z" fill="#FC46AA"/>
<path d="M205.792 6.04354C179.313 55.8376 121.323 43.5698 78.0153 34.6357C76.2886 34.2799 74.5838 33.9295 72.9064 33.5901C71.7753 33.3602 70.6606 33.1358 69.5569 32.9168C66.4314 32.2927 63.4044 31.7125 60.5029 31.2088C40.7449 27.7655 27.0629 35.8784 17.9215 46.0824C16.3315 47.8561 14.8835 49.69 13.5612 51.5403C12.829 52.5695 12.1296 53.5986 11.4739 54.6333C10.6816 55.8759 9.944 57.1131 9.26099 58.3284C8.78016 59.1824 8.32665 60.02 7.90045 60.8466H5.22852C5.62193 59.7517 6.05906 58.624 6.55083 57.4799C7.0863 56.2427 7.67641 54.9836 8.3321 53.7136C8.88397 52.6571 9.47955 51.5951 10.1243 50.5385C10.7308 49.5367 11.3865 48.5404 12.0914 47.5496C21.0142 35.008 37.7397 23.9061 69.0542 28.1651C69.7973 28.2637 70.5349 28.3677 71.2671 28.4717C72.4692 28.6414 73.6604 28.8111 74.8297 28.9863C76.6055 29.2436 78.3431 29.5063 80.0534 29.7746C136.442 38.5608 160.479 49.7995 205.656 5.04175C205.656 5.04175 205.716 5.39758 205.792 6.04354Z" fill="#FC72CB"/>
</svg>
