<svg width="279" height="159" viewBox="0 0 279 159" fill="none" xmlns="http://www.w3.org/2000/svg">
<path d="M192.718 54.4737L188.926 54.2547C188.407 54.2383 187.883 54.2328 187.363 54.2383C186.822 54.2437 186.303 54.2164 185.812 54.1616C185.287 54.1014 184.757 54.0576 184.222 54.0302C179.151 53.7675 174.091 53.5211 169.037 53.2967C163.688 53.0558 156.847 52.9518 148.519 52.9847C146.765 52.9956 145.055 52.908 143.323 52.8314C143.492 53.6252 143.673 54.408 143.859 55.1798C144.891 59.4553 145.498 63.7197 145.667 67.9842C146.039 77.2138 144.869 86.1643 142.165 94.841C142.132 94.945 142.17 95.0053 142.279 95.0272C143.88 95.3392 145.443 95.7114 146.957 96.1494C147.039 96.1713 147.066 96.2808 147.006 96.3465C145.946 97.4796 144.766 98.5417 143.471 99.5325C143.066 99.8445 142.607 99.9376 142.105 99.8062C126.215 95.799 109.44 95.3885 93.3488 97.5891C90.4037 97.9887 87.5077 98.5143 84.6446 99.1548C84.5572 99.1767 84.4588 99.1438 84.4042 99.0727C84.3113 98.9522 84.3113 98.8318 84.4042 98.7114C84.661 98.3884 84.9943 98.1311 85.4095 97.934C88.2071 96.5983 91.2779 95.7443 94.2559 95.0545C94.3542 95.0326 94.3815 94.9779 94.3487 94.8848C94.01 93.9706 93.7422 92.9415 93.5455 91.7864C92.8953 88.0201 92.5839 84.0457 92.6112 79.8689C92.6604 72.0297 93.8461 64.4095 96.1628 57.0083C96.4797 55.9955 97.0152 54.4791 97.7638 52.4646C87.8738 53.3186 81.1421 53.9919 72.6127 54.1671C74.17 59.7509 75.0114 65.4715 75.148 71.3345C75.2519 75.6537 75.0114 80.1097 74.4322 84.7136C74.4159 84.8559 74.4814 84.9928 74.5962 85.0749C77.0714 86.7665 79.0275 88.9124 80.4646 91.5072C80.9399 92.3667 81.1968 93.04 81.235 93.5272C81.306 94.3702 81.1312 94.425 80.7105 93.6914C80.3826 93.1166 79.9837 92.5856 79.5138 92.0929C77.667 90.8503 75.4431 89.8047 72.8422 88.9671C69.7878 87.9872 67.3508 87.9544 64.4221 89.1095C58.0783 91.6112 54.5212 97.7698 54.9693 104.547C55.0184 105.286 55.3681 106.748 56.0129 108.921C58.0838 111.576 60.8868 112.999 64.433 113.185C66.6951 113.3 68.837 112.901 70.8424 111.976C71.5254 111.664 72.2029 111.33 72.8859 110.974C73.1482 110.837 73.2192 110.903 73.0826 111.171C72.1428 113.081 70.5528 114.68 68.4873 115.424C64.4112 116.902 60.0836 116.705 56.3845 114.494C50.0407 110.711 48.6856 103.381 50.3248 96.6366C50.3521 96.5271 50.3084 96.4778 50.1937 96.4833C41.4457 96.9213 33.2059 98.6511 25.4688 101.678C25.3541 101.722 25.2612 101.722 25.1792 101.673C25.1191 101.64 25.1137 101.558 25.1574 101.514C26.6163 100.151 28.3976 99.2259 30.1679 98.2789C30.2663 98.2296 30.2936 98.153 30.2499 98.049C30.0859 97.6658 29.8728 97.2935 29.7526 96.8939C28.78 93.6695 28.097 90.2481 27.7091 86.6296C26.8184 78.3634 27.2883 70.1027 29.1133 61.8585C29.3155 60.9388 29.5286 59.9972 29.7472 59.0447C26.2775 59.8932 22.8242 60.7308 19.3873 61.5574C16.6444 62.2198 13.8905 62.7179 11.153 63.4679C10.7213 63.5829 10.6448 63.9278 10.5902 64.3219C9.03839 75.7139 7.88547 87.1989 7.14236 98.777C6.72163 105.308 6.32275 111.631 5.95666 117.745C5.63428 123.105 5.47583 128.437 5.29551 133.862C5.29005 133.949 5.32283 134.02 5.38294 134.081C5.47583 134.157 5.525 134.25 5.525 134.343C10.8415 134.666 16.1471 135.11 21.4473 135.657C26.1737 136.15 30.6269 136.894 34.8014 137.896C37.2712 138.487 39.812 139.358 41.7025 141.011C42.5167 141.723 43.2543 142.533 43.9155 143.436C45.3361 145.369 46.6748 147.515 47.9316 149.863C48.631 151.171 49.1828 152.299 49.5926 153.257C49.6363 153.367 49.7074 153.383 49.8003 153.312C55.9801 148.763 62.7883 145.626 70.2195 143.896C72.8641 143.283 76.0715 142.774 78.6833 142.73C81.8415 142.686 85.2019 142.796 88.3547 143.25C96.5016 144.411 104.058 147.487 111.025 152.474C111.08 152.513 111.156 152.502 111.2 152.447C113.511 149.294 116.047 146.403 118.811 143.776C120.336 142.325 121.647 140.803 123.827 140.376C125.062 140.13 126.346 139.971 127.669 139.889C130.668 139.697 133.63 139.604 136.559 139.599C148.153 139.599 159.825 140.009 171.572 140.83C171.66 140.841 171.709 140.803 171.72 140.716C176.299 115.408 182.205 91.5729 189.232 66.528C190.538 61.8804 191.729 57.9006 192.811 54.5996C192.838 54.5175 192.806 54.4737 192.718 54.4737ZM144.913 116.667C143.438 119.798 141.657 122.694 139.58 125.355C139.498 125.459 139.433 125.448 139.373 125.333C139.181 124.917 139.149 124.468 139.274 123.986C139.575 122.875 139.946 121.714 140.394 120.504C140.558 120.061 140.586 119.629 140.476 119.202C140.438 119.043 140.269 118.95 140.116 119.005C139.05 119.36 137.941 119.678 136.897 120.121C125.887 124.818 114.249 128.059 101.987 129.844C86.557 132.088 70.3888 131.557 55.5867 127.32C52.6252 126.471 49.62 125.563 46.571 124.599C44.7624 124.03 43.0467 123.373 41.4293 122.639C41.3146 122.585 41.2982 122.612 41.3747 122.711C42.3582 124.013 43.3035 125.426 44.2051 126.948C44.2269 126.981 44.2324 127.019 44.2215 127.057C44.2105 127.096 44.1887 127.117 44.1614 127.123C44.1231 127.134 44.0903 127.128 44.0575 127.101C41.6643 125.251 39.4186 123.291 37.3313 121.222C36.6537 120.554 36.5226 119.749 36.9379 118.813C37.6373 117.214 39.6262 116.47 41.2217 116.032C43.5221 115.402 45.8989 115.025 48.3468 114.893C48.4616 114.888 48.5654 114.954 48.6091 115.058C48.6747 115.222 48.6364 115.331 48.4834 115.391C46.2814 116.284 44.0903 117.39 41.9102 118.714C41.8227 118.764 41.8173 118.884 41.8883 118.95C42.1888 119.218 42.5221 119.432 42.8828 119.607C71.2248 132.904 104.064 128.984 132.357 117.926C133.728 117.39 135.848 116.848 136.602 115.534C136.662 115.435 136.602 115.298 136.488 115.271C133.023 114.439 129.576 113.618 126.133 112.797C124.822 112.479 123.713 112.134 122.822 111.757C122.478 111.609 122.494 111.532 122.866 111.516C123.997 111.477 125.204 111.505 126.483 111.592C131.269 111.915 135.805 112.408 140.094 113.076C141.269 113.257 142.312 113.519 143.208 113.864C144.323 114.291 145.509 115.397 144.913 116.667ZM163.95 108.543C158.355 108.543 153.814 103.994 153.814 98.3829C153.814 92.7718 158.355 88.2281 163.95 88.2281C169.545 88.2281 174.091 92.7718 174.091 98.3829C174.091 103.994 169.551 108.543 163.95 108.543ZM167.873 82.7867C162.196 82.7867 157.59 78.1773 157.59 72.4895C157.59 66.8017 162.196 62.1869 167.873 62.1869C173.55 62.1869 178.151 66.8017 178.151 72.4895C178.151 78.1773 173.55 82.7867 167.873 82.7867Z" fill="#45C8F5"/>
<path d="M245.087 83.1972C245.119 83.3286 245.005 83.3943 244.731 83.3943C244.606 83.3943 244.48 83.3614 244.371 83.2957C243.07 82.5293 241.797 81.7192 240.48 80.9856C235.59 78.2539 230.498 75.4128 225.192 72.4512C217.198 67.9842 209.078 63.9168 200.844 60.2326C200.762 60.1943 200.68 60.1559 200.604 60.1176C200.259 59.9425 200.024 60.0355 199.899 60.3859C197.954 65.6959 195.899 71.8381 193.724 78.8068C188.85 94.4688 184.649 108.976 179.611 127.183C179.245 128.519 178.747 129.849 178.42 131.218C178.381 131.382 178.256 131.508 178.103 131.535C178.103 131.535 178.075 131.486 178.037 131.376C182.813 107.733 188.577 85.2117 195.014 63.0573C195.691 60.7198 196.435 58.4261 197.238 56.1761C197.265 56.0995 197.358 56.0612 197.429 56.0995C214.002 63.9825 229.727 73.3216 245.081 83.2082L245.087 83.1972Z" fill="#45C8F5"/>
<path d="M28.326 158.458H12.207C12.3546 156.454 12.7862 154.5 13.4856 152.6C14.7697 149.157 17.835 146.042 21.7473 146.754C23.5832 147.088 25.3809 148.544 26.3699 150.077C27.0092 151.067 27.6321 152.337 28.244 153.881C28.5063 155.398 28.5282 156.952 28.326 158.458Z" fill="#FC46AA"/>
<path d="M95.4364 150.213C92.2891 149.184 89.0543 148.505 85.7704 148.193C83.41 147.969 81.0276 147.931 78.6453 148.089C73.4053 148.938 68.5313 150.449 64.0071 152.617C60.6303 154.242 57.4611 156.202 54.5215 158.458H110.37C105.862 154.773 100.824 151.982 95.4364 150.213Z" fill="#45C8F5"/>
<path d="M105.468 68.8382C103.785 76.6062 103.741 85.48 105.91 92.9141C105.938 93.0181 105.905 93.0728 105.801 93.0838C102.725 93.4177 99.7305 93.8994 96.8182 94.5126C96.7253 94.529 96.6761 94.4961 96.6652 94.4031C96.2718 91.6276 95.9712 88.9343 95.7636 86.334C94.8675 75.0405 96.545 63.0135 101.118 52.5193C104.096 45.682 109.249 37.8537 116.445 35.1056C125.756 31.5528 132.848 38.7734 136.454 46.4429C137.072 47.7567 137.673 49.1691 138.263 50.6745C138.323 50.8223 138.301 50.8333 138.208 50.7019C136.793 48.7859 135.023 47.2366 132.908 46.0433C124.494 41.3025 116.068 46.7494 111.506 53.8879C111.44 53.9919 111.456 54.1233 111.538 54.2054C114.402 57.1506 117.226 60.0136 120.019 62.811C121.144 63.9387 122.079 65.0992 122.822 66.3036C123.843 67.9623 122.089 69.413 120.478 69.3637C119.204 69.3254 117.893 69.2597 116.532 69.1721C112.926 68.9367 109.309 68.9531 105.621 68.7232C105.55 68.7232 105.49 68.767 105.473 68.8382H105.468Z" fill="white"/>
<path d="M45.7454 53.8386C48.5484 56.8002 51.346 60.0136 54.1327 63.4678C54.7283 64.2069 55.2528 64.9514 54.925 65.9532C54.4769 67.3272 53.7448 67.6776 52.3842 67.7597C48.0293 68.0389 43.5106 68.3454 39.1229 68.0717C38.9863 68.0662 38.8661 68.1538 38.8333 68.2907C37.0521 76.743 37.6094 86.3284 42.1992 93.7078C42.2211 93.7461 42.1992 93.7954 42.1609 93.8063C39.1612 94.5618 36.2598 95.5745 33.3474 96.7843C33.2436 96.8281 33.178 96.7953 33.1562 96.6858C32.7846 95.0709 32.4622 93.5983 32.1945 92.268C29.7849 80.46 30.3039 67.6228 34.402 56.2308C36.7515 49.711 40.8496 42.1017 47.1496 38.746C54.5206 34.8209 60.9573 39.4576 64.7439 45.6107C65.9296 47.5377 66.9896 49.6507 67.924 51.9554C67.9841 52.0977 67.9622 52.1087 67.8639 51.9883C64.957 48.2986 60.5803 46.1965 55.8976 47.0012C51.8924 47.6909 48.2807 50.3241 45.729 53.4937C45.647 53.5977 45.6525 53.751 45.7399 53.844L45.7454 53.8386Z" fill="white"/>
<path d="M97.7634 52.4646C87.8735 53.3132 81.1417 53.992 72.6124 54.1672L72.0386 52.2566C72.0058 52.1471 72.0441 52.0924 72.1588 52.0869L98.1732 51.0632C98.2825 51.0632 98.3098 51.107 98.2716 51.2056L97.7634 52.4646Z" fill="white"/>
<path d="M188.927 54.2547C188.408 54.2438 187.883 54.2383 187.364 54.2383C186.823 54.2383 186.309 54.2164 185.812 54.1617C185.288 54.1014 184.758 54.0576 184.222 54.0303C179.152 53.773 174.092 53.5212 169.038 53.2967C163.688 53.0558 156.847 52.9518 148.52 52.9847C146.766 52.9902 145.056 52.908 143.324 52.8314L142.881 51.3643C142.854 51.2767 142.881 51.2329 142.979 51.2329C155.743 51.6654 168.486 52.4427 181.206 53.554C183.78 53.7785 186.353 54.0138 188.927 54.2547Z" fill="white"/>
<path d="M29.7472 59.0446C26.2775 59.8931 22.8242 60.7307 19.3928 61.5573C16.6444 62.2197 13.896 62.7124 11.1585 63.4678C10.7268 63.5882 10.6448 63.9276 10.5957 64.3218C9.04387 75.7192 7.89096 87.2043 7.14238 98.7769C6.72165 105.308 6.32277 111.631 5.95668 117.74C5.6343 123.105 5.47585 128.437 5.29553 133.862C5.29553 133.949 5.32285 134.02 5.38842 134.075C5.48131 134.157 5.52502 134.245 5.53048 134.338L5.19718 134.294C5.10975 134.283 5.06604 134.228 5.06604 134.141C5.00047 130.117 4.96769 127.095 4.95676 125.075C4.90758 109.589 5.01686 96.0069 5.2846 84.3193C5.41028 78.6589 5.63977 72.9493 5.95668 67.1958C6.07143 65.1648 6.22988 63.1229 6.43752 61.0755C6.46484 60.8237 6.63423 60.6102 6.87464 60.5281C8.13684 60.1121 9.3444 59.7617 10.5028 59.488C16.7701 57.988 23.469 56.7947 30.6105 55.9023C30.6542 55.9023 30.6706 55.9133 30.6597 55.9571L29.7581 59.0446H29.7472Z" fill="white"/>
<path d="M166.213 70.6334C167.381 69.4262 167.684 67.8234 166.891 67.0533C166.098 66.2833 164.508 66.6376 163.341 67.8448C162.173 69.0519 161.87 70.6548 162.663 71.4248C163.456 72.1949 165.045 71.8406 166.213 70.6334Z" fill="white"/>
<path d="M79.5148 92.093C77.668 90.8449 75.4441 89.8048 72.8432 88.9672C69.7888 87.9873 67.3518 87.9544 64.4231 89.1095C58.0848 91.6058 54.5222 97.7698 54.9703 104.547C55.0194 105.292 55.3691 106.748 56.0139 108.926C52.9322 104.454 53.7627 98.3063 55.9538 93.6368C58.4017 88.4252 62.7511 85.4363 68.7178 86.2191C72.1711 86.668 75.3403 88.1515 78.2253 90.6587C78.799 91.1624 79.2361 91.6386 79.5203 92.0985L79.5148 92.093Z" fill="white"/>
<path d="M162.891 97.6348C164.037 96.1716 164.087 94.2959 163.004 93.4452C161.921 92.5945 160.115 93.0911 158.97 94.5543C157.825 96.0175 157.774 97.8932 158.857 98.7439C159.94 99.5946 161.746 99.098 162.891 97.6348Z" fill="white"/>
<path d="M46.5215 155.584C45.385 153.104 44.0245 150.586 42.4563 148.035C41.5001 146.474 40.5548 145.215 39.6259 144.252C38.5822 143.168 37.0906 142.374 35.1508 141.882C31.5992 140.984 27.8618 140.321 23.9222 139.911C17.5238 139.237 11.3166 138.745 5.2952 138.438C5.20778 138.433 5.16406 138.477 5.16406 138.564C5.26242 145.215 5.42634 151.845 5.66675 158.458H8.22394C8.13651 157.779 8.08733 157.089 8.08187 156.383C7.99991 148.538 13.076 142.122 19.4198 142.057C25.7636 141.991 30.9708 148.297 31.0582 156.142C31.0692 156.93 31.02 157.702 30.9271 158.458H43.6529C44.5599 157.587 45.4888 156.744 46.4505 155.923C46.5488 155.841 46.5762 155.699 46.5215 155.584Z" fill="white"/>
<path d="M170.916 145.352L169.244 155.365C168.928 155.748 168.736 156.197 168.671 156.711C168.589 157.368 168.523 157.773 168.469 157.921C168.408 158.102 168.343 158.283 168.272 158.458H117.959C116.735 157.221 115.451 156.027 114.107 154.889C114.068 154.856 114.063 154.806 114.096 154.768C116.123 152.212 118.341 149.677 120.751 147.159C121.663 146.201 122.505 145.429 123.264 144.849C124.226 144.115 125.827 144.099 127.302 144.039C130.329 143.913 133.329 143.852 136.291 143.863C146.667 143.891 156.934 144.29 167.086 145.057C168.31 145.15 169.545 145.199 170.796 145.205C170.889 145.21 170.933 145.254 170.916 145.352Z" fill="white"/>
<path d="M28.2453 153.881C27.6334 152.337 27.0105 151.067 26.3712 150.076C25.3822 148.544 23.5845 147.088 21.7486 146.754C17.8363 146.042 14.771 149.157 13.4869 152.6C12.7875 154.5 12.3559 156.454 12.2083 158.458H11.0499C10.9188 157.565 10.8696 156.646 10.9024 155.726C11.0117 152.671 12.0499 149.814 13.782 147.783C14.8201 146.551 16.0769 145.675 17.4374 145.215C19.41 144.553 21.5027 144.81 23.3605 145.949C24.6391 146.732 25.7592 147.909 26.6225 149.376C27.4039 150.706 27.9557 152.244 28.2453 153.881Z" fill="white"/>
<path d="M54.5208 158.458H51.9199C52.1603 158.272 52.4008 158.085 52.6466 157.905C57.832 154.062 63.5147 151.264 69.4432 149.639C72.4812 148.806 75.5629 148.292 78.6446 148.089C73.4046 148.938 68.5307 150.449 64.0064 152.617C60.6296 154.242 57.4605 156.202 54.5208 158.458Z" fill="white"/>
<path d="M167.796 64.8967C163.556 64.8967 160.113 68.3401 160.113 72.5936C160.113 76.8471 163.556 80.2849 167.796 80.2849C172.036 80.2849 175.478 76.8416 175.478 72.5936C175.478 68.3455 172.041 64.8967 167.796 64.8967ZM166.217 70.6392C165.047 71.8436 163.457 72.1994 162.665 71.433C161.873 70.6612 162.173 69.0572 163.343 67.8528C164.512 66.643 166.102 66.2872 166.894 67.0591C167.686 67.8255 167.38 69.4294 166.217 70.6392Z" fill="white"/>
<path d="M164.042 90.916C159.862 90.916 156.475 94.3101 156.475 98.4924C156.475 102.675 159.862 106.074 164.042 106.074C168.222 106.074 171.605 102.68 171.605 98.4924C171.605 94.3046 168.217 90.916 164.042 90.916ZM162.895 97.6384C161.747 99.1001 159.944 99.5928 158.857 98.7442C157.775 97.8903 157.824 96.018 158.966 94.5509C160.114 93.0893 161.917 92.5966 163.004 93.4451C164.086 94.2991 164.037 96.1713 162.895 97.6384Z" fill="white"/>
<path d="M203.302 158.458H173.387C173.988 154.472 174.649 150.328 175.37 146.031C175.387 145.932 175.447 145.894 175.545 145.921C180.244 147.159 185.118 148.5 190.156 149.934C191.746 150.388 193.358 150.854 194.986 151.325C196.024 151.626 197.073 151.932 198.128 152.244C199.576 152.671 201.046 153.109 202.521 153.553C202.625 153.585 202.69 153.684 202.685 153.788C202.603 155.195 202.74 156.52 203.084 157.762C203.149 157.998 203.226 158.233 203.302 158.458Z" fill="#B4CCD9"/>
<path d="M169.244 155.365C169.151 156.076 169.009 157.111 168.818 158.457H168.271C168.343 158.282 168.408 158.102 168.468 157.921C168.523 157.773 168.588 157.368 168.67 156.711C168.736 156.197 168.927 155.748 169.244 155.365Z" fill="white"/>
<path d="M272.652 101.876C269.521 108.467 266.466 115.101 263.549 121.791C262.855 123.389 262.161 124.993 261.483 126.597C260.833 128.13 260.188 129.663 259.56 131.201C258.434 133.922 257.341 136.654 256.281 139.396C255.822 140.579 255.369 141.767 254.926 142.955C254.577 143.874 254.232 144.794 253.899 145.719C253.653 146.387 253.407 147.06 253.167 147.728C252.828 148.664 252.495 149.6 252.167 150.536C251.243 153.17 250.347 155.814 249.489 158.458H238.796C238.343 158.096 237.889 157.741 237.436 157.39C234.305 154.938 231.147 152.556 227.994 150.389C227.404 149.978 226.808 149.573 226.218 149.179C225.311 148.582 224.404 148.002 223.502 147.443C222.601 146.891 221.688 146.403 220.759 145.987C218.847 145.122 216.88 144.553 214.853 144.279C210.432 143.677 205.908 146.02 203.755 149.945C203.684 150.077 203.526 150.142 203.384 150.098C202.324 149.781 201.269 149.463 200.215 149.151C199.067 148.817 197.92 148.478 196.778 148.15C195.128 147.673 193.488 147.208 191.855 146.754C186.516 145.254 181.249 143.858 176.058 142.56C176.02 142.549 176.003 142.528 176.009 142.484L178.041 131.371C178.08 131.469 178.102 131.524 178.107 131.524C178.26 131.502 178.38 131.376 178.424 131.212C178.746 129.844 179.244 128.513 179.61 127.178C184.648 108.976 188.849 94.4633 193.723 78.8069C195.898 71.8327 197.953 65.696 199.898 60.3859C200.029 60.0356 200.264 59.9425 200.608 60.1177C200.685 60.156 200.766 60.1943 200.848 60.2326C209.083 63.9168 217.197 67.9842 225.196 72.4512C230.496 75.4128 235.594 78.254 240.485 80.9857C241.796 81.7192 243.075 82.5239 244.375 83.2958C244.484 83.3615 244.605 83.3943 244.73 83.3943C245.004 83.3998 245.118 83.3341 245.085 83.1973C248.052 85.0804 251.003 87.0074 253.926 88.9781C260.112 93.1495 266.324 97.3373 272.564 101.547C272.668 101.618 272.706 101.755 272.652 101.876Z" fill="#2C9CD7"/>
<path d="M110.451 19.2521C110.56 13.8052 113.259 8.57726 117.199 4.74526C121.177 0.869471 126.307 -1.40236 131.668 0.962534C133.575 1.8001 135.241 3.03729 136.667 4.6741C139.842 8.29807 139.044 13.1428 137.607 17.3361C137.591 17.3799 137.536 17.3909 137.503 17.3525C136.569 16.2303 135.443 15.2559 134.116 14.4402C129.744 11.7469 124.772 11.4513 119.931 13.0826C116.418 14.265 113.314 16.3453 110.609 19.3178C110.5 19.4437 110.445 19.4218 110.445 19.2521H110.451Z" fill="#2C547B"/>
<path d="M68.0487 20.5495C63.8195 17.6263 58.7489 17.2595 53.7383 18.3489C49.2906 19.3124 45.3455 21.2886 41.9032 24.2666C41.854 24.3104 41.7939 24.3268 41.7338 24.3213C41.5863 24.3049 41.5098 24.2337 41.5098 24.1023C41.5098 23.2812 41.6354 22.5641 41.8868 21.9455C44.4877 15.5625 48.7496 8.10649 55.7983 5.90583C63.8086 3.40408 68.2399 11.5772 68.6115 18.1792C68.6552 18.9127 68.5678 19.6682 68.3602 20.4401C68.311 20.6262 68.2072 20.6645 68.0487 20.555V20.5495Z" fill="#2C547B"/>
<path d="M277.137 98.4103C253.511 82.4746 229.889 66.4624 204.318 53.6799C201.525 52.2894 198.679 51.0413 195.826 49.7384C195.389 49.5413 194.865 49.4264 194.247 49.4045C188.324 49.1581 182.527 48.5177 176.167 47.9757C164.867 47.0286 153.207 46.3772 141.18 46.0214C140.951 46.0214 140.749 45.8845 140.65 45.6765C136.214 35.9761 127.345 27.4033 115.915 31.4653C109.462 33.7535 104.331 39.7478 101.123 45.5342C100.992 45.7696 100.746 45.9228 100.473 45.9283C90.3045 46.1199 80.2343 46.5141 70.246 47.1053C70.0492 47.1162 69.8689 47.0122 69.7815 46.837C66.3228 39.6548 59.8861 32.4561 51.1327 33.2772C42.4667 34.0929 36.1939 42.5397 32.9647 49.9355C32.8226 50.2639 32.5713 50.461 32.2216 50.5048C24.8888 51.3533 17.6544 52.5796 10.5128 54.1781C9.07034 54.501 7.43112 54.9499 5.60613 55.5193C5.11436 55.6725 4.63899 55.7875 4.17454 55.8751C2.82492 56.116 1.96706 57.1178 1.672 58.4535C1.43705 59.4772 1.27859 60.5994 1.18024 61.8147C0.994459 64.1522 0.841465 66.3529 0.732184 68.4167C0.333308 76.0314 0.087425 83.6023 0 91.1295C0 91.1295 0.442589 124.78 1.4753 158.458H5.66623C5.42581 151.845 5.26189 145.215 5.16354 138.564C5.16354 138.477 5.20725 138.433 5.29468 138.438C11.3161 138.745 17.5232 139.237 23.9217 139.911C27.8612 140.321 31.5987 140.984 35.1503 141.882C37.09 142.374 38.5817 143.168 39.6254 144.252C40.5543 145.215 41.4995 146.474 42.4557 148.035C44.0239 150.586 45.3845 153.104 46.521 155.584C46.5756 155.699 46.5483 155.841 46.45 155.923C45.4883 156.744 44.5594 157.587 43.6524 158.458H51.9195C52.1599 158.272 52.4003 158.085 52.6462 157.905C57.8316 154.062 63.5142 151.264 69.4427 149.639C72.4808 148.807 75.5625 148.292 78.6442 148.089C81.0265 147.931 83.4089 147.969 85.7693 148.193C89.0532 148.505 92.288 149.184 95.4353 150.213C100.823 151.982 105.861 154.773 110.369 158.458H117.958C116.734 157.22 115.45 156.027 114.106 154.888C114.068 154.856 114.062 154.806 114.095 154.768C116.122 152.212 118.341 149.677 120.75 147.159C121.663 146.201 122.504 145.429 123.264 144.849C124.225 144.115 125.826 144.099 127.302 144.038C130.329 143.913 133.329 143.852 136.29 143.863C146.666 143.891 156.933 144.29 167.085 145.057C168.309 145.15 169.544 145.199 170.796 145.204C170.888 145.21 170.932 145.254 170.916 145.352L169.244 155.365C169.151 156.076 169.009 157.111 168.818 158.458H173.386C173.987 154.472 174.648 150.328 175.369 146.031C175.385 145.933 175.446 145.894 175.544 145.922C180.243 147.159 185.117 148.5 190.155 149.934C191.745 150.389 193.357 150.854 194.985 151.325C196.023 151.626 197.072 151.932 198.127 152.244C199.575 152.671 201.045 153.109 202.52 153.553C202.624 153.586 202.689 153.684 202.684 153.788C202.602 155.195 202.738 156.52 203.083 157.762C203.148 157.998 203.225 158.233 203.301 158.458H238.796C238.342 158.096 237.889 157.741 237.435 157.39C234.304 154.938 231.146 152.556 227.993 150.389C227.403 149.978 226.808 149.573 226.218 149.179C225.311 148.582 224.403 148.002 223.502 147.443C222.6 146.891 221.688 146.403 220.759 145.987C218.847 145.122 216.879 144.553 214.852 144.279C210.432 143.677 205.908 146.02 203.755 149.945C203.684 150.077 203.525 150.142 203.383 150.098C202.323 149.781 201.269 149.463 200.214 149.151C199.067 148.817 197.919 148.478 196.777 148.15C195.127 147.673 193.488 147.208 191.854 146.754C186.516 145.254 181.248 143.858 176.057 142.56C176.019 142.549 176.003 142.528 176.008 142.484L178.041 131.371C182.817 107.728 188.581 85.2063 195.018 63.0519C195.695 60.7144 196.438 58.4206 197.242 56.1652C197.269 56.0886 197.356 56.0557 197.433 56.0886C214.011 63.9716 229.736 73.3052 245.085 83.1972C248.052 85.0804 251.002 87.0073 253.926 88.9781C260.111 93.1495 266.324 97.3373 272.564 101.547C272.667 101.618 272.706 101.755 272.651 101.875C269.52 108.467 266.466 115.101 263.548 121.791C262.854 123.389 262.16 124.993 261.483 126.597C260.832 128.13 260.188 129.663 259.559 131.201C258.434 133.922 257.341 136.654 256.281 139.396C255.822 140.579 255.368 141.767 254.926 142.955C254.576 143.874 254.232 144.794 253.898 145.719C253.653 146.387 253.407 147.06 253.166 147.728C252.827 148.664 252.494 149.6 252.166 150.536C251.243 153.17 250.347 155.814 249.489 158.458H254.893C255.647 156.18 256.428 153.914 257.232 151.653C257.521 150.81 257.822 149.967 258.133 149.124C258.401 148.369 258.68 147.613 258.964 146.858C259.259 146.031 259.57 145.204 259.882 144.383C261.406 140.316 263.007 136.27 264.668 132.247C265.335 130.621 266.012 129.006 266.706 127.386C267.384 125.787 268.078 124.189 268.777 122.596C269.586 120.756 270.411 118.922 271.241 117.094C273.23 112.726 275.225 108.428 277.23 104.202C277.536 103.562 277.869 102.932 278.235 102.313C279.071 100.885 278.432 99.2862 277.137 98.4103ZM101.112 52.5194C104.09 45.6874 109.243 37.8537 116.439 35.1057C125.75 31.5528 132.842 38.7734 136.448 46.4429C137.071 47.7512 137.672 49.1636 138.263 50.6745C138.317 50.8223 138.301 50.8333 138.208 50.7019C136.787 48.7914 135.022 47.2367 132.908 46.0433C124.488 41.3025 116.062 46.7495 111.5 53.8879C111.434 53.9919 111.45 54.1233 111.538 54.2054C114.401 57.1506 117.226 60.0136 120.013 62.811C121.138 63.9387 122.073 65.0993 122.816 66.3036C123.837 67.9623 122.083 69.413 120.472 69.3637C119.198 69.3254 117.887 69.2652 116.527 69.1776C112.92 68.9422 109.309 68.9532 105.62 68.7232C105.549 68.7178 105.484 68.767 105.467 68.8382C103.784 76.6062 103.741 85.48 105.91 92.9141C105.937 93.0181 105.899 93.0728 105.801 93.0838C102.719 93.4177 99.7246 93.894 96.8122 94.5126C96.7248 94.529 96.6701 94.4962 96.6592 94.4031C96.2658 91.6276 95.9653 88.9343 95.7576 86.334C94.867 75.0406 96.539 63.0136 101.112 52.5194ZM34.4017 56.22C36.7513 49.7001 40.8493 42.0963 47.1494 38.7351C54.5258 34.81 60.9571 39.4522 64.7491 45.6053C65.9348 47.5323 66.9948 49.6454 67.9292 51.95C67.9838 52.0978 67.9674 52.1033 67.8691 51.9829C64.9622 48.2932 60.5855 46.1911 55.9028 46.9958C51.8976 47.6856 48.2804 50.3187 45.7287 53.4883C45.6468 53.5923 45.6522 53.7456 45.7451 53.8387C48.5482 56.8057 51.3458 60.0136 54.1324 63.4679C54.728 64.207 55.2471 64.9569 54.9247 65.9532C54.4767 67.3273 53.7445 67.6722 52.3839 67.7598C48.0291 68.0389 43.5158 68.3455 39.1281 68.0718C38.9915 68.0608 38.8659 68.1539 38.8385 68.2908C37.0573 76.7431 37.6146 86.3231 42.2044 93.7024C42.2263 93.7407 42.2044 93.79 42.1607 93.8009C39.1664 94.5564 36.2595 95.5691 33.3526 96.7789C33.2488 96.8227 33.1832 96.7899 33.1559 96.6804C32.7844 95.0655 32.462 93.5929 32.1942 92.2626C29.7846 80.4546 30.3037 67.6174 34.4017 56.22ZM189.231 66.528C182.205 91.5729 176.298 115.408 171.719 140.716C171.708 140.803 171.659 140.841 171.571 140.831C159.824 140.009 148.153 139.599 136.558 139.599C133.629 139.604 130.668 139.697 127.668 139.889C126.345 139.971 125.061 140.13 123.827 140.376C121.646 140.803 120.335 142.325 118.811 143.776C116.046 146.403 113.51 149.294 111.199 152.447C111.155 152.502 111.079 152.513 111.024 152.474C104.058 147.487 96.5008 144.411 88.3538 143.25C85.2011 142.796 81.8407 142.686 78.6825 142.73C76.0706 142.774 72.8632 143.283 70.2186 143.896C62.7875 145.626 55.9793 148.763 49.7994 153.312C49.7066 153.383 49.6355 153.367 49.5918 153.257C49.182 152.299 48.6301 151.171 47.9307 149.863C46.674 147.515 45.3353 145.369 43.9146 143.436C43.2535 142.533 42.5158 141.723 41.7017 141.011C39.8111 139.358 37.2704 138.487 34.8006 137.896C30.6261 136.894 26.1728 136.15 21.4464 135.657C16.1463 135.11 10.8407 134.666 5.52416 134.343L5.19086 134.3C5.10343 134.283 5.05972 134.234 5.05972 134.146C4.99415 130.123 4.9559 127.101 4.95044 125.076C4.90126 109.594 5.01054 96.0071 5.27828 84.3195C5.40942 78.6591 5.63345 72.9549 5.95036 67.1959C6.06511 65.1649 6.22356 63.123 6.4312 61.0757C6.45852 60.8238 6.6279 60.6103 6.86832 60.5282C8.13052 60.1122 9.33808 59.7618 10.4965 59.4881C16.7583 57.9882 23.4627 56.7893 30.6042 55.9025C30.6479 55.897 30.6643 55.9134 30.6479 55.9572L29.7463 59.0447C29.5278 59.9972 29.3147 60.9388 29.1125 61.8585C27.2875 70.1028 26.8176 78.3634 27.7082 86.6296C28.0962 90.2481 28.7792 93.6695 29.7518 96.8939C29.872 97.2935 30.0851 97.6658 30.249 98.049C30.2927 98.153 30.2654 98.2296 30.1671 98.2789C28.3967 99.2259 26.6154 100.151 25.1565 101.514C25.1128 101.558 25.1183 101.64 25.1784 101.673C25.2603 101.722 25.3532 101.722 25.468 101.678C33.2051 98.6511 41.4449 96.9213 50.1929 96.4833C50.3076 96.4778 50.3513 96.5271 50.324 96.6366C48.6848 103.381 50.0399 110.711 56.3836 114.494C60.0828 116.705 64.4103 116.902 68.4865 115.424C70.5519 114.68 72.142 113.081 73.0818 111.171C73.2184 110.903 73.1474 110.837 72.8851 110.974C72.2021 111.33 71.5245 111.664 70.8415 111.976C68.8362 112.901 66.6943 113.3 64.4322 113.185C60.886 112.999 58.083 111.576 56.0121 108.921C52.9303 104.448 53.7609 98.3008 55.952 93.6367C58.3999 88.4252 62.7493 85.4362 68.716 86.219C72.1638 86.6679 75.333 88.1515 78.218 90.6587C78.7972 91.1568 79.2289 91.6331 79.513 92.0929C79.9829 92.5856 80.3818 93.1166 80.7096 93.6914C81.1304 94.425 81.3052 94.3703 81.2342 93.5272C81.1959 93.04 80.9391 92.3667 80.4637 91.5072C79.0267 88.9124 77.0706 86.7665 74.5953 85.0749C74.4806 84.9928 74.415 84.8559 74.4314 84.7136C75.0106 80.1097 75.251 75.6537 75.1472 71.3345C75.0106 65.4715 74.1691 59.7509 72.6119 54.1671L72.0382 52.2566C72.0054 52.1526 72.0491 52.0924 72.1584 52.0869L98.1728 51.0632C98.2766 51.0577 98.3094 51.107 98.2711 51.2055L97.763 52.4646C97.0144 54.4791 96.4789 55.9955 96.162 57.0083C93.8452 64.4095 92.6595 72.0297 92.6104 79.8689C92.583 84.0457 92.8945 88.0201 93.5447 91.7864C93.7414 92.9415 94.0091 93.9706 94.3479 94.8848C94.3807 94.9779 94.3534 95.0326 94.255 95.0545C91.2771 95.7443 88.2063 96.5983 85.4087 97.934C84.9934 98.1311 84.6601 98.3884 84.4033 98.7114C84.3104 98.8318 84.3104 98.9522 84.4033 99.0727C84.458 99.1438 84.5563 99.1767 84.6438 99.1548C87.5069 98.5143 90.4029 97.9888 93.348 97.5891C109.44 95.3885 126.214 95.799 142.104 99.8062C142.606 99.9376 143.065 99.8445 143.47 99.5325C144.765 98.5417 145.945 97.4796 147.005 96.3465C147.065 96.2808 147.038 96.1713 146.956 96.1494C145.442 95.7114 143.88 95.3392 142.279 95.0272C142.169 95.0053 142.131 94.9451 142.164 94.841C144.869 86.1643 146.038 77.2138 145.666 67.9842C145.497 63.7197 144.89 59.4553 143.858 55.1799C143.672 54.408 143.492 53.6252 143.322 52.8314L142.88 51.3643C142.852 51.2767 142.885 51.2329 142.978 51.2329C155.742 51.6654 168.484 52.4427 181.205 53.554C183.784 53.7784 186.357 54.0138 188.925 54.2547L192.717 54.4737C192.805 54.4737 192.838 54.5175 192.81 54.5996C191.728 57.9006 190.537 61.8804 189.231 66.528Z" fill="#2C547B"/>
<path d="M167.873 62.187C162.196 62.187 157.59 66.8018 157.59 72.4896C157.59 78.1774 162.196 82.7867 167.873 82.7867C173.55 82.7867 178.151 78.1774 178.151 72.4896C178.151 66.8018 173.55 62.187 167.873 62.187ZM167.797 80.285C163.557 80.285 160.114 76.8417 160.114 72.5936C160.114 68.3456 163.557 64.8968 167.797 64.8968C172.037 64.8968 175.479 68.3401 175.479 72.5936C175.479 76.8471 172.042 80.285 167.797 80.285Z" fill="#2C547B"/>
<path d="M163.948 88.228C158.353 88.228 153.812 92.7717 153.812 98.3828C153.812 103.994 158.353 108.543 163.948 108.543C169.544 108.543 174.09 103.994 174.09 98.3828C174.09 92.7717 169.549 88.228 163.948 88.228ZM164.041 106.074C159.861 106.074 156.473 102.68 156.473 98.4923C156.473 94.3045 159.861 90.9159 164.041 90.9159C168.221 90.9159 171.603 94.31 171.603 98.4923C171.603 102.675 168.216 106.074 164.041 106.074Z" fill="#2C547B"/>
<path d="M41.3688 122.711C42.3524 124.008 43.2976 125.42 44.2047 126.948C44.2265 126.981 44.232 127.019 44.2156 127.057C44.2047 127.095 44.1883 127.117 44.1555 127.123C44.1173 127.134 44.0845 127.123 44.0517 127.101C41.653 125.251 39.4127 123.291 37.3254 121.222C36.6479 120.554 36.5167 119.749 36.932 118.813C37.6369 117.214 39.6203 116.47 41.2158 116.032C43.5162 115.402 45.8876 115.019 48.341 114.888C48.4557 114.888 48.5541 114.948 48.5978 115.052C48.6634 115.216 48.6251 115.326 48.4721 115.386C46.2646 116.278 44.0735 117.384 41.8988 118.703C41.8114 118.758 41.8005 118.879 41.877 118.944C42.1775 119.207 42.5054 119.426 42.866 119.596C71.2135 132.893 104.047 128.979 132.345 117.921C133.717 117.384 135.837 116.842 136.586 115.528C136.646 115.424 136.586 115.293 136.471 115.266C133.007 114.433 129.559 113.612 126.116 112.791C124.805 112.474 123.696 112.129 122.805 111.751C122.461 111.609 122.477 111.527 122.849 111.51C123.98 111.472 125.188 111.499 126.466 111.581C131.253 111.904 135.788 112.403 140.077 113.065C141.252 113.246 142.295 113.514 143.197 113.853C144.306 114.28 145.497 115.391 144.902 116.656C143.427 119.787 141.645 122.683 139.569 125.344C139.487 125.448 139.421 125.437 139.367 125.322C139.17 124.906 139.137 124.457 139.268 123.975C139.569 122.858 139.94 121.698 140.389 120.488C140.552 120.05 140.58 119.612 140.47 119.185C140.432 119.026 140.263 118.933 140.11 118.988C139.039 119.349 137.935 119.661 136.892 120.105C125.876 124.802 114.238 128.043 101.982 129.827C86.5511 132.072 70.383 131.541 55.5809 127.304C52.6139 126.455 49.6086 125.546 46.5652 124.583C44.7565 124.008 43.0408 123.357 41.4235 122.623C41.3087 122.568 41.2923 122.596 41.3634 122.694L41.3688 122.711Z" fill="#2C547B"/>
<path d="M19.419 142.057C13.0752 142.122 7.9991 148.538 8.08106 156.383C8.08652 157.089 8.1357 157.779 8.22312 158.458H11.048C10.9169 157.565 10.8677 156.646 10.9005 155.726C11.0098 152.671 12.048 149.814 13.7801 147.783C14.8182 146.551 16.075 145.675 17.4355 145.215C19.4081 144.553 21.5008 144.81 23.3586 145.949C24.6372 146.732 25.7573 147.909 26.6206 149.376C27.402 150.706 27.9538 152.244 28.2434 153.881C28.5057 155.397 28.5276 156.952 28.3254 158.458H30.9263C31.0192 157.702 31.0684 156.93 31.0574 156.142C30.97 148.297 25.7628 141.991 19.419 142.057Z" fill="#2C547B"/>
<path d="M265.558 108.133C265.312 108.757 265.071 109.359 264.82 109.912C263.099 113.656 261.449 117.444 259.875 121.255C259.678 121.72 259.487 122.185 259.296 122.65C258.826 123.789 258.367 124.933 257.919 126.083C257.334 127.561 256.766 129.039 256.209 130.528C254.733 134.431 253.324 138.362 251.952 142.303C251.614 143.256 251.286 144.214 250.952 145.166C250.723 145.823 250.499 146.48 250.269 147.137C249.942 148.1 249.608 149.058 249.28 150.022C249.242 150.126 249.209 150.235 249.171 150.339C248.237 153.044 247.308 155.753 246.368 158.458H244.893C243.587 157.286 242.275 156.137 240.942 155.009C239.298 153.608 237.62 152.239 235.899 150.92C235.407 150.547 234.91 150.17 234.413 149.803C233.44 149.086 232.418 148.352 231.353 147.624C229.517 146.376 227.561 145.155 225.517 144.093C219.611 141.028 213.032 139.331 206.917 142.287C206.092 142.686 205.306 143.157 204.573 143.694C203.595 144.4 202.71 145.221 201.945 146.135C200.896 145.768 199.825 145.451 198.743 145.161C197.028 144.69 195.29 144.296 193.607 143.891C193.192 143.798 192.782 143.699 192.378 143.601C189.815 142.977 187.291 142.309 184.799 141.449C184.406 141.318 184.007 141.175 183.613 141.033C189.132 116.892 196.41 92.9032 205.994 72.4568C205.994 72.4568 241.68 92.0109 265.558 108.133Z" fill="#2C547B"/>
<path d="M179.916 158.458C180.359 156.213 180.812 153.963 181.282 151.708C183.118 152.091 184.943 152.491 186.752 153.027C187.336 153.197 187.915 153.378 188.495 153.558C190.068 154.056 191.631 154.582 193.205 155.091C193.915 155.321 194.625 155.551 195.341 155.77C195.532 155.83 195.724 155.885 195.915 155.94C197.335 156.372 198.772 156.75 200.193 157.16C200.308 157.598 200.439 158.031 200.592 158.458H179.916Z" fill="#2C547B"/>
<path d="M138.131 150.027C136.071 152.847 134.027 155.671 131.934 158.458H121.361L128.093 149.847C129.656 149.945 133.513 149.994 138.131 150.027Z" fill="#2C547B"/>
<path d="M154.306 150.093C152.394 152.978 150.295 155.748 148.11 158.458H137.154C138.488 156.69 139.81 154.916 141.116 153.131C141.87 152.108 142.613 151.078 143.361 150.055C147.11 150.071 150.973 150.082 154.306 150.093Z" fill="#2C547B"/>
<path d="M163.26 150.181C163.2 150.52 162.91 153.536 162.473 158.458H153.326C155.441 155.77 157.468 153.011 159.277 150.12C161.26 150.131 162.692 150.153 163.26 150.181Z" fill="#2C547B"/>
</svg>
