<svg width="69" height="40" viewBox="0 0 69 40" fill="none" xmlns="http://www.w3.org/2000/svg">
<path d="M60.7132 13.8058C61.3143 16.6141 61.6203 19.4936 61.6203 22.3676C61.6203 25.0993 61.3362 27.8693 60.3526 30.4148C59.3691 32.9603 57.6151 35.276 55.2109 36.5624C52.8067 37.8489 49.7141 37.9584 47.4083 36.5022C44.403 34.6026 43.4031 30.7432 42.8458 27.2288C42.1354 22.7563 41.742 18.1141 42.9332 13.7456C44.1298 9.37711 47.1842 5.29877 51.5008 3.94663C56.5824 2.35908 62.3579 5.02507 65.3959 9.39902C67.8165 12.8861 68.7181 17.2053 68.576 21.4808H59.38L59.4456 11.7913L64.3851 12.8916L60.7187 13.8058H60.7132Z" fill="white"/>
<path d="M43.9273 31.7559C43.135 34.5423 39.5451 38.013 36.6655 38.2922C31.1577 38.8177 25.9013 34.7832 23.7977 29.6592C21.6995 24.5353 22.295 18.634 24.131 13.4061C25.191 10.3843 26.6882 7.45007 28.9721 5.20562C31.2561 2.96116 34.4089 1.47215 37.5999 1.70207C40.7909 1.92652 44.7523 5.18919 45.5829 8.28216" fill="white"/>
<path d="M24.7276 31.5095C22.2961 35.128 16.5697 38.8013 12.3078 37.9254C8.04034 37.055 4.43406 33.7814 2.78937 29.7413C1.14469 25.7013 1.38512 21.0153 3.07352 16.9917C4.76191 12.9681 7.82178 9.60692 11.4499 7.19824C13.6465 5.74208 16.1381 4.59248 18.7663 4.49942C21.4 4.40636 24.3943 5.54501 25.7603 7.80041" fill="white"/>
<path d="M35.7199 40.0056C30.1629 40.0056 24.6278 36.0751 22.2564 30.2888C19.6664 23.966 20.9887 17.3147 22.5569 12.8477C23.8847 9.05953 25.6004 6.16911 27.8024 4.00677C30.6273 1.23131 34.2391 -0.219379 37.7142 0.0269636C41.6484 0.306152 46.1671 4.02867 47.1944 7.83877L43.976 8.70918C43.3258 6.28407 39.9873 3.53598 37.4847 3.35533C34.9931 3.18015 32.2556 4.31333 30.141 6.38809C28.3106 8.18365 26.8626 10.658 25.7042 13.9535C23.759 19.4935 23.6333 24.8419 25.3436 29.0188C27.2943 33.7759 32.0863 37.0441 36.5067 36.6225C38.5721 36.4255 41.6702 33.5843 42.3204 31.2961L45.5278 32.2103C44.5935 35.4948 40.5883 39.5896 36.8181 39.9509C36.452 39.9838 36.0805 40.0056 35.7144 40.0056H35.7199Z" fill="#2C547B"/>
<path d="M13.613 39.7264C13.0502 39.7264 12.5038 39.6771 11.9683 39.5676C7.26373 38.6041 3.15476 35.0842 1.24234 30.3763C-0.511627 26.0735 -0.402346 20.9605 1.53193 16.3457C3.2695 12.2016 6.37855 8.55577 10.5258 5.80768C13.4053 3.89716 16.0827 2.92274 18.7055 2.83515C21.6287 2.73114 25.3771 3.96287 27.1857 6.9354L24.3389 8.67074C23.3936 7.12152 21.1315 6.09235 18.8257 6.17447C16.8313 6.24563 14.7222 7.03394 12.3726 8.59411C8.83191 10.9426 6.07256 14.156 4.61365 17.6431C3.01815 21.4423 2.91979 25.6246 4.34045 29.1172C5.81574 32.7466 9.0778 35.5659 12.6458 36.294C16.0445 36.9892 21.1916 33.7922 23.3499 30.5788L26.1147 32.4455C23.5685 36.2338 18.2301 39.7264 13.6184 39.7264H13.613Z" fill="#2C547B"/>
<path d="M68.4113 21.4806C68.2365 19.4114 68.1709 17.3147 67.6409 15.3823C66.548 11.6981 63.9089 8.20551 60.5485 6.3114C49.992 0.69479 42.7685 11.1507 43.6099 21.185C43.8777 24.9349 44.2711 29.3472 46.0196 32.6482C48.921 37.9747 55.7565 36.097 58.3082 31.4219C60.8217 27.1629 60.6851 21.8036 60.8217 16.9315C60.8217 15.8969 60.7561 14.8568 60.707 13.8057C61.4555 15.7819 61.991 17.8402 62.3298 19.9314C63.3898 26.3747 62.1877 34.2959 56.0352 37.9418C52.8333 39.825 48.2653 39.7264 45.4458 37.0659C42.8012 34.6791 41.927 30.8855 41.4352 27.6666C40.4408 21.3164 40.02 14.1615 43.6919 8.51206C51.205 -3.21385 66.3623 2.85166 68.6954 15.1578C69.0069 17.2764 68.8594 19.373 68.7173 21.4806H68.4004H68.4113Z" fill="#2C547B"/>
</svg>
