<svg width="56" height="56" viewBox="0 0 56 56" fill="none" xmlns="http://www.w3.org/2000/svg">
<path fill-rule="evenodd" clip-rule="evenodd" d="M27.2927 49.1873C27.2927 49.1873 18.2084 53.6539 9.1582 52.8083C13.267 57.8956 25.5865 55.1337 27.2927 49.1873Z" fill="#2C547B"/>
<path fill-rule="evenodd" clip-rule="evenodd" d="M1.09916 47.6663C3.67908 51.5329 9.70573 52.058 13.8964 51.6215C21.3973 50.8305 29.7309 46.9708 34.6791 43.527C32.2152 47.4549 27.1168 51.0214 27.1168 51.0214C36.5629 48.0687 45.8042 38.0783 50.575 29.6292C54.3493 22.953 57.4138 12.7104 52.568 5.78874C49.2168 0.974288 40.6307 -1.78755 35.1228 1.30844C35.1228 1.30844 39.1291 1.12431 41.7022 2.33134C34.1263 1.45164 27.3216 6.39567 22.9057 11.6602C22.6941 11.6738 22.4757 11.6875 22.2573 11.7011C25.9087 7.03668 28.2088 4.87495 33.0001 1.93582C27.7584 2.9178 21.5474 6.46386 17.0701 12.2467C15.1591 12.5263 13.2139 12.9013 11.2687 13.3923C10.9684 13.4673 10.7568 13.7265 10.7363 14.0197C10.6749 14.4493 10.2654 17.5794 10.866 23.1167L10.4019 23.8191C8.34069 26.7991 6.13615 31.0339 5.30348 35.0846C4.55271 38.7398 4.85301 42.5655 7.84928 45.0477C3.03069 43.5474 2.51197 39.7218 3.91114 35.2483C0.771548 38.4943 -1.41934 43.902 1.09233 47.6663H1.09916ZM40.6239 9.28025C40.9583 9.73714 41.7159 10.9442 42.221 12.9763C40.1666 12.5604 35.307 11.7148 29.1371 11.5579C31.833 9.10976 37.0952 8.44147 40.617 9.28025H40.6239ZM12.661 32.957C13.1934 35.1119 13.8554 37.4441 14.6745 39.94C11.9376 38.9035 11.9785 35.3233 12.661 32.957Z" fill="#2C547B"/>
<path fill-rule="evenodd" clip-rule="evenodd" d="M14.5377 16.5498C14.6332 16.4544 14.6878 16.3248 14.6878 16.1816C14.6878 16.0384 14.6264 15.9088 14.5377 15.8134C14.4421 15.7179 14.3124 15.6633 14.1691 15.6633C14.0258 15.6633 13.8961 15.7247 13.8005 15.8134C13.705 15.9088 13.6504 16.0384 13.6504 16.1816C13.6504 16.3248 13.7118 16.4544 13.8005 16.5498C13.8961 16.6453 14.0258 16.6999 14.1691 16.6999C14.3124 16.6999 14.4421 16.6385 14.5377 16.5498Z" fill="#B4CCD9"/>
<path fill-rule="evenodd" clip-rule="evenodd" d="M21.1431 15.6702C21.2387 15.5747 21.2933 15.4452 21.2933 15.302C21.2933 15.1588 21.2319 15.0292 21.1431 14.9337C21.0476 14.8382 20.9179 14.7837 20.7746 14.7837C20.6312 14.7837 20.5016 14.8451 20.406 14.9337C20.3105 15.0292 20.2559 15.1588 20.2559 15.302C20.2559 15.4452 20.3173 15.5747 20.406 15.6702C20.5016 15.7657 20.6312 15.8202 20.7746 15.8202C20.9179 15.8202 21.0476 15.7589 21.1431 15.6702Z" fill="#B4CCD9"/>
<path fill-rule="evenodd" clip-rule="evenodd" d="M17.8404 16.1131C17.936 16.0176 17.9906 15.888 17.9906 15.7448C17.9906 15.6016 17.9291 15.4721 17.8404 15.3766C17.7448 15.2811 17.6152 15.2266 17.4718 15.2266C17.3285 15.2266 17.1988 15.2879 17.1033 15.3766C17.0077 15.4721 16.9531 15.6016 16.9531 15.7448C16.9531 15.888 17.0146 16.0176 17.1033 16.1131C17.192 16.2085 17.3285 16.2631 17.4718 16.2631C17.6152 16.2631 17.7448 16.2017 17.8404 16.1131Z" fill="#B4CCD9"/>
<path fill-rule="evenodd" clip-rule="evenodd" d="M42.341 21.4528C42.4092 21.071 42.4638 20.7027 42.5116 20.3413C28.3425 17.2249 14.9241 19.5366 12.0234 20.1094C12.276 24.5284 13.2588 31.3545 16.2824 40.3356C19.0261 40.4924 21.8244 39.9333 24.5272 38.8831C22.8345 38.4466 21.3262 37.567 20.1318 36.3736C18.3913 34.6346 17.3198 32.241 17.3198 29.5883C17.3198 26.9356 18.3913 24.542 20.1318 22.8031C21.8722 21.0641 24.2678 19.9935 26.9228 19.9935C29.5778 19.9935 31.9735 21.0641 33.7139 22.8031C35.4543 24.542 36.5259 26.9356 36.5259 29.5883C36.5259 29.8952 36.5122 30.2021 36.4781 30.5089C38.9284 27.8767 41.0646 24.8421 42.341 21.4665V21.4528Z" fill="#B4CCD9"/>
<path fill-rule="evenodd" clip-rule="evenodd" d="M26.9929 37.7649C28.0849 37.2057 29.1565 36.5715 30.1939 35.8759C31.7705 34.8189 33.2652 33.6255 34.6371 32.3435C34.7873 31.9275 34.9033 31.4979 34.9852 31.0614C35.0739 30.5909 35.1149 30.0931 35.1149 29.5748C35.1149 27.3176 34.2003 25.2718 32.7192 23.792C31.2382 22.3122 29.1906 21.3984 26.9315 21.3984C24.6723 21.3984 22.6248 22.3122 21.1437 23.792C19.6626 25.2718 18.748 27.3176 18.748 29.5748C18.748 31.832 19.6626 33.8778 21.1437 35.3576C22.6248 36.8374 24.6723 37.7512 26.9315 37.7512C26.9656 37.7512 26.9861 37.7512 26.9997 37.7512L26.9929 37.7649ZM20.1199 29.5816C20.1199 27.7063 20.8843 26.0015 22.1129 24.774C23.3414 23.5465 25.0477 22.7828 26.9246 22.7828C28.8016 22.7828 30.5079 23.5465 31.7364 24.774C32.9649 26.0015 33.7294 27.7063 33.7294 29.5816C33.7294 31.457 32.9649 33.1618 31.7364 34.3893C30.5079 35.6168 28.8016 36.3805 26.9246 36.3805C25.0477 36.3805 23.3414 35.6168 22.1129 34.3893C20.8843 33.1618 20.1199 31.457 20.1199 29.5816Z" fill="white"/>
<path fill-rule="evenodd" clip-rule="evenodd" d="M24.2283 34.2459C25.4227 34.9347 26.8833 35.1665 28.3166 34.7846C29.7567 34.4027 30.9033 33.4685 31.5927 32.2751C32.282 31.0817 32.5141 29.6224 32.1319 28.1903C31.7496 26.7514 30.8146 25.6058 29.6202 24.917C28.4258 24.2283 26.9652 23.9964 25.5319 24.3783C24.0918 24.7602 22.9451 25.6944 22.2558 26.8878C21.5664 28.0812 21.3344 29.5406 21.7166 30.9726C22.0988 32.4115 23.0339 33.5571 24.2283 34.2459Z" fill="#B4CCD9"/>
<path fill-rule="evenodd" clip-rule="evenodd" d="M42.6635 16.0452C40.0904 15.636 37.5446 15.2336 34.9511 15.0359C34.8965 15.2541 34.876 15.6428 34.8965 15.9019C37.5037 16.1747 40.1177 16.4816 42.7045 16.9385C42.6977 16.6248 42.684 16.3179 42.6635 16.0383V16.0452Z" fill="#B4CCD9"/>
<path fill-rule="evenodd" clip-rule="evenodd" d="M34.558 13.7332C37.3905 13.9105 40.4209 14.3946 42.291 14.6947C42.3797 14.7083 42.4753 14.722 42.5572 14.7356C42.5435 14.647 42.5367 14.5651 42.523 14.4765C39.9022 13.9036 26.1221 11.2305 12.0827 14.6333C12.0144 15.2948 11.912 16.6518 11.9666 18.6772C15.3383 18.0294 28.6269 15.8744 42.6595 18.9227C42.68 18.684 42.6937 18.459 42.7005 18.2271C39.438 17.6338 34.988 17.1838 34.3942 17.1224C34.053 17.0883 33.78 16.911 33.7049 16.5496C33.4865 15.4653 33.7663 14.456 33.8277 14.2446C33.9096 13.9241 34.2099 13.6991 34.5512 13.7195L34.558 13.7332ZM15.038 17.0474C14.8127 17.2724 14.5056 17.4088 14.1712 17.4088C13.8367 17.4088 13.5228 17.2724 13.3044 17.0474C13.0791 16.8223 12.9426 16.5155 12.9426 16.1813C12.9426 15.8472 13.0791 15.5335 13.3044 15.3153C13.5296 15.0902 13.8367 14.9538 14.1712 14.9538C14.5056 14.9538 14.8196 15.0902 15.038 15.3153C15.2632 15.5403 15.3997 15.8472 15.3997 16.1813C15.3997 16.5155 15.2632 16.8291 15.038 17.0474ZM18.3414 16.6109C18.1161 16.836 17.809 16.9724 17.4746 16.9724C17.1401 16.9724 16.8262 16.836 16.6078 16.6109C16.3825 16.3859 16.246 16.079 16.246 15.7449C16.246 15.4107 16.3825 15.097 16.6078 14.8788C16.833 14.6538 17.1401 14.5174 17.4746 14.5174C17.809 14.5174 18.123 14.6538 18.3414 14.8788C18.5666 15.1039 18.7031 15.4107 18.7031 15.7449C18.7031 16.079 18.5666 16.3927 18.3414 16.6109ZM21.6448 16.1745C21.4195 16.3995 21.1124 16.5359 20.778 16.5359C20.4435 16.5359 20.1296 16.3995 19.9112 16.1745C19.6859 15.9495 19.5494 15.6426 19.5494 15.3084C19.5494 14.9743 19.6859 14.6606 19.9112 14.4424C20.1364 14.2173 20.4435 14.081 20.778 14.081C21.1124 14.081 21.4263 14.2173 21.6448 14.4424C21.87 14.6674 22.0065 14.9743 22.0065 15.3084C22.0065 15.6426 21.87 15.9563 21.6448 16.1745Z" fill="#B4CCD9"/>
<path fill-rule="evenodd" clip-rule="evenodd" d="M19.124 11.9739C19.5472 11.9262 19.9635 11.8853 20.3798 11.8444C21.5947 10.1873 22.9598 8.61198 24.2088 7.27539C21.9019 8.98023 20.1614 10.7874 19.1172 11.9739H19.124Z" fill="#2C9CD7"/>
<path fill-rule="evenodd" clip-rule="evenodd" d="M4.49881 44.9523C3.14742 43.9362 2.25332 42.5518 2.05538 40.6765C1.64587 41.7335 1.43429 42.7087 1.39334 43.602C1.34556 44.6795 1.55715 45.6342 2.00078 46.4525C2.44442 47.2708 3.12012 47.9732 3.99374 48.5392C5.59766 49.5758 7.86363 50.1759 10.5664 50.2918C14.8322 50.4827 19.8691 49.2962 24.6468 47.3458C33.1851 43.8612 38.3108 39.5309 42.4537 34.1027C41.2457 37.3419 38.0719 41.7131 34.9119 45.4569C36.5841 44.1544 38.2494 42.6882 39.8533 41.1061C48.2415 32.8138 50.1457 26.8674 52.0704 16.4338C52.439 19.4957 51.5995 23.5668 51.2241 25.1693C52.8075 21.4801 53.6812 17.7294 53.6539 14.3198C53.6334 11.9603 53.1693 9.76445 52.1933 7.86868C51.2241 5.99336 49.7499 4.41127 47.6955 3.25198C46.583 2.6246 45.2998 2.11997 43.8392 1.75854C47.1631 3.4361 50.3573 6.21158 50.76 10.1259C47.9548 4.12486 41.3958 2.63824 35.7446 4.28852C31.5744 5.50236 27.6635 8.30511 24.8447 11.5784C25.6228 11.5579 26.394 11.5443 27.1721 11.5443C27.5543 11.1351 27.9638 10.7328 28.3802 10.3646C32.7278 6.5389 45.136 5.80923 47.0403 13.215C47.0403 13.215 45.5524 10.9306 42.5288 9.76445C43.3342 11.3943 44.3102 14.272 44.0986 18.5C45.1906 16.236 45.6547 14.3811 45.6547 14.3811C45.8185 17.9272 43.0885 23.9419 41.0273 27.0447C36.1063 34.4505 19.7668 50.51 10.935 42.1427C15.2826 44.8227 22.5446 42.095 26.1825 39.7286C22.7289 41.2562 14.8458 43.4384 12.0202 39.7082C10.348 37.4919 10.6756 32.9298 12.1362 30.7339C11.6994 28.7427 11.3786 26.9151 11.1397 25.2648C8.59392 29.1314 5.48163 35.6575 6.60097 40.4379C7.49507 44.2499 11.3104 45.7638 14.7093 46.8549C11.8359 47.2163 7.06508 46.9026 4.49881 44.9795V44.9523Z" fill="#2C9CD7"/>
<path fill-rule="evenodd" clip-rule="evenodd" d="M23.9289 51.8125C23.2669 52.0443 22.598 52.2557 21.9291 52.4535C19.2263 53.2582 16.3598 53.8378 13.5 54.022C15.2677 54.4243 17.2402 54.3152 18.8032 53.9947C20.4003 53.6673 22.3932 52.9445 23.9221 51.8057L23.9289 51.8125Z" fill="#2C9CD7"/>
<path fill-rule="evenodd" clip-rule="evenodd" d="M50.4113 13.6039C50.4113 13.6039 50.9368 11.9331 50.7594 10.1192C47.9542 4.11817 41.3952 2.63155 35.744 4.28183C33.2869 4.99786 30.9117 6.26626 28.8027 7.86199C33.0275 5.63206 38.242 4.34321 42.8899 5.57751C45.8794 6.36855 49.8175 8.40071 50.4045 13.6107L50.4113 13.6039Z" fill="#D6F0FF"/>
<path fill-rule="evenodd" clip-rule="evenodd" d="M53.5228 12.3217C53.3181 10.7192 52.8881 9.21891 52.1919 7.86868C51.2228 5.99336 49.7485 4.41127 47.6941 3.25198C46.5816 2.6246 45.2985 2.11997 43.8379 1.75854C45.4896 2.5905 47.1072 3.69524 48.3698 5.07956C51.5231 7.30949 52.9359 10.4737 53.5297 12.3285L53.5228 12.3217Z" fill="#D6F0FF"/>
<path fill-rule="evenodd" clip-rule="evenodd" d="M4.49881 44.9522C3.14742 43.9361 2.25332 42.5518 2.05538 40.6764C1.64587 41.7334 1.43429 42.7086 1.39334 43.6019C1.34556 44.6794 1.55715 45.6341 2.00078 46.4524C2.40347 47.2026 3.01091 47.8504 3.77533 48.3891C2.63553 46.7798 2.45125 45.1499 2.45125 45.1499C5.59766 48.7028 14.9482 49.5075 19.6712 46.6775C15.6648 46.6775 14.0746 45.2386 14.0746 45.2386C22.0327 47.2094 30.9601 40.8197 35.3692 36.3189C33.9905 38.7534 31.5948 41.2356 31.5948 41.2356C40.7133 35.3846 42.7677 28.8381 42.7677 28.8381C40.6246 32.0363 37.6147 34.048 37.6147 34.048C48.6851 21.5687 47.0403 13.2013 47.0403 13.2013C47.0403 13.2013 45.5524 10.9168 42.5288 9.75073C43.3342 11.3806 44.3102 14.2583 44.0986 18.4863C45.1906 16.2223 45.6547 14.3674 45.6547 14.3674C45.8185 17.9135 43.0885 23.9281 41.0273 27.0309C36.1063 34.4367 19.7668 50.4963 10.935 42.129C5.95257 38.9307 8.83963 30.8702 11.4059 26.9082C11.3104 26.3354 11.2216 25.783 11.1465 25.2443C8.60075 29.1108 5.48846 35.637 6.60779 40.4173C7.50189 44.2293 11.3172 45.7432 14.7161 46.8343C11.8427 47.1957 7.0719 46.882 4.50563 44.959L4.49881 44.9522Z" fill="#D6F0FF"/>
<path fill-rule="evenodd" clip-rule="evenodd" d="M34.558 13.7332C37.3905 13.9105 40.4209 14.3946 42.291 14.6947C42.3797 14.7083 42.4753 14.722 42.5572 14.7356C42.5435 14.647 42.5367 14.5651 42.523 14.4765C39.9022 13.9036 26.1221 11.2305 12.0827 14.6333C12.0144 15.2948 11.912 16.6518 11.9666 18.6772C12.1714 18.6363 12.4171 18.5954 12.6969 18.5408C12.6491 16.8496 12.7652 15.0698 12.7652 15.0698C21.7813 12.6966 34.5512 13.7263 34.5512 13.7263L34.558 13.7332Z" fill="white"/>
<path fill-rule="evenodd" clip-rule="evenodd" d="M31.5922 32.2751C32.2815 31.0817 32.5136 29.6224 32.1313 28.1903C32.0494 27.8903 31.9471 27.6107 31.8242 27.3379C30.7458 29.1859 28.9986 32.0364 26.8555 34.9687C27.3401 34.9687 27.8315 34.9142 28.3229 34.7846C29.763 34.4027 30.9096 33.4685 31.599 32.2751H31.5922Z" fill="white"/>
<path fill-rule="evenodd" clip-rule="evenodd" d="M24.8835 34.5664C27.4361 31.1704 29.5042 27.7812 30.6918 25.7286C30.371 25.4149 30.0092 25.1421 29.6202 24.9171C29.2789 24.7193 28.924 24.5625 28.5486 24.4465C27.3952 26.4446 25.3613 29.7724 22.8496 33.1139C23.2455 33.5708 23.7164 33.9527 24.2283 34.2527C24.4399 34.3755 24.6583 34.4778 24.8767 34.5733L24.8835 34.5664Z" fill="white"/>
<path fill-rule="evenodd" clip-rule="evenodd" d="M26.6064 24.2009C26.2515 24.2214 25.8897 24.2828 25.528 24.3782C24.0879 24.7601 22.9412 25.6944 22.2519 26.8877C21.5625 28.0811 21.3305 29.5405 21.7127 30.9725C21.7536 31.1157 21.7946 31.2521 21.8424 31.3885C23.8012 28.7358 25.4461 26.124 26.5995 24.2009H26.6064Z" fill="white"/>
<path fill-rule="evenodd" clip-rule="evenodd" d="M42.4365 20.88C42.4638 20.6959 42.4911 20.5186 42.5116 20.3413C28.3425 17.2249 14.9241 19.5366 12.0234 20.1094C12.276 24.5284 13.2588 31.3545 16.2824 40.3356C16.5144 40.3492 16.7533 40.3561 16.9854 40.3629C14.1529 31.7432 13.2178 25.1762 12.9721 20.8732C15.7978 20.314 28.6428 18.1045 42.4365 20.8937V20.88Z" fill="white"/>
<path fill-rule="evenodd" clip-rule="evenodd" d="M14.5377 15.8134C14.4421 15.7179 14.3124 15.6633 14.1691 15.6633C14.0258 15.6633 13.8961 15.7247 13.8005 15.8134C13.705 15.9088 13.6504 16.0384 13.6504 16.1816C13.6504 16.1884 13.6504 16.2021 13.6504 16.2089C13.9848 16.1543 14.3261 16.0929 14.6742 16.0384C14.6469 15.9497 14.6059 15.8747 14.5445 15.8134H14.5377Z" fill="white"/>
<path fill-rule="evenodd" clip-rule="evenodd" d="M17.4718 15.2202C17.3285 15.2202 17.1988 15.2816 17.1033 15.3702C17.0214 15.4521 16.9668 15.568 16.9531 15.6907C17.2876 15.643 17.6288 15.6021 17.9633 15.5544C17.936 15.4862 17.895 15.418 17.8404 15.3702C17.7448 15.2748 17.6152 15.2202 17.4718 15.2202Z" fill="white"/>
<path fill-rule="evenodd" clip-rule="evenodd" d="M20.7746 14.7769C20.6312 14.7769 20.5016 14.8382 20.406 14.9269C20.3105 15.0224 20.2559 15.1451 20.2559 15.2883C20.6039 15.2542 20.952 15.2201 21.2933 15.1928C21.2728 15.0905 21.225 14.9951 21.15 14.9269C21.0544 14.8314 20.9247 14.7769 20.7814 14.7769H20.7746Z" fill="white"/>
<path fill-rule="evenodd" clip-rule="evenodd" d="M34.9521 15.0359C34.9316 15.1177 34.9179 15.22 34.9043 15.3291C35.8462 15.4314 39.9618 15.8815 42.685 16.3452C42.685 16.2429 42.6714 16.1406 42.6645 16.0452C40.0914 15.636 37.5456 15.2336 34.9521 15.0359Z" fill="white"/>
</svg>
