<svg width="32" height="32" viewBox="0 0 32 32" fill="none" xmlns="http://www.w3.org/2000/svg">
<path d="M23.3333 14L26 16.6667M18.6667 18.6667L21.3333 21.3333M14 23.3333L16.6667 26" stroke="#45C8F5" stroke-width="3" stroke-linecap="round"/>
<path d="M14.0479 6.23737C15.8666 4.41737 16.7772 3.50804 17.7919 3.0867C18.4619 2.80905 19.18 2.66614 19.9052 2.66614C20.6305 2.66614 21.3486 2.80905 22.0186 3.0867C23.0332 3.50804 23.9439 4.41737 25.7626 6.23737C27.5826 8.05604 28.4919 8.9667 28.9132 9.98137C29.1909 10.6513 29.3338 11.3695 29.3338 12.0947C29.3338 12.8199 29.1909 13.5381 28.9132 14.208C28.4919 15.2227 27.5826 16.1334 25.7626 17.952L17.9533 25.7627C16.1333 27.5827 15.2226 28.492 14.2079 28.9134C13.5379 29.191 12.8198 29.3339 12.0946 29.3339C11.3694 29.3339 10.6512 29.191 9.98125 28.9134C8.96658 28.492 8.05592 27.5827 6.23725 25.7627C4.41725 23.944 3.50792 23.0334 3.08658 22.0187C2.80893 21.3487 2.66602 20.6306 2.66602 19.9054C2.66602 19.1801 2.80893 18.462 3.08658 17.792C3.50792 16.7774 4.41725 15.8667 6.23725 14.048L14.0479 6.23737Z" stroke="#45C8F5" stroke-width="3" stroke-linecap="round" stroke-linejoin="round"/>
</svg>
