<svg width="104" height="53" viewBox="0 0 104 53" fill="none" xmlns="http://www.w3.org/2000/svg">
<g clip-path="url(#clip0_4037_13466)">
<path d="M14.4722 26.6964H10.4416L5.64589 26.6766C5.03241 26.6766 4.48489 26.5315 3.99674 26.2413C3.50858 25.951 3.13258 25.5486 2.86212 25.0407C2.59165 24.5327 2.45312 23.9654 2.45312 23.3388C2.45312 23.1013 2.47291 22.8572 2.51249 22.6131L3.88459 14.3673C3.92417 14.1299 4.04291 13.9254 4.22762 13.7539C4.41232 13.5823 4.61682 13.4966 4.8477 13.4966H7.44017C7.63807 13.4966 7.80299 13.5692 7.92832 13.7077C8.05366 13.8462 8.11963 14.0243 8.11963 14.2354C8.11963 14.2816 8.11963 14.3278 8.10643 14.3673L6.81349 22.0656L6.8003 22.1646C6.8003 22.2833 6.83988 22.3822 6.91904 22.468C6.9982 22.5472 7.09715 22.5933 7.21589 22.5933H11.1013L11.2464 21.7094C11.7478 18.985 12.2755 16.1352 12.8296 13.1668C13.2716 10.7986 13.5289 9.38689 13.608 8.93173C13.6674 8.52933 13.74 8.10715 13.8125 7.67177C13.8521 7.4277 13.9642 7.2232 14.1489 7.05828C14.3336 6.89337 14.5381 6.81421 14.7624 6.81421H17.0976C17.3351 6.81421 17.5264 6.89337 17.6715 7.05828C17.8167 7.2232 17.876 7.4277 17.8299 7.67177L14.459 26.703L14.4722 26.6964Z" fill="#2C547B"/>
<path d="M27.4479 20.5089L26.8476 24.4603H20.7457C20.5016 24.4603 20.3103 24.3679 20.1652 24.1832C20.0201 23.9985 19.9673 23.7808 20.0069 23.517L20.6467 19.4733L22.883 7.4674C22.9028 7.32887 22.9622 7.21013 23.0677 7.11778C23.1732 7.02542 23.292 6.97925 23.4305 6.97925H26.4913C26.6695 6.97925 26.8212 7.05181 26.9531 7.19694C27.0784 7.34206 27.1246 7.50698 27.0916 7.68509L24.9082 19.4469L24.796 20.2187C24.796 20.2187 24.796 20.2319 24.7828 20.2319C24.7762 20.3242 24.7828 20.3836 24.8158 20.4232C24.862 20.4825 24.9279 20.5155 25.0005 20.5155H27.4413L27.4479 20.5089Z" fill="#2C547B"/>
<path d="M34.1894 20.5088L33.4638 24.4602H25.9238L26.6495 20.5088H34.1894Z" fill="#2C547B"/>
<path d="M40.8925 20.5088L40.1669 24.4602H32.627L33.3526 20.5088H40.8925Z" fill="#2C547B"/>
<path d="M41.2414 24.4603H39.3613L40.1067 20.509H42.033C42.2507 20.509 42.4354 20.5815 42.5739 20.7332C42.7124 20.885 42.7784 21.0631 42.7784 21.2808C42.7784 21.3335 42.7784 21.3863 42.7652 21.4457L41.248 23.5698V24.4603H41.2414ZM71.1043 20.3836V20.4034L71.0647 20.6409L70.9592 21.2544V21.2082L70.3523 24.4603H41.2414V23.4972L41.967 19.3216L43.7151 8.08092C43.7349 7.9292 43.8009 7.81046 43.8998 7.72471C44.0054 7.63235 44.1175 7.59277 44.2494 7.59277H47.3235C47.5016 7.59277 47.6533 7.66534 47.7852 7.80387C47.9172 7.94239 47.9567 8.11391 47.9237 8.30521L47.0332 14.0377L46.4461 17.8373L46.2284 19.3018L46.1163 20.0934L46.1031 20.1066C46.0965 20.1923 46.1031 20.2583 46.1361 20.2979C46.1822 20.3572 46.2482 20.3902 46.3208 20.3902H71.1043V20.3836ZM71.4275 17.9627L71.1043 20.3836V20.4034L71.0647 20.6409L70.9592 21.2544V21.2082L70.3523 24.4603H46.8617L47.6401 20.4034H66.7175V20.3836L66.9418 18.4838C66.9682 18.3453 66.9418 18.2199 66.8627 18.1144C66.7835 18.0088 66.678 17.9561 66.5394 17.9561H46.8617C46.7034 17.9561 46.5648 17.9165 46.4461 17.8307C46.235 17.6592 46.1493 17.4151 46.1888 17.0919L46.5846 14.7369C46.6374 14.4335 46.7891 14.196 47.0398 14.0311C47.1981 13.9189 47.3696 13.8662 47.5477 13.8662H68.2875C68.9736 13.8662 69.5871 14.0509 70.1148 14.4137C70.6425 14.7765 71.0251 15.2712 71.2626 15.8979C71.5001 16.5246 71.5595 17.2107 71.4341 17.9561L71.4275 17.9627ZM72.4632 20.509H70.7151C70.4776 20.509 70.2665 20.5947 70.0752 20.7662C69.8839 20.9377 69.7652 21.1488 69.7256 21.3995L69.376 23.5236C69.3364 23.7875 69.3826 24.0052 69.5211 24.1833C69.6662 24.368 69.8575 24.4603 70.1016 24.4603H72.0344L72.7666 20.509H72.4632Z" fill="#2C547B"/>
<path d="M79.496 20.5088L78.7704 24.4602H71.2305L71.9561 20.5088H79.496Z" fill="#2C547B"/>
<path d="M86.1972 20.5088L85.4716 24.4602H77.9316L78.6573 20.5088H86.1972Z" fill="#2C547B"/>
<path d="M93.5397 14.3279C93.731 14.5786 93.8035 14.8688 93.7442 15.1921L92.814 20.6871C92.7019 21.3665 92.438 21.9932 92.0224 22.5737C91.6069 23.1542 91.0923 23.616 90.492 23.9524C89.8917 24.2888 89.2651 24.4603 88.6252 24.4603H84.377L85.1553 20.5089H88.3217C88.4141 20.5089 88.4932 20.476 88.5724 20.41C88.6516 20.344 88.6977 20.2583 88.7175 20.1527L89.6147 14.8161C89.6543 14.572 89.7664 14.3675 89.9511 14.2026C90.1358 14.0377 90.3403 13.9585 90.5646 13.9585H92.7942C93.0977 13.9585 93.3484 14.0838 93.5397 14.3345V14.3279ZM87.1607 29.2165C87.2465 29.322 87.352 29.3814 87.484 29.3814H89.7598C89.8588 29.3814 89.9445 29.3484 90.0237 29.2825C90.1028 29.2165 90.149 29.1307 90.1622 29.0252L90.5778 26.7164H87.4972L87.0948 28.8603C87.0618 28.9922 87.0816 29.1175 87.1673 29.2231L87.1607 29.2165Z" fill="#2C547B"/>
<path d="M99.537 24.4603H96.0606C95.8165 24.4603 95.6252 24.3679 95.4735 24.1832C95.3218 23.9985 95.2756 23.7742 95.3218 23.5236L98.2969 7.47398C98.3167 7.33545 98.376 7.21671 98.4816 7.12435C98.5871 7.032 98.7059 6.98583 98.8444 6.98583H101.905C102.083 6.98583 102.235 7.05839 102.367 7.20351C102.492 7.34864 102.539 7.51355 102.506 7.69166L99.5305 24.4669L99.537 24.4603ZM101.602 3.49621C101.542 3.49621 101.483 3.46982 101.437 3.42365C101.391 3.37747 101.364 3.3181 101.364 3.25214L101.688 1.67554H101.12C101.087 1.67554 101.054 1.68874 101.015 1.72172C100.982 1.74811 100.962 1.78769 100.955 1.83386L100.922 1.9592L100.467 4.19545H103.396C103.587 4.19545 103.7 4.301 103.719 4.50549V4.55827L103.535 5.55436V5.58734C103.515 5.68629 103.462 5.76545 103.376 5.83142C103.291 5.89738 103.198 5.93037 103.093 5.93037H98.3497L99.1544 1.84046C99.227 1.28634 99.4315 0.844368 99.7613 0.50794C100.091 0.171512 100.5 0 100.982 0H103.409C103.508 0 103.574 0.0263865 103.62 0.0791595C103.667 0.131932 103.7 0.224285 103.733 0.356218V0.402394L103.574 1.29294V1.31273L103.178 3.29831C103.139 3.43684 103.06 3.5094 102.954 3.5094H101.628L101.608 3.48961L101.602 3.49621Z" fill="#2C547B"/>
<path d="M12.0249 49.6395H7.99437L3.19863 49.6198C2.58514 49.6198 2.03762 49.4746 1.54947 49.1844C1.06132 48.8941 0.685312 48.4917 0.41485 47.9838C0.144389 47.4759 0.00585938 46.9085 0.00585938 46.2819C0.00585938 46.0444 0.0256493 45.8003 0.065229 45.5562L1.43733 37.3105C1.47691 37.073 1.59565 36.8685 1.78035 36.697C1.96506 36.5255 2.16955 36.4397 2.40043 36.4397H4.99291C5.19081 36.4397 5.35572 36.5123 5.48106 36.6508C5.60639 36.7893 5.67236 36.9674 5.67236 37.1785C5.67236 37.2247 5.67236 37.2709 5.65917 37.3105L4.36623 45.0087L4.35303 45.1077C4.35303 45.2264 4.39261 45.3254 4.47177 45.4111C4.55093 45.4903 4.64988 45.5364 4.76862 45.5364H8.65403L8.79916 44.6525C9.3005 41.9281 9.82823 39.0784 10.3823 36.1099C10.8243 33.7417 11.0816 32.33 11.1608 31.8748C11.2201 31.4724 11.2927 31.0503 11.3652 30.6149C11.4048 30.3708 11.517 30.1663 11.7017 30.0014C11.8864 29.8365 12.0909 29.7573 12.3152 29.7573H14.6504C14.8878 29.7573 15.0791 29.8365 15.2243 30.0014C15.3694 30.1663 15.4288 30.3708 15.3826 30.6149L12.0117 49.6461L12.0249 49.6395ZM16.6689 43.4519L15.9367 47.4033H12.3086C12.2888 47.3571 12.2756 47.3043 12.2756 47.2384C12.2756 46.7304 12.4933 45.4705 12.9286 43.4519H16.6689Z" fill="#FC46AA"/>
<path d="M23.2539 43.4453L22.5282 47.3967H14.9883L15.7139 43.4453H23.2539Z" fill="#FC46AA"/>
<path d="M30.7994 37.2644C30.9907 37.5151 31.0633 37.8054 31.0039 38.1286L30.0738 43.6236C29.9617 44.303 29.6978 44.9297 29.2822 45.5102C28.8666 46.0907 28.3521 46.5525 27.7518 46.8889C27.1515 47.2253 26.5248 47.3968 25.8849 47.3968H21.6367L22.4151 43.4455H25.5815C25.6739 43.4455 25.753 43.4125 25.8322 43.3465C25.9113 43.2806 25.9575 43.1948 25.9773 43.0892L26.8744 37.7526C26.914 37.5085 27.0262 37.304 27.2109 37.1391C27.3956 36.9742 27.6001 36.895 27.8244 36.895H30.054C30.3575 36.895 30.6081 37.0204 30.7994 37.271V37.2644ZM22.0919 51.777C22.0655 51.9089 22.0919 52.0343 22.1776 52.1398C22.2568 52.2454 22.3623 52.3047 22.4877 52.3047H24.7635C24.8691 52.3047 24.9548 52.2717 25.034 52.2058C25.1131 52.1398 25.1593 52.0541 25.1791 51.9485L25.5947 49.6397H22.5009L22.1051 51.7836H22.0919V51.777ZM26.2082 51.777C26.1818 51.9089 26.2082 52.0343 26.2873 52.1398C26.3731 52.2454 26.4786 52.3047 26.6106 52.3047H28.8864C28.9854 52.3047 29.0711 52.2717 29.1503 52.2058C29.2294 52.1398 29.2756 52.0541 29.2888 51.9485L29.7044 49.6397H26.6238L26.2214 51.7836H26.2082V51.777ZM32.475 43.4455H32.785L32.0528 47.3968H29.3944C29.1503 47.3968 28.959 47.3045 28.8138 47.1198C28.6753 46.9417 28.6291 46.724 28.6687 46.4601L29.0183 44.336C29.0579 44.0853 29.1767 43.8677 29.368 43.7027C29.5593 43.5378 29.777 43.4455 30.0078 43.4455H32.4684H32.475Z" fill="#FC46AA"/>
<path d="M39.4941 43.4453L38.7685 47.3967H31.2285L31.9541 43.4453H39.4941Z" fill="#FC46AA"/>
<path d="M45.491 36.8223C45.7944 36.8223 46.0385 36.9476 46.2364 37.1983C46.4277 37.4489 46.5003 37.7326 46.4409 38.0558L45.7087 43.63C45.5899 44.3094 45.3261 44.9361 44.9105 45.5166C44.4949 46.0971 43.9803 46.5589 43.3801 46.8953C42.7798 47.2317 42.1531 47.4033 41.5132 47.4033H37.8125L38.6503 43.4519H41.2032C41.3021 43.4519 41.3879 43.4189 41.4604 43.3463C41.533 43.2738 41.5792 43.1946 41.5924 43.0957L42.3048 37.6798C42.3444 37.4292 42.4565 37.2181 42.6346 37.0597C42.8127 36.9014 43.0172 36.8223 43.2547 36.8223H45.491ZM52.2921 36.8223C52.5955 36.8223 52.8462 36.9476 53.0375 37.1983C53.2288 37.4489 53.3014 37.7326 53.242 38.0558L52.5098 43.63C52.3976 44.3094 52.1338 44.9361 51.7116 45.5166C51.2894 46.0971 50.7815 46.5589 50.1812 46.8953C49.5809 47.2317 48.9608 47.4033 48.3077 47.4033H44.607C44.3629 47.4033 44.1716 47.3109 44.0331 47.1262C43.8946 46.9415 43.8418 46.7238 43.8814 46.4599L44.4157 43.4453H48.0043C48.0966 43.4453 48.1758 43.4123 48.255 43.3397C48.3275 43.2672 48.3737 43.188 48.3869 43.0891L49.0993 37.6732C49.1389 37.4226 49.251 37.2115 49.4292 37.0532C49.6073 36.8948 49.8184 36.8157 50.0492 36.8157H52.2855V36.8289L52.2921 36.8223ZM59.212 36.8223C59.5154 36.8223 59.7661 36.9476 59.9574 37.1983C60.1487 37.4489 60.2212 37.7326 60.1619 38.0558L59.4296 43.63C59.3109 44.3094 59.047 44.9361 58.6314 45.5166C58.2159 46.0971 57.7013 46.5589 57.101 46.8953C56.5007 47.2317 55.8741 47.4033 55.2342 47.4033H51.5335C51.2894 47.4033 51.0981 47.3109 50.953 47.1262C50.8078 46.9415 50.7551 46.7238 50.7947 46.4599L51.3356 43.4453H54.9307C55.0231 43.4453 55.1023 43.4123 55.1814 43.3397C55.2606 43.2672 55.3002 43.188 55.3133 43.0891L56.0258 37.6732C56.0654 37.4226 56.1775 37.2115 56.3556 37.0532C56.5337 36.8948 56.7382 36.8157 56.9757 36.8157H59.2054V36.8289L59.212 36.8223ZM61.9957 43.4453L61.2635 47.3967H58.6051C58.361 47.3967 58.1697 47.3043 58.0246 47.1196C57.886 46.9349 57.8399 46.704 57.8794 46.4401L58.2291 44.3622C58.2686 44.1115 58.3874 43.8938 58.5787 43.7157C58.77 43.5376 58.9877 43.4453 59.2185 43.4453H61.9891H61.9957Z" fill="#FC46AA"/>
<path d="M80.7827 47.4035H60.4453L61.0852 43.4521H81.5347L80.7827 47.4035ZM78.5992 36.5256H78.6124C78.8235 36.5256 79.0016 36.5982 79.1467 36.7499C79.2853 36.9016 79.3578 37.0863 79.3578 37.3106C79.3578 37.337 79.3578 37.3634 79.3446 37.3766V37.4755L79.0346 39.283L79.0148 39.4083L78.9818 39.5403L78.9686 39.5733L78.8037 40.4308L78.7641 40.6287C78.7378 40.7672 78.6718 40.886 78.5662 40.9783C78.4607 41.0707 78.3486 41.1169 78.2166 41.1169H75.1228C74.9579 41.1169 74.8194 41.0443 74.7138 40.9058C74.6083 40.7672 74.5687 40.6023 74.6017 40.4242H68.1304C68.038 40.4242 67.9589 40.4572 67.8797 40.5298C67.8006 40.6023 67.7544 40.6881 67.7412 40.7936L67.6884 41.0641L67.6158 41.4335L67.1409 43.7093H63.77C63.5523 43.7093 63.3742 43.617 63.2357 43.4323C63.1038 43.2476 63.0576 43.0431 63.1038 42.8122L63.4072 41.4269L63.5391 40.787L63.6249 40.2725C63.7436 39.593 64.0075 38.9664 64.4231 38.3859C64.8387 37.8054 65.3466 37.3502 65.9469 37.0138C66.5472 36.6773 67.1673 36.5124 67.8005 36.5124H78.5926L78.5992 36.5256ZM73.9552 30.7404L73.5528 32.8843H70.4722L70.8878 30.5689C70.901 30.4633 70.9471 30.3776 71.0263 30.3116C71.1055 30.2456 71.1912 30.2126 71.2902 30.2126H73.566C73.6979 30.2126 73.8035 30.2654 73.8892 30.3776C73.9684 30.4831 73.9948 30.6084 73.9618 30.7404H73.9552Z" fill="#FC46AA"/>
<path d="M88.2421 43.4453L87.5165 47.3967H79.9766L80.7022 43.4453H88.2421Z" fill="#FC46AA"/>
<path d="M89.1668 43.4454L91.5878 30.4105C91.6142 30.272 91.6802 30.1532 91.7857 30.0609C91.8912 29.9685 92.0034 29.9224 92.1353 29.9224H95.1961C95.3611 29.9224 95.5128 29.9817 95.6447 30.1071C95.7767 30.2324 95.836 30.3709 95.803 30.5227L92.8148 47.4034H88.6589L87.8739 47.3902L86.7129 47.377L87.4649 43.4454H89.1602H89.1668Z" fill="#FC46AA"/>
<path d="M99.537 47.4034H96.0606C95.8165 47.4034 95.6252 47.3111 95.4735 47.1264C95.3218 46.9417 95.2756 46.7174 95.3218 46.4667L98.2969 30.4171C98.3167 30.2786 98.376 30.1598 98.4816 30.0675C98.5871 29.9751 98.7059 29.929 98.8444 29.929H101.905C102.083 29.929 102.235 30.0015 102.367 30.1466C102.492 30.2918 102.539 30.4567 102.506 30.6348L99.5305 47.41L99.537 47.4034Z" fill="#FC46AA"/>
</g>
<defs>
<clipPath id="clip0_4037_13466">
<rect width="103.725" height="52.3046" fill="white"/>
</clipPath>
</defs>
</svg>
