<svg width="551" height="540" viewBox="0 0 551 540" fill="none" xmlns="http://www.w3.org/2000/svg">
<path opacity="0.58" d="M269.249 453.44C163.459 453.44 77.699 367.538 77.699 261.574C77.699 155.609 163.459 69.7079 269.249 69.7079C375.039 69.7079 460.799 155.609 460.799 261.574C460.799 367.538 375.039 453.44 269.249 453.44Z" fill="url(#paint0_linear_4037_12769)"/>
<path d="M269.587 502.844C301.054 502.844 331.582 496.67 360.323 484.495C388.079 472.734 413.009 455.901 434.416 434.458C455.824 413.016 472.632 388.045 484.371 360.242C496.525 331.457 502.689 300.878 502.689 269.357C502.689 237.835 496.525 207.259 484.371 178.471C472.629 150.669 455.824 125.698 434.416 104.255C413.009 82.8125 388.079 65.9762 360.323 54.2179C331.585 42.0437 301.057 35.8691 269.587 35.8691C238.117 35.8691 207.592 42.0437 178.851 54.2179C151.095 65.9789 126.165 82.8125 104.758 104.255C83.3504 125.698 66.5419 150.669 54.803 178.471C42.6488 207.256 36.4845 237.835 36.4845 269.357C36.4845 300.878 42.6488 331.454 54.803 360.242C66.5446 388.045 83.3504 413.016 104.758 434.458C126.165 455.901 151.095 472.737 178.851 484.495C207.589 496.67 238.117 502.844 269.587 502.844ZM269.587 38.5207C396.661 38.5207 500.045 142.073 500.045 269.359C500.045 396.646 396.663 500.198 269.587 500.198C142.511 500.198 39.129 396.646 39.129 269.359C39.129 142.073 142.513 38.5207 269.587 38.5207Z" fill="#FC46AA"/>
<path d="M269.25 539.387C305.599 539.387 340.858 532.257 374.054 518.192C406.115 504.609 434.909 485.162 459.638 460.395C484.364 435.628 503.779 406.786 517.34 374.67C531.381 341.419 538.5 306.101 538.5 269.692C538.5 233.283 531.381 197.965 517.34 164.715C503.779 132.601 484.364 103.759 459.638 78.9897C434.912 54.2202 406.118 34.7753 374.054 21.1924C340.858 7.13033 305.599 0 269.25 0C232.901 0 197.641 7.13033 164.446 21.1951C132.384 34.7779 103.59 54.2255 78.8616 78.9923C54.1356 103.759 34.7201 132.601 21.1597 164.718C7.11816 197.968 -0.000463465 233.289 -0.000463465 269.695C-0.000463465 306.101 7.11816 341.422 21.1597 374.672C34.7201 406.786 54.1356 435.628 78.8616 460.398C103.588 485.164 132.382 504.612 164.446 518.195C197.641 532.26 232.901 539.39 269.25 539.39V539.387ZM269.25 2.64773C416.258 2.64773 535.857 122.444 535.857 269.695C535.857 416.946 416.258 536.74 269.25 536.74C122.242 536.74 2.64554 416.943 2.64554 269.695C2.64554 122.447 122.242 2.64773 269.25 2.64773Z" fill="#45C8F5"/>
<path d="M174.753 469.034C170.451 469.037 166.1 468.69 161.814 468.252C141.564 466.03 121.657 460.314 103.437 451.097C90.1779 444.413 77.9523 435.861 66.7731 425.996C65.7321 425.051 64.1758 426.508 65.201 427.64C66.9792 429.438 68.7019 431.306 70.5726 433.011C71.183 433.579 73.5504 435.733 74.0789 436.218C75.1199 437.083 76.6867 438.388 77.733 439.258C94.0012 452.442 113.437 461.405 133.619 466.494C144.626 469.184 155.938 470.846 167.267 471.022C169.807 471.059 172.301 471.027 174.851 470.841C175.945 470.734 175.984 469.056 174.753 469.034Z" fill="white"/>
<path d="M134.28 473.593C122.092 471.306 110.035 467.664 99.0891 461.855C94.4944 459.384 90.1644 456.472 86.2566 453.029C85.8102 452.64 85.126 452.682 84.7304 453.124C84.3722 453.523 84.3749 454.112 84.7117 454.509C86.1978 456.254 87.8336 457.881 89.5736 459.387C94.8098 463.86 100.944 467.267 107.287 469.94C114.691 473.041 122.431 475.265 130.348 476.621C131.506 476.815 132.612 476.978 133.796 477.115C134.788 477.228 135.683 476.529 135.798 475.556C135.911 474.605 135.232 473.74 134.28 473.596V473.593Z" fill="white"/>
<path d="M13.5205 318.787C13.5205 319.245 13.7565 319.657 14.0056 320.007C14.6533 320.924 15.385 321.757 16.1166 322.59C28.1296 335.741 43.8611 347.563 60.2063 354.522C60.9327 354.824 61.7613 354.474 62.0603 353.739C62.3514 353.029 62.0315 352.217 61.3523 351.894C59.2177 350.862 57.0988 349.796 55.0271 348.64C42.5473 341.739 31.1243 332.927 20.7896 323.064C19.1926 321.505 17.5668 319.956 16.1533 318.232C16.1481 318.227 16.1271 318.193 16.1533 318.243C16.2215 318.399 16.2765 318.601 16.2661 318.784C16.211 316.957 13.586 316.941 13.5231 318.784L13.5205 318.787Z" fill="white"/>
<path d="M38.6843 321.987C46.8642 331.732 66.8338 347.191 79.5081 348.535C80.4897 348.63 80.7854 347.214 79.8222 346.921C76.1497 345.648 72.7207 343.632 69.3519 341.544C60.0281 335.696 50.1074 327.885 40.938 321.77L39.7078 320.952L39.6502 320.915C38.9723 320.468 38.1713 321.333 38.6843 321.987Z" fill="white"/>
<path d="M93.0976 144.827C115.577 142.347 143.733 133.095 160.458 117.636C161.424 116.714 160.219 115.183 159.076 115.926C155.672 118.248 152.207 120.439 148.61 122.441C137.817 128.404 126.292 133.001 114.524 136.715C107.376 138.98 100.07 140.971 92.7686 142.647C91.4395 142.941 91.6835 144.919 93.0976 144.827Z" fill="white"/>
<path d="M149.794 131.3C149.442 131.303 149.13 131.425 148.844 131.539C148.665 131.608 148.135 131.834 147.948 131.914C124.92 141.934 101.078 152.359 75.7555 153.745C73.9542 153.849 73.7861 156.516 75.6635 156.768C97.9957 158.652 122.326 149.319 141.927 139.134C144.577 137.724 147.352 136.146 149.941 134.613L150.175 134.475L150.227 134.443L150.251 134.429L150.256 134.424L150.269 134.411C150.314 134.392 150.164 134.451 150.08 134.464C149.983 134.483 149.883 134.491 149.789 134.485C151.863 134.419 151.887 131.372 149.789 131.295L149.794 131.3Z" fill="white"/>
<path d="M36.2403 60.9098H119.596C117.437 56.711 113.084 53.8428 108.062 53.8428C106.694 53.8428 105.378 54.0549 104.141 54.4499C101.314 47.6533 94.647 42.8819 86.8747 42.8819C84.269 42.8819 81.787 43.4173 79.534 44.3875C77.281 35.2185 69.056 28.4246 59.2571 28.4246C50.382 28.4246 42.8018 33.9965 39.775 41.856C38.6775 41.4293 37.4852 41.1933 36.2403 41.1933C30.8315 41.1933 26.4492 45.6069 26.4492 51.0516C26.4492 51.1072 26.4492 51.1602 26.4492 51.2159C25.8675 51.1072 25.2701 51.0516 24.6568 51.0516C19.2507 51.0516 14.8684 55.4678 14.8684 60.9098H34.4479C34.4479 60.9098 36.2271 60.8992 36.2376 60.9098H36.2403Z" fill="white"/>
<path d="M417.961 337.711H522.287C519.587 332.551 514.136 329.024 507.853 329.024C506.141 329.024 504.494 329.286 502.945 329.77C499.408 321.418 491.061 315.553 481.334 315.553C478.076 315.553 474.967 316.211 472.148 317.402C469.329 306.133 459.033 297.781 446.77 297.781C435.664 297.781 426.176 304.628 422.385 314.289C421.011 313.763 419.52 313.475 417.958 313.475C411.192 313.475 405.704 318.897 405.704 325.591C405.704 325.66 405.704 325.725 405.704 325.796C404.976 325.662 404.226 325.591 403.461 325.591C396.697 325.591 391.209 331.016 391.209 337.708H415.716C415.716 337.708 417.943 337.695 417.958 337.708L417.961 337.711Z" fill="white"/>
<path d="M306.281 30.4522H346.615C345.571 28.4398 343.463 27.0665 341.036 27.0665C340.374 27.0665 339.738 27.1691 339.139 27.3585C337.773 24.1017 334.544 21.8157 330.785 21.8157C329.524 21.8157 328.324 22.0735 327.234 22.5365C326.145 18.1432 322.164 14.889 317.424 14.889C313.129 14.889 309.463 17.5592 307.996 21.3237C307.466 21.1185 306.888 21.0054 306.284 21.0054C303.667 21.0054 301.546 23.1205 301.546 25.7301C301.546 25.7564 301.546 25.7828 301.546 25.8091C301.264 25.7564 300.977 25.7301 300.678 25.7301C298.064 25.7301 295.941 27.8452 295.941 30.4549H305.416C305.416 30.4549 306.276 30.4496 306.281 30.4549V30.4522Z" fill="white"/>
<path d="M35.2648 121.82H85.8145C84.5066 119.283 81.8647 117.551 78.8201 117.551C77.9912 117.551 77.1913 117.68 76.4413 117.918C74.7283 113.812 70.6838 110.929 65.9709 110.929C64.3921 110.929 62.8869 111.254 61.5185 111.838C60.1528 106.299 55.1636 102.193 49.2219 102.193C43.8406 102.193 39.2435 105.559 37.4068 110.306C36.741 110.048 36.02 109.905 35.2622 109.905C31.9834 109.905 29.3257 112.571 29.3257 115.861C29.3257 115.895 29.3257 115.927 29.3257 115.961C28.9731 115.895 28.61 115.861 28.2389 115.861C24.9602 115.861 22.3024 118.528 22.3024 121.817H34.1754C34.1754 121.817 35.2543 121.809 35.2622 121.817L35.2648 121.82Z" fill="white"/>
<path d="M532.325 58.8769H460.801C462.653 55.2909 466.388 52.8404 470.698 52.8404C471.872 52.8404 473 53.0226 474.061 53.3579C476.487 47.5538 482.209 43.4793 488.876 43.4793C491.112 43.4793 493.24 43.9362 495.174 44.7653C497.107 36.9358 504.164 31.1317 512.572 31.1317C520.187 31.1317 526.691 35.8901 529.291 42.6026C530.231 42.2382 531.253 42.0375 532.325 42.0375C536.964 42.0375 540.726 45.8057 540.726 50.4585C540.726 50.5061 540.726 50.5509 540.726 50.5985C541.223 50.5061 541.737 50.4585 542.264 50.4585C546.903 50.4585 550.664 54.2294 550.664 58.8795H533.864C533.864 58.8795 532.336 58.8689 532.328 58.8795L532.325 58.8769Z" fill="white"/>
<path d="M495.932 417.944C495.932 417.944 455.851 378.773 368.597 381.266C281.343 383.76 244.808 423.644 161.81 355.984C161.81 355.984 101.157 390.171 55.4017 392.661C55.4017 392.661 98.3194 468.867 186.638 472.071C274.957 475.275 301.559 432.901 393.426 485.248C393.426 485.248 471.103 427.559 495.932 417.944Z" fill="#45C8F5"/>
<path d="M163.443 353.871C162.602 353.184 161.428 353.084 160.484 353.617L160.482 353.617C160.481 353.618 160.478 353.619 160.475 353.621C160.469 353.625 160.459 353.631 160.445 353.638C160.417 353.654 160.375 353.678 160.319 353.709C160.206 353.772 160.037 353.866 159.813 353.989C159.365 354.236 158.699 354.601 157.833 355.066C156.102 355.998 153.572 357.334 150.392 358.946C144.029 362.173 135.07 366.501 124.693 370.905C103.866 379.744 77.6052 388.767 55.1971 389.988C54.2841 390.038 53.4615 390.558 53.0223 391.363C52.5832 392.169 52.5898 393.145 53.0399 393.945L55.3403 392.638L53.3279 393.782C53.0406 393.946 53.041 393.947 53.0414 393.948C53.0419 393.949 53.043 393.95 53.044 393.952C53.046 393.956 53.0489 393.961 53.0523 393.967C53.059 393.979 53.0682 393.995 53.0801 394.016C53.1041 394.058 53.1388 394.118 53.1839 394.196C53.2741 394.351 53.4066 394.576 53.5813 394.867C53.9308 395.449 54.4495 396.293 55.1382 397.363C56.5156 399.503 58.5738 402.548 61.3182 406.204C66.8049 413.513 75.0476 423.283 86.091 433.156C108.178 452.902 141.559 473.134 186.517 474.765C230.937 476.378 260.437 466.476 289.03 462.897C317.629 459.317 346.684 461.687 392.152 487.609C393.06 488.127 394.188 488.059 395.028 487.435L393.456 485.3C395.028 487.435 395.028 487.435 395.029 487.434C395.029 487.434 395.03 487.433 395.031 487.432C395.033 487.43 395.037 487.428 395.041 487.425C395.051 487.418 395.065 487.407 395.083 487.394C395.12 487.366 395.176 487.325 395.249 487.271C395.396 487.162 395.615 487 395.901 486.788C396.475 486.364 397.32 485.74 398.404 484.943C400.573 483.348 403.7 481.059 407.531 478.281C415.194 472.725 425.667 465.218 436.912 457.413C448.161 449.606 460.164 441.512 470.892 434.777C481.679 428.005 490.996 422.721 496.941 420.418C497.781 420.093 498.399 419.36 498.579 418.474C498.76 417.588 498.479 416.67 497.834 416.039L495.99 417.941C497.833 416.039 497.832 416.038 497.831 416.037C497.83 416.036 497.829 416.035 497.827 416.033C497.825 416.031 497.822 416.028 497.818 416.024C497.81 416.017 497.8 416.007 497.787 415.995C497.762 415.971 497.727 415.937 497.682 415.894C497.592 415.809 497.462 415.688 497.293 415.534C496.953 415.226 496.455 414.784 495.795 414.228C494.476 413.116 492.511 411.55 489.887 409.687C484.64 405.962 476.755 401.053 466.122 396.233C444.844 386.588 412.606 377.321 368.546 378.581C346.529 379.21 327.728 382.2 310.693 385.242C293.601 388.294 278.46 391.36 263.445 392.262C233.765 394.044 204.51 387.366 163.443 353.871ZM161.497 359.114C202.74 392.369 232.937 399.412 263.76 397.562C279.169 396.636 294.718 393.487 311.618 390.469C328.578 387.441 347.074 384.506 368.696 383.888C411.914 382.652 443.36 391.74 463.948 401.072C474.247 405.74 481.84 410.476 486.837 414.023C488.544 415.235 489.947 416.308 491.053 417.192C484.872 420.103 476.83 424.788 468.091 430.275C457.266 437.071 445.188 445.216 433.908 453.046C422.624 460.878 412.12 468.407 404.438 473.977C400.597 476.762 397.46 479.058 395.283 480.659C394.473 481.254 393.796 481.753 393.265 482.145C347.686 456.469 317.821 453.943 288.377 457.629C258.607 461.355 230.631 471.054 186.708 469.46C143.324 467.885 111.068 448.38 89.6046 429.19C78.8728 419.596 70.8617 410.098 65.5384 403.007C63.0793 399.731 61.1974 396.972 59.8877 394.959C82.1776 392.856 107.105 384.133 126.75 375.795C137.261 371.334 146.331 366.953 152.773 363.686C155.996 362.052 158.563 360.696 160.328 359.746C160.768 359.51 161.159 359.298 161.497 359.114Z" fill="#2C547B"/>
<path d="M182.691 384.09C182.69 384.091 182.688 384.093 182.685 384.094C182.68 384.098 182.672 384.104 182.661 384.112C182.638 384.127 182.605 384.151 182.56 384.182C182.471 384.244 182.337 384.337 182.16 384.458C181.807 384.702 181.282 385.062 180.602 385.523C179.242 386.447 177.259 387.778 174.774 389.406C169.803 392.662 162.826 397.102 154.808 401.836C138.724 411.33 118.618 421.902 102.117 426.556C101.065 426.853 100.453 427.944 100.751 428.992C101.048 430.041 102.142 430.651 103.194 430.354C120.224 425.551 140.704 414.748 156.825 405.232C164.908 400.46 171.938 395.986 176.948 392.705C179.453 391.064 181.454 389.72 182.83 388.786C183.519 388.319 184.051 387.954 184.411 387.705C184.592 387.581 184.729 387.485 184.822 387.421C184.869 387.389 184.904 387.364 184.928 387.347C184.94 387.339 184.949 387.333 184.955 387.328C184.958 387.326 184.961 387.325 184.962 387.324C184.963 387.323 184.964 387.322 184.964 387.322C184.964 387.32 184.931 387.273 183.829 385.705C182.728 384.139 182.694 384.091 182.692 384.09C182.692 384.09 182.692 384.09 182.691 384.09ZM185.45 384.573C184.822 383.68 183.588 383.464 182.693 384.089L184.965 387.322C185.86 386.696 186.077 385.465 185.45 384.573Z" fill="#2C547B"/>
<path d="M191.456 387.868C190.796 387.036 189.602 386.874 188.746 387.483L188.664 387.545C188.663 387.546 188.661 387.547 188.659 387.549C188.654 387.553 188.647 387.558 188.638 387.566C188.619 387.581 188.59 387.603 188.552 387.633C188.474 387.694 188.358 387.785 188.204 387.904C187.896 388.143 187.437 388.498 186.838 388.953C185.64 389.865 183.881 391.183 181.648 392.803C177.179 396.045 170.815 400.494 163.236 405.314C148.052 414.972 128.107 426.05 108.832 431.96C107.783 432.281 107.193 433.392 107.515 434.44C107.837 435.488 108.948 436.077 109.997 435.756C129.779 429.69 150.077 418.39 165.369 408.663C173.03 403.791 179.462 399.296 183.982 396.017C186.242 394.377 188.025 393.04 189.245 392.112C189.855 391.648 190.324 391.287 190.642 391.04C190.801 390.916 190.922 390.821 191.004 390.757C191.045 390.725 191.077 390.701 191.098 390.684C191.108 390.676 191.116 390.669 191.122 390.665C191.125 390.662 191.127 390.661 191.129 390.659C191.129 390.659 191.13 390.658 191.13 390.658C191.131 390.658 191.131 390.657 189.898 389.101L191.131 390.657C191.992 389.977 192.137 388.728 191.456 387.868Z" fill="#FC46AA"/>
<path d="M442.294 400.907C442.288 400.911 442.278 400.916 442.266 400.923C442.242 400.936 442.206 400.956 442.159 400.982C442.065 401.035 441.925 401.113 441.742 401.216C441.376 401.422 440.836 401.726 440.138 402.123C438.743 402.918 436.715 404.082 434.184 405.567C429.121 408.537 422.038 412.788 413.953 417.918C397.799 428.168 377.576 441.967 361.471 456.085C360.649 456.805 360.572 458.05 361.298 458.865C362.024 459.68 363.278 459.757 364.1 459.037C379.976 445.119 399.998 431.448 416.092 421.237C424.13 416.136 431.173 411.909 436.204 408.958C438.719 407.483 440.732 406.327 442.114 405.54C442.804 405.147 443.338 404.846 443.698 404.644C443.878 404.543 444.014 404.467 444.106 404.416C444.151 404.39 444.185 404.371 444.208 404.358C444.219 404.352 444.228 404.347 444.233 404.344C444.236 404.343 444.238 404.342 444.239 404.341C444.24 404.341 444.24 404.34 444.241 404.34C444.24 404.338 444.205 404.277 443.272 402.621C442.304 400.902 442.304 400.902 442.303 400.902L442.294 400.907ZM445.005 401.66C444.47 400.711 443.261 400.371 442.304 400.902L444.241 404.34C445.198 403.81 445.54 402.61 445.005 401.66Z" fill="#2C547B"/>
<path d="M435.57 398.338C435.065 397.363 433.87 396.985 432.901 397.493C407.978 410.559 388.257 424.526 374.76 435.231C368.011 440.584 362.815 445.124 359.302 448.332C357.545 449.935 356.208 451.206 355.308 452.079C354.858 452.515 354.517 452.852 354.287 453.082C354.172 453.196 354.084 453.284 354.025 453.344C353.995 453.374 353.973 453.397 353.957 453.413C353.949 453.421 353.943 453.427 353.939 453.432L353.932 453.438C353.932 453.439 353.951 453.459 355.265 454.756L353.931 453.439C353.166 454.223 353.177 455.483 353.957 456.253C354.736 457.023 355.989 457.012 356.754 456.228V456.228L356.758 456.225C356.76 456.222 356.765 456.217 356.771 456.211C356.784 456.198 356.803 456.178 356.83 456.152C356.883 456.098 356.964 456.017 357.072 455.908C357.29 455.692 357.618 455.368 358.054 454.944C358.927 454.098 360.235 452.855 361.961 451.279C365.414 448.127 370.54 443.647 377.211 438.356C390.554 427.772 410.069 413.951 434.731 401.022C435.7 400.514 436.076 399.312 435.57 398.338Z" fill="#FC46AA"/>
<path d="M292.056 401.465C291.399 401.209 290.652 401.316 290.096 401.75C285.716 405.161 277.538 408.24 267.392 410.903C257.338 413.543 245.656 415.7 234.521 417.405C223.394 419.108 212.851 420.353 205.087 421.172C201.206 421.582 198.021 421.885 195.809 422.085C194.703 422.186 193.84 422.26 193.254 422.31C192.961 422.334 192.737 422.353 192.587 422.365C192.512 422.371 192.456 422.376 192.418 422.379C192.4 422.38 192.385 422.381 192.376 422.382C192.372 422.382 192.368 422.382 192.366 422.383C192.365 422.383 192.364 422.383 192.363 422.383C192.363 422.384 192.367 422.43 192.521 424.34L192.363 422.383C191.604 422.443 190.947 422.925 190.67 423.626C190.393 424.326 190.545 425.12 191.062 425.672C199.063 434.223 209.624 441.291 218.108 446.199C222.364 448.66 226.126 450.594 228.827 451.914C230.178 452.574 231.265 453.081 232.017 453.424C232.393 453.596 232.685 453.727 232.885 453.816C232.985 453.86 233.062 453.894 233.115 453.917C233.141 453.928 233.161 453.937 233.176 453.943C233.183 453.946 233.188 453.948 233.192 453.95C233.194 453.951 233.196 453.952 233.197 453.952C233.197 453.952 233.198 453.952 233.198 453.953L233.993 452.153L233.199 453.953C233.529 454.095 233.891 454.146 234.248 454.1C239.876 453.381 248.857 451.017 259.036 447.938C269.26 444.845 280.832 440.987 291.707 437.22C302.586 433.454 312.782 429.774 320.257 427.037C323.995 425.668 327.053 424.535 329.178 423.743C330.24 423.347 331.069 423.037 331.633 422.826C331.914 422.72 332.13 422.639 332.275 422.584C332.347 422.557 332.402 422.536 332.439 422.522C332.458 422.516 332.472 422.51 332.481 422.507C332.486 422.505 332.489 422.503 332.492 422.503C332.493 422.502 332.494 422.502 332.494 422.502C332.495 422.501 332.495 422.501 331.786 420.667L332.495 422.501C333.25 422.216 333.755 421.509 333.773 420.712C333.791 419.914 333.319 419.185 332.578 418.867L292.119 401.491L292.056 401.465ZM326.507 420.541C324.506 421.284 321.916 422.242 318.875 423.355C311.414 426.087 301.242 429.758 290.392 433.515C279.54 437.273 268.024 441.112 257.872 444.183C248.021 447.163 239.584 449.379 234.286 450.132C234.123 450.059 233.922 449.968 233.686 449.86C232.963 449.53 231.907 449.038 230.59 448.394C227.955 447.107 224.277 445.216 220.117 442.81C212.79 438.573 204.054 432.785 196.879 425.93C199.058 425.73 202.001 425.447 205.509 425.077C213.314 424.253 223.922 423.001 235.13 421.285C246.331 419.571 258.167 417.388 268.413 414.698C277.953 412.194 286.388 409.184 291.591 405.545L326.507 420.541Z" fill="#2C547B"/>
<path d="M235.703 443.939C250.083 441.175 282.353 429.902 306.504 421.01C307.694 420.57 307.745 418.884 306.58 418.372L292.74 412.275C292.346 412.101 291.89 412.117 291.512 412.329C281.046 418.152 262.823 423.052 236.153 427.24C229.018 428.36 222.156 429.288 216.093 430.031C214.799 430.189 214.405 431.888 215.487 432.626C223.448 438.036 231.045 441.974 234.84 443.824C235.11 443.955 235.409 443.998 235.703 443.939Z" fill="#FC46AA"/>
<path d="M187.86 399.513L195.305 409.89C195.329 409.925 195.369 409.946 195.41 409.946C196.325 409.978 206.479 410.322 210.683 409.965C210.788 409.957 210.841 409.836 210.782 409.75L203.99 400.157C203.966 400.122 203.928 400.101 203.885 400.101L187.979 399.298C187.863 399.292 187.793 399.421 187.86 399.515V399.513Z" fill="white"/>
<path d="M164.215 414.402L171.441 424.779C171.464 424.814 171.503 424.835 171.542 424.835C172.431 424.867 182.286 425.211 186.366 424.854C186.468 424.846 186.52 424.725 186.463 424.639L179.87 415.046C179.847 415.011 179.81 414.99 179.768 414.99L164.33 414.187C164.218 414.181 164.15 414.31 164.215 414.404V414.402Z" fill="white"/>
<path d="M137.865 430.644L145.091 441.021C145.115 441.056 145.154 441.078 145.193 441.078C146.081 441.11 155.936 441.454 160.017 441.097C160.118 441.089 160.17 440.968 160.113 440.882L153.521 431.289C153.497 431.254 153.461 431.233 153.419 431.233L137.98 430.429C137.868 430.424 137.8 430.553 137.865 430.647V430.644Z" fill="white"/>
<path d="M349.967 441.056L342.741 431.328C342.718 431.295 342.679 431.275 342.639 431.275C341.751 431.244 331.896 430.922 327.816 431.257C327.714 431.265 327.662 431.378 327.719 431.459L334.312 440.452C334.335 440.484 334.372 440.505 334.413 440.505L349.852 441.258C349.964 441.263 350.032 441.142 349.967 441.054V441.056Z" fill="white"/>
<path d="M374.288 426.153L366.844 415.776C366.819 415.741 366.779 415.72 366.739 415.72C365.823 415.688 355.67 415.344 351.466 415.701C351.361 415.709 351.307 415.83 351.366 415.916L358.159 425.509C358.183 425.544 358.22 425.565 358.263 425.565L374.17 426.368C374.286 426.374 374.355 426.245 374.288 426.151V426.153Z" fill="white"/>
<path d="M400.64 409.911L393.195 399.534C393.171 399.499 393.131 399.477 393.09 399.477C392.175 399.445 382.022 399.101 377.817 399.459C377.713 399.467 377.659 399.588 377.718 399.673L384.51 409.266C384.534 409.301 384.572 409.323 384.615 409.323L400.522 410.126C400.637 410.131 400.707 410.002 400.64 409.908V409.911Z" fill="white"/>
<path d="M109.574 389.824C108.48 389.785 107.562 390.644 107.523 391.741L106.648 416.794L83.7705 408.045C82.7476 407.653 81.6022 408.168 81.2122 409.194C80.8222 410.22 81.3353 411.369 82.3582 411.76L107.826 421.501C108.423 421.729 109.094 421.654 109.627 421.3C110.16 420.945 110.49 420.354 110.513 419.713L111.485 391.881C111.523 390.783 110.668 389.862 109.574 389.824Z" fill="white"/>
<path d="M144.519 378.132C144.424 377.021 143.454 376.199 142.354 376.295C141.253 376.391 140.438 377.369 140.533 378.48L142.333 399.466L116.32 387.854C115.31 387.403 114.128 387.864 113.681 388.883C113.234 389.903 113.691 391.095 114.702 391.546L143.808 404.539C144.454 404.828 145.204 404.75 145.78 404.336C146.355 403.921 146.671 403.23 146.61 402.519L144.519 378.132Z" fill="white"/>
<path d="M156.003 377.076C155.433 376.905 154.814 377.006 154.323 377.355C153.799 377.726 153.484 378.334 153.48 378.984L153.375 395.252C153.368 396.358 154.243 397.26 155.33 397.267C156.417 397.274 157.303 396.384 157.31 395.278L157.397 381.844L172.359 387.351C172.962 387.573 173.634 387.482 174.159 387.107C174.684 386.732 174.996 386.12 174.996 385.468V378.29C174.996 377.184 174.115 376.287 173.028 376.287C171.942 376.287 171.061 377.184 171.061 378.29V382.614L156.117 377.114L156.003 377.076Z" fill="white"/>
<path d="M118.894 400.099C118.252 399.859 117.533 399.97 116.99 400.392C116.448 400.815 116.158 401.491 116.223 402.181L117.186 412.364C117.291 413.472 118.262 414.283 119.356 414.177C120.449 414.071 121.251 413.088 121.147 411.98L120.486 404.991L131.101 408.97C132.131 409.356 133.276 408.823 133.657 407.78C134.038 406.736 133.512 405.578 132.482 405.192L118.894 400.099Z" fill="white"/>
<path d="M446.689 406.065C446.013 406.065 445.385 406.424 445.026 407.015C444.668 407.605 444.629 408.344 444.925 408.971L449.281 418.208L432.052 414.763C430.988 414.55 429.959 415.266 429.753 416.362C429.546 417.458 430.241 418.519 431.305 418.732L452.387 422.948C453.117 423.093 453.864 422.802 454.316 422.195C454.769 421.587 454.85 420.768 454.525 420.079L449.823 410.108H458.836C459.919 410.108 460.797 409.203 460.797 408.087C460.797 406.97 459.919 406.065 458.836 406.065H446.689Z" fill="white"/>
<path d="M419.192 422.341C418.47 422.207 417.734 422.485 417.286 423.061C416.837 423.637 416.753 424.414 417.067 425.071L422.008 435.413C422.469 436.379 423.633 436.791 424.607 436.334C425.58 435.876 425.996 434.722 425.535 433.757L422.234 426.847L438.891 429.955C439.95 430.152 440.97 429.461 441.169 428.411C441.368 427.361 440.671 426.349 439.612 426.152L419.192 422.341Z" fill="white"/>
<path d="M402.195 433.834C401.474 433.726 400.755 434.043 400.336 434.654C399.918 435.264 399.871 436.064 400.215 436.721L408.42 452.396C408.923 453.358 410.094 453.72 411.034 453.205C411.974 452.69 412.328 451.493 411.824 450.531L405.427 438.309L418.046 440.191C419.101 440.348 420.082 439.6 420.235 438.521C420.389 437.441 419.658 436.438 418.603 436.281L402.195 433.834Z" fill="white"/>
<path d="M396.169 441.134C395.757 440.121 394.61 439.637 393.607 440.053C392.603 440.469 392.124 441.627 392.536 442.64L395.609 450.189L381.925 448.485C381.284 448.405 380.644 448.649 380.216 449.137C379.787 449.624 379.623 450.294 379.778 450.927L384.158 468.851C384.418 469.914 385.482 470.563 386.535 470.301C387.589 470.039 388.232 468.964 387.972 467.902L384.274 452.772L398.461 454.539C399.154 454.626 399.84 454.334 400.263 453.775C400.687 453.215 400.784 452.47 400.519 451.819L396.169 441.134Z" fill="white"/>
<path d="M161.948 367.904C161.337 367.43 160.508 367.356 159.823 367.714C145.139 375.388 109.29 392.836 75.2461 399.506C74.5655 399.64 74.0036 400.121 73.7649 400.775C73.5262 401.43 73.6454 402.162 74.0789 402.706C79.153 409.073 86.0864 416.847 94.8664 424.626L94.8667 424.625C106.771 435.174 119.723 443.698 133.372 449.952C150.032 457.586 167.814 461.849 186.234 462.63L187.111 462.665C190.21 462.777 193.336 462.833 196.403 462.833C221.649 462.833 241.353 459.087 260.256 455.497C276.678 452.378 291.988 449.473 308.766 449.473C335.227 449.473 361.024 456.857 391.715 473.475C392.38 473.862 393.228 473.835 393.875 473.361C401.368 467.873 415.147 457.879 430.174 447.445C448.811 434.503 463.908 424.662 475.352 417.982C475.959 417.628 476.334 416.976 476.338 416.27C476.341 415.564 475.972 414.909 475.368 414.548C471.868 412.46 467.714 410.209 462.902 407.959L461.93 407.509C451.172 402.569 439.371 398.637 426.854 395.822C411.157 392.288 394.274 390.501 376.672 390.501C374.143 390.501 371.561 390.538 369.002 390.61H369.001C344.683 391.305 324.738 394.935 305.584 398.418C288.093 401.599 271.775 404.559 255.099 404.559C223.623 404.559 194.685 393.304 161.948 367.904ZM160.529 371.831C193.352 397.07 222.847 408.542 255.099 408.542C272.191 408.542 288.861 405.507 306.29 402.337C325.449 398.853 345.128 395.277 369.114 394.591V394.591C371.637 394.52 374.181 394.483 376.672 394.483C394.011 394.483 410.601 396.244 425.988 399.708H425.989C438.259 402.468 449.796 406.316 460.284 411.131H460.284C464.07 412.869 467.447 414.612 470.417 416.279C459.252 422.953 445.05 432.273 427.921 444.168L425.113 446.123C411.799 455.414 399.742 464.145 392.549 469.405C361.899 452.958 335.743 445.49 308.766 445.49C291.56 445.49 275.895 448.474 259.52 451.584C240.623 455.173 221.242 458.851 196.403 458.851C193.384 458.851 190.306 458.795 187.255 458.685C169.037 458.022 151.464 453.866 135.016 446.328C121.744 440.246 109.117 431.943 97.4872 421.638L96.6882 420.926C89.6068 414.569 83.7856 408.243 79.2345 402.752C112.02 395.724 145.623 379.556 160.529 371.831Z" fill="#2C547B"/>
<path d="M225.671 133.36L225.825 133.788C226.756 136.655 227.788 140.092 228.912 144.081C235.19 166.355 240.455 187.555 244.545 210.064C244.567 210.135 244.606 210.167 244.678 210.167C255.168 209.433 265.597 209.066 275.944 209.066C278.561 209.077 281.209 209.159 283.889 209.322C285.063 209.404 286.209 209.547 287.315 209.761C289.257 210.138 290.434 211.495 291.794 212.791C294.257 215.117 296.527 217.689 298.593 220.495C298.633 220.545 298.697 220.556 298.747 220.527C304.964 216.089 311.721 213.354 318.991 212.324C321.804 211.915 324.809 211.825 327.632 211.854C329.963 211.894 332.825 212.342 335.188 212.894C341.823 214.436 347.898 217.221 353.419 221.271C353.501 221.332 353.562 221.311 353.604 221.221C353.972 220.374 354.464 219.365 355.086 218.201C356.21 216.11 357.406 214.201 358.673 212.488C359.266 211.682 359.922 210.967 360.647 210.336C362.335 208.858 364.605 208.081 366.811 207.561C370.544 206.674 374.51 206.012 378.733 205.571C382.852 205.143 386.984 204.795 391.125 204.52C391.728 204.48 392.342 204.438 392.955 204.399C392.955 204.317 397.125 204.235 397.207 204.164C397.257 204.113 397.289 204.05 397.289 203.971C397.125 199.145 392.852 194.411 392.567 189.635C392.239 184.197 391.881 178.576 391.514 172.771C390.9 163.425 390 154.15 388.804 144.937L388.519 142.793L388.344 141.447C388.344 141.447 347.294 130.519 311.385 129.418C293.514 128.877 272.174 129.846 255.274 130.979C238.23 132.101 225.674 133.365 225.674 133.365L225.671 133.36Z" fill="#45C8F5"/>
<path d="M255.4 130.973C272.296 131.35 293.596 131.869 311.462 132.42C343.324 133.398 380.782 146.037 388.421 147.974C392.465 179.2 391.13 204.265 391.13 204.265V204.386C391.733 204.347 396.472 204.305 397.086 204.265C397.086 204.183 397.125 204.102 397.207 204.03C397.257 203.98 397.289 203.917 397.289 203.838C397.125 199.021 396.982 194.295 396.697 189.528C396.369 184.099 396.012 178.489 395.645 172.693C395.032 163.364 394.133 154.106 392.938 144.909L392.653 142.769L392.478 141.425C392.478 141.425 347.339 130.517 311.462 129.418C293.606 128.878 272.286 129.845 255.4 130.976V130.973Z" fill="white"/>
<path d="M50.8351 274.115C51.4954 267.922 54.0357 262.736 58.2281 258.974C58.8274 258.437 59.4585 257.928 60.1241 257.451C61.9776 256.121 63.6508 254.739 65.1225 253.327C65.6131 252.858 66.0771 252.384 66.52 251.91C66.52 251.91 66.5226 251.91 66.5226 251.905C71.6431 246.427 72.0991 242.398 72.1097 242.337C72.1813 240.962 72.8841 239.696 74.0057 238.896C74.7774 238.348 75.6975 238.062 76.6256 238.062C77.0472 238.062 77.4715 238.12 77.8852 238.242C77.9462 238.261 84.0504 239.996 93.3552 239.996C102.453 239.996 116.351 238.292 130.901 230.179C161.029 213.378 181.943 213.184 182.818 213.184C185.311 213.184 187.332 215.203 187.332 217.693V220.193L195.345 218.622C195.631 218.567 195.923 218.538 196.215 218.538C197.153 218.538 198.079 218.832 198.853 219.388C199.866 220.116 200.532 221.231 200.694 222.466L215.495 336.335C215.792 338.621 214.315 340.764 212.072 341.299L191.052 346.332L188.53 354.241C188.297 354.967 187.886 355.624 187.332 356.146C186.942 356.514 177.618 365.234 161.764 371.821C156.856 373.856 151.343 374.934 145.819 374.934C138.257 374.934 131.19 372.926 125.377 369.125C117.579 364.021 112.275 355.804 110.04 345.368C109.899 344.708 109.751 344.059 109.597 343.421C108.523 338.947 107.165 334.955 105.548 331.528C100.878 321.573 95.5933 319.433 94.9383 319.203C92.9203 318.771 91.5653 317.047 91.4937 314.978C91.4937 314.965 91.4937 314.951 91.4937 314.941C90.266 315.073 89.0966 315.137 87.9669 315.137C79.988 315.137 74.8171 311.99 68.2727 308.004L67.35 307.442C64.7884 305.89 62.3939 303.893 60.2275 301.509C53.4338 294.007 49.8354 283.51 50.8378 274.11L50.8351 274.115Z" fill="#2C547B"/>
<path d="M62.9514 260.722C65.8786 258.621 68.1845 256.544 69.9958 254.581C76.5008 247.604 76.7705 242.151 76.7705 242.151C76.7705 242.151 103.724 250.143 133.097 233.683C162.47 217.245 182.68 217.245 182.68 217.245V225.227L196.039 222.609L210.805 336.642L187.374 342.277L184.076 352.617C184.076 352.617 175.175 361.073 159.96 367.429C150.597 371.323 137.711 371.583 127.864 365.116C124.68 363.028 121.808 360.227 119.479 356.614C117.273 353.216 115.552 349.083 114.505 344.152C113.198 338.067 111.511 333.202 109.7 329.329C107.325 324.239 104.715 320.851 102.431 318.626C102.362 318.557 102.296 318.501 102.227 318.445C98.8504 315.217 96.2299 314.538 96.2299 314.538C120.436 307.832 131.724 294.41 132.073 293.991C88.9713 315.97 84.5156 312.188 69.8636 303.259C67.6001 301.882 65.564 300.142 63.7632 298.155C53.9502 287.261 51.6655 268.87 62.9514 260.719V260.722ZM160.161 345.752C170.976 338.775 183.682 325.793 193.17 301.612C192.786 302.256 189.119 308.397 182.918 316.411L182.907 316.435L182.886 316.445C177.809 323.016 171.034 330.828 162.977 337.905V337.916C155.674 344.327 147.312 350.131 138.208 353.834C138.208 353.834 138.592 353.823 139.29 353.754C142.148 353.46 150.375 352.083 160.166 345.752H160.161Z" fill="#FC46AA"/>
<path d="M63.7332 298.458C121.814 296.058 137.834 254.928 137.834 254.928C107.4 273.444 81.9853 269.869 81.9853 269.869C96.6786 269.828 121.272 255.389 122.033 254.936C98.4185 262.937 78.616 257.709 69.9374 254.468C68.129 256.444 65.8284 258.542 62.9224 260.666C51.6827 268.891 53.9543 287.463 63.7305 298.458H63.7332Z" fill="#FC72CB"/>
<path d="M179.053 158.768C179.024 158.886 179.126 158.944 179.365 158.942C179.478 158.942 179.586 158.913 179.683 158.852C180.837 158.169 181.966 157.453 183.133 156.801C187.468 154.377 191.987 151.851 196.69 149.223C203.782 145.259 210.978 141.643 218.283 138.374C218.354 138.343 218.427 138.306 218.495 138.272C218.8 138.119 219.008 138.198 219.123 138.509C220.847 143.224 222.67 148.675 224.596 154.864C228.921 168.771 232.647 181.655 237.113 197.82C237.439 199.004 237.881 200.187 238.167 201.4C238.201 201.545 238.311 201.655 238.445 201.679C238.451 201.679 238.472 201.634 238.506 201.539C234.27 180.545 229.157 160.55 223.451 140.873C222.849 138.799 222.192 136.761 221.478 134.761C221.451 134.689 221.372 134.66 221.307 134.689C206.609 141.69 192.663 149.98 179.05 158.763L179.053 158.768Z" fill="#45C8F5"/>
<path d="M372.481 221.673C372.099 223.927 372.293 226.286 373.029 228.365C373.555 229.843 374.338 231.129 375.309 232.113C376.026 232.838 376.832 233.384 377.687 233.732C378.803 234.182 379.983 234.283 381.14 234.023C382.116 233.803 383.054 233.331 383.896 232.633C384.896 231.806 385.743 230.678 386.372 229.344C386.679 226.272 386.323 223.336 385.311 220.532C384.195 217.455 381.531 214.669 378.125 215.306C376.531 215.601 374.969 216.903 374.106 218.277C373.552 219.16 373.011 220.293 372.481 221.675V221.673Z" fill="#FC46AA"/>
<path d="M339.53 322.086C340.244 321.6 341 321.171 341.807 320.804C343.339 320.101 344.109 319.746 344.117 319.744C355.551 313.768 363.71 303.44 367.838 291.245C372.375 277.837 371.876 262.958 366.702 249.788C361.769 237.229 352.639 226.493 340.469 220.684C336.421 218.754 332.048 217.408 327.352 216.652C325.217 216.515 323.085 216.546 320.97 216.745C318.028 217.022 315.129 217.625 312.31 218.545C305.505 220.766 299.314 224.796 294.217 230.312C289.823 235.063 286.343 240.819 283.969 247.242C281.46 254.035 280.247 261.425 280.414 268.934C280.56 275.597 281.787 282.226 284.035 288.48C286.438 295.172 289.956 301.301 294.387 306.512C298.223 311.023 302.678 314.77 307.557 317.591C312.113 320.227 316.982 322.012 321.965 322.885C327.862 323.916 333.824 323.646 339.532 322.089L339.53 322.086ZM331.074 315.664C310.6 316.983 292.696 297.993 291.089 273.244C289.483 248.498 304.778 227.369 325.254 226.049C345.729 224.73 363.633 243.72 365.239 268.469C366.845 293.215 351.551 314.344 331.074 315.664Z" fill="#45C8F5"/>
<path d="M252.253 171.556C251.232 170.251 251.188 168.577 252.155 167.817C253.123 167.057 254.736 167.499 255.757 168.804C256.779 170.109 256.823 171.784 255.855 172.543C254.888 173.303 253.275 172.861 252.253 171.556Z" fill="white"/>
<path d="M313.616 325.56C313.595 325.589 313.579 325.605 313.566 325.61C313.491 325.647 313.486 325.753 313.555 325.801C321.469 330.94 330.186 334.429 339.47 335.771C340.047 335.853 340.629 335.954 341.216 336.071C341.783 336.182 342.36 336.28 342.944 336.357C355.442 334.935 367.921 333.309 380.378 331.481C380.665 331.439 380.838 331.293 380.902 331.046C381.742 327.714 382.47 324.4 383.087 321.1C386.471 302.927 388.805 284.016 390.353 265.853C391.988 246.688 392.947 227.363 393.234 207.882C393.234 207.805 393.197 207.768 393.117 207.77C387.718 208.046 382.146 208.487 376.404 209.089C372.873 209.458 369.516 210.047 366.331 210.85C364.592 211.291 363.252 211.996 362.319 212.967C361.484 213.83 360.639 214.957 359.78 216.347C358.369 218.629 357.151 220.879 356.13 223.097C356.082 223.2 356.109 223.325 356.197 223.397C364.653 230.621 370.725 239.665 374.413 250.524C378.844 263.566 379.259 277.869 375.237 291.038C369.585 309.551 355.256 324.626 335.57 327.719C328.278 328.865 320.959 328.149 313.616 325.56ZM380.179 236.396C374.487 236.335 369.933 230.605 370.007 223.593C370.082 216.581 374.755 210.946 380.447 211.004C386.139 211.065 390.693 216.796 390.618 223.808C390.544 230.82 385.87 236.455 380.179 236.396Z" fill="white"/>
<path d="M246.757 222.79C247.04 223.135 247.212 223.536 247.27 223.995C247.341 224.582 247.402 224.943 247.449 225.081C247.568 225.424 247.695 225.758 247.83 226.085C248.419 227.507 248.77 229.183 249.238 230.717C256.177 253.518 266.809 275.247 281.051 294.353C281.376 294.788 281.738 295.226 282.142 295.667C282.187 295.715 282.24 295.741 282.303 295.749C282.393 295.76 282.451 295.725 282.478 295.643C271.199 271.647 275.082 240.043 295.912 222.371C295.944 222.341 295.949 222.296 295.923 222.262C294.116 219.979 292.137 217.706 289.99 215.455C289.171 214.598 288.426 213.91 287.75 213.392C286.891 212.734 285.46 212.721 284.147 212.668C281.45 212.554 278.777 212.5 276.136 212.508C266.883 212.538 257.735 212.893 248.683 213.576C247.592 213.658 246.491 213.703 245.376 213.708C245.289 213.708 245.254 213.753 245.268 213.838L246.755 222.795L246.757 222.79Z" fill="white"/>
<path d="M372.288 221.841C372.835 220.474 373.392 219.354 373.962 218.48C374.851 217.124 376.459 215.835 378.102 215.541C381.61 214.912 384.354 217.667 385.503 220.71C386.548 223.486 386.912 226.391 386.596 229.427C387.469 227.651 387.896 225.567 387.819 223.471C387.718 220.773 386.792 218.247 385.24 216.447C384.309 215.36 383.184 214.584 381.966 214.18C380.198 213.592 378.325 213.823 376.661 214.828C375.515 215.52 374.514 216.562 373.739 217.856C373.039 219.034 372.543 220.393 372.288 221.839V221.841Z" fill="white"/>
<path d="M327.7 216.571C332.322 217.331 336.623 218.676 340.611 220.608C352.589 226.425 361.575 237.175 366.43 249.751C371.523 262.939 372.015 277.837 367.549 291.263C363.486 303.474 355.456 313.816 344.201 319.799C344.193 319.805 343.435 320.157 341.928 320.861C341.136 321.229 340.389 321.658 339.686 322.145C346.349 320.297 352.5 316.68 357.669 311.568C361.659 307.623 364.993 302.857 367.523 297.49C370.455 291.268 372.245 284.358 372.791 277.175C373.828 263.521 370.306 249.685 362.952 238.541C359.524 233.341 355.351 228.866 350.629 225.326C346.056 221.898 341.044 219.404 335.816 217.953C333.14 217.211 330.422 216.748 327.7 216.568V216.571Z" fill="white"/>
<path d="M335.509 233.076L337.514 234.524C338.105 234.951 338.238 235.777 337.812 236.369L337.739 236.47C337.313 237.062 336.489 237.196 335.898 236.769L333.892 235.32C333.301 234.894 333.168 234.068 333.594 233.476L333.667 233.375C334.093 232.783 334.918 232.649 335.509 233.076Z" fill="#FC46AA"/>
<path d="M345.469 246.579C347.765 250.238 349.646 254.27 351.109 258.677C352.641 263.289 353.719 267.688 354.339 271.867C354.629 273.825 354.89 275.788 355.118 277.756C355.177 278.266 355.313 278.287 355.531 277.818C355.589 277.688 355.643 277.455 355.693 277.12C357.268 266.196 353.865 254.893 348.148 245.561C346.637 243.096 344.721 240.63 342.404 238.163C340.863 236.524 338.94 238.511 340.358 240.063C342.539 242.452 344.242 244.627 345.471 246.582L345.469 246.579Z" fill="#FC46AA"/>
<path d="M241.208 149.229C241.208 153.153 244.233 156.335 247.964 156.335C251.695 156.335 254.721 153.153 254.721 149.229C254.721 145.305 251.695 142.123 247.964 142.123C244.233 142.123 241.208 145.305 241.208 149.229ZM252.477 148.158C251.781 148.867 250.382 148.541 249.356 147.426C248.329 146.31 248.061 144.831 248.759 144.121C249.455 143.411 250.854 143.737 251.88 144.852C252.907 145.968 253.176 147.448 252.477 148.158Z" fill="white"/>
<path d="M244.588 172.578C244.588 176.314 247.612 179.346 251.345 179.346C255.078 179.346 258.102 176.317 258.102 172.578C258.102 168.839 255.078 165.81 251.345 165.81C247.612 165.81 244.588 168.839 244.588 172.578ZM255.972 172.8C255.004 173.561 253.393 173.118 252.369 171.812C251.348 170.506 251.303 168.834 252.271 168.07C253.239 167.31 254.85 167.752 255.874 169.059C256.895 170.365 256.94 172.037 255.972 172.8Z" fill="white"/>
<path d="M304.715 239.676C306.256 241.489 307.803 243.267 309.352 245.012C313.259 249.414 317.156 253.83 321.042 258.266C324.222 261.896 327.36 265.563 330.453 269.271C330.585 269.428 330.724 269.582 330.875 269.726C331.241 270.08 331.528 270.551 331.863 270.945C332.403 271.586 332.946 272.225 333.488 272.863C333.934 273.388 334.463 274.037 335.074 274.812C335.707 275.61 336.371 276.411 337.064 277.22C337.73 277.992 338.265 278.881 338.995 279.639C339.511 280.177 340.025 280.768 340.536 281.412C341.469 282.591 342.499 283.841 343.627 285.167C346.412 288.432 349.086 291.703 351.652 294.977C351.752 295.104 351.942 295.107 352.045 294.982C352.761 294.112 353.451 293.279 354.11 292.48C354.139 292.443 354.179 292.422 354.226 292.414C354.295 292.403 354.342 292.363 354.374 292.302C354.416 292.206 354.49 292.166 354.6 292.182C354.932 291.277 355.325 290.343 355.593 289.465C357.962 281.686 358.647 273.731 357.646 265.603C356.479 256.134 352.901 246.814 346.815 239.517C342.351 234.165 335.483 228.996 328.306 228.765C324.185 228.632 320.199 229.39 316.35 231.038C311.881 232.949 308.003 235.828 304.717 239.679L304.715 239.676ZM333.631 233.201C334.057 232.608 334.877 232.472 335.464 232.901L337.464 234.356C338.052 234.785 338.183 235.615 337.762 236.209L337.688 236.313C337.261 236.906 336.442 237.042 335.854 236.613L333.854 235.158C333.267 234.729 333.135 233.899 333.557 233.305L333.631 233.201ZM354.827 283.682C355.298 284.262 355.741 284.818 356.157 285.353C356.157 285.353 356.157 285.358 356.157 285.361L356.107 285.425C356.086 285.454 356.062 285.454 356.036 285.425C355.549 284.866 355.053 284.318 354.55 283.778C351.191 280.174 347.955 276.635 344.846 273.164C337.783 265.279 330.719 257.393 323.653 249.507C319.972 245.398 316.133 240.959 312.139 236.193C312.06 236.1 312.065 235.959 312.15 235.871L313.739 234.207C313.844 234.098 314.015 234.104 314.113 234.218C317.535 238.207 320.973 242.109 324.269 246.146C326.061 248.339 327.882 250.561 329.731 252.81C330.695 253.984 331.678 255.2 332.679 256.459C334.242 258.428 336.06 260.653 338.128 263.126C343.213 269.204 348.611 275.852 354.329 283.067C354.492 283.272 354.658 283.48 354.827 283.687V283.682ZM345.168 246.306C343.951 244.318 342.264 242.106 340.104 239.676C338.702 238.098 340.605 236.078 342.13 237.744C344.425 240.254 346.322 242.761 347.818 245.268C353.48 254.758 356.85 266.253 355.29 277.361C355.24 277.702 355.188 277.941 355.13 278.072C354.916 278.551 354.779 278.529 354.721 278.008C354.495 276.006 354.237 274.01 353.949 272.02C353.336 267.77 352.268 263.299 350.751 258.607C349.302 254.122 347.439 250.024 345.165 246.303L345.168 246.306Z" fill="white"/>
<path d="M333.855 284.952C333.847 285.058 333.797 285.098 333.704 285.066C333.665 285.055 333.633 285.037 333.601 285.005C326.249 277.638 318.924 270.213 311.625 262.735C310.553 261.635 309.477 260.497 308.405 259.315C306.241 256.934 304.075 254.562 301.909 252.195C301.79 252.062 301.719 252.086 301.698 252.263C300.15 265.807 303.645 280.096 312.064 290.845C319.666 300.547 331.689 306.507 343.552 301.221C346.411 299.946 349.034 298.018 351.292 295.76C351.356 295.696 351.356 295.63 351.292 295.566C346.862 290.821 342.313 285.837 337.643 280.615C336.164 278.964 334.682 277.32 333.192 275.682C326.537 268.37 317.754 258.642 306.846 246.495C305.887 245.424 304.894 244.26 303.872 243.006C303.811 242.932 303.69 242.956 303.661 243.046C303.161 244.637 302.741 246.264 302.401 247.932C302.34 248.226 302.303 248.494 302.525 248.738C305.393 251.868 308.286 255.026 311.197 258.212C314.124 261.414 316.895 264.779 319.682 268.108C320.702 269.33 321.714 270.518 322.717 271.679C326.276 275.793 329.966 280.151 333.789 284.748C333.839 284.804 333.86 284.88 333.855 284.955V284.952Z" fill="white"/>
<path d="M246.619 223.336C246.791 224.686 247.173 227.316 247.761 231.233C249.028 239.686 250.178 249.979 251.214 262.117C252.989 282.954 253.869 303.827 253.853 324.737C253.848 332.66 253.742 340.521 253.196 348.46C253.19 348.523 253.22 348.549 253.283 348.536C258.882 347.545 264.481 346.638 270.083 345.816C294.01 342.302 317.435 339.168 340.353 336.417C341.309 336.303 342.271 336.185 343.238 336.063C342.655 335.987 342.08 335.892 341.516 335.779C340.93 335.663 340.35 335.563 339.775 335.481C330.522 334.144 321.831 330.678 313.945 325.575C313.873 325.528 313.879 325.425 313.955 325.385C313.966 325.378 313.985 325.362 314.006 325.335C299.8 320.261 288.716 309.217 282.46 295.672C282.431 295.753 282.373 295.788 282.285 295.777C282.222 295.769 282.169 295.743 282.123 295.695C281.718 295.258 281.355 294.82 281.029 294.391C266.741 275.423 256.076 253.849 249.115 231.207C248.646 229.686 248.294 228.02 247.703 226.607C247.568 226.283 247.44 225.953 247.321 225.611C247.273 225.476 247.212 225.118 247.141 224.533C247.083 224.079 246.91 223.679 246.627 223.336H246.619Z" fill="white"/>
<path d="M216.049 218.224C224.386 215.73 232.534 213.495 240.495 211.513C240.529 211.503 240.545 211.484 240.537 211.447L238.724 201.553C238.689 201.648 238.668 201.696 238.663 201.693C238.528 201.669 238.416 201.558 238.382 201.413C238.09 200.195 237.645 199.012 237.319 197.825C232.813 181.623 229.054 168.709 224.69 154.77C222.747 148.567 220.908 143.103 219.169 138.377C219.055 138.065 218.843 137.983 218.535 138.139C218.464 138.174 218.392 138.211 218.32 138.242C210.954 141.521 203.691 145.143 196.536 149.116C191.791 151.75 187.232 154.281 182.858 156.712C181.681 157.364 180.538 158.083 179.377 158.767C179.279 158.825 179.17 158.854 179.056 158.857C178.815 158.857 178.709 158.802 178.741 158.683C176.085 160.355 173.447 162.07 170.831 163.824C165.296 167.538 159.74 171.266 154.157 175.01C154.062 175.076 154.027 175.2 154.078 175.303C159.321 186.286 164.331 197.416 168.723 208.694C171.626 216.144 173.98 223.822 176.3 231.378C176.318 231.444 176.392 231.476 176.456 231.446C176.456 231.446 197.594 223.637 216.049 218.221" fill="#2C9CD7"/>
<path d="M347.278 306.482C364.488 292.657 366.971 267.265 356.909 248.733C353.912 243.214 349.815 238.583 344.622 234.848C344.612 234.837 344.598 234.84 344.59 234.853C344.59 234.853 344.579 234.876 344.59 234.884C356.315 244.892 361.025 261.89 359.982 276.654C359.199 287.767 355.104 298.395 347.251 306.451C347.095 306.611 347.103 306.622 347.28 306.48L347.278 306.482Z" fill="#2C9CD7"/>
<path d="M354.75 283.837C354.58 283.629 354.417 283.421 354.254 283.216C348.557 275.987 343.175 269.323 338.111 263.227C336.05 260.749 334.238 258.519 332.682 256.545C331.687 255.286 330.705 254.067 329.744 252.888C327.901 250.634 326.087 248.406 324.301 246.208C321.02 242.161 317.591 238.251 314.181 234.252C314.083 234.14 313.91 234.135 313.808 234.241L312.225 235.908C312.141 235.999 312.135 236.138 312.214 236.231C316.197 241.012 320.019 245.459 323.687 249.577C330.726 257.481 337.764 265.386 344.805 273.29C347.906 276.768 351.127 280.316 354.475 283.928C354.976 284.47 355.47 285.019 355.955 285.579C355.982 285.606 356.005 285.606 356.026 285.579L356.076 285.515C356.076 285.515 356.076 285.51 356.076 285.507C355.661 284.971 355.22 284.414 354.75 283.832V283.837Z" fill="#B4CCD9"/>
<path d="M354.725 292.154C354.614 292.138 354.54 292.178 354.498 292.274C354.469 292.338 354.419 292.375 354.351 292.386C354.301 292.394 354.264 292.415 354.235 292.452C353.578 293.252 352.889 294.086 352.173 294.957C352.071 295.082 351.881 295.08 351.781 294.952C349.219 291.674 346.547 288.402 343.77 285.129C342.641 283.802 341.613 282.55 340.684 281.369C340.174 280.724 339.664 280.133 339.146 279.594C338.417 278.835 337.883 277.945 337.218 277.172C336.523 276.364 335.86 275.56 335.232 274.76C334.619 273.985 334.093 273.334 333.648 272.809C333.106 272.17 332.565 271.53 332.025 270.888C331.694 270.491 331.405 270.022 331.039 269.668C330.889 269.524 330.75 269.372 330.618 269.212C327.533 265.5 324.398 261.828 321.223 258.193C317.346 253.75 313.453 249.327 309.552 244.922C308.006 243.176 306.464 241.393 304.923 239.579C303.061 241.729 301.572 243.965 300.462 246.283C296.212 255.171 294.568 264.58 295.536 274.51C296.283 282.155 298.371 289.238 301.801 295.759C304.507 300.903 307.882 304.935 312.732 308.164C319.397 312.599 327.117 314.368 334.866 312.767C335.916 312.551 336.907 312.22 337.836 311.778C346.066 307.842 351.637 300.7 354.722 292.154H354.725ZM333.924 285.02C333.932 284.945 333.909 284.868 333.859 284.812C330.053 280.191 326.378 275.81 322.835 271.674C321.838 270.507 320.831 269.313 319.813 268.085C317.038 264.735 314.279 261.353 311.365 258.137C308.463 254.931 305.586 251.757 302.729 248.612C302.508 248.367 302.545 248.098 302.606 247.802C302.942 246.126 303.361 244.493 303.86 242.891C303.889 242.8 304.01 242.776 304.071 242.851C305.086 244.112 306.075 245.281 307.033 246.358C317.893 258.568 326.639 268.348 333.264 275.698C334.748 277.345 336.226 278.997 337.696 280.658C342.347 285.907 346.876 290.917 351.287 295.687C351.347 295.751 351.347 295.818 351.287 295.882C349.041 298.152 346.429 300.09 343.58 301.372C331.768 306.685 319.797 300.695 312.227 290.941C303.842 280.138 300.362 265.774 301.906 252.157C301.927 251.981 301.996 251.957 302.117 252.087C304.276 254.467 306.43 256.855 308.584 259.245C309.655 260.434 310.725 261.577 311.791 262.683C319.058 270.201 326.354 277.662 333.672 285.071C333.701 285.1 333.735 285.121 333.774 285.132C333.867 285.161 333.919 285.121 333.924 285.017V285.02Z" fill="#B4CCD9"/>
<path d="M238.511 149.229C238.511 154.274 242.596 158.366 247.632 158.366C252.669 158.366 256.754 154.274 256.754 149.229C256.754 144.184 252.669 140.093 247.632 140.093C242.596 140.093 238.511 144.184 238.511 149.229ZM240.882 149.321C240.882 145.551 243.934 142.494 247.698 142.494C251.462 142.494 254.514 145.551 254.514 149.321C254.514 153.092 251.462 156.149 247.698 156.149C243.934 156.149 240.882 153.092 240.882 149.321Z" fill="#2C547B"/>
<path d="M242.56 172.239C242.56 177.286 246.492 181.376 251.343 181.376C256.195 181.376 260.127 177.286 260.127 172.239C260.127 167.193 256.195 163.103 251.343 163.103C246.492 163.103 242.56 167.193 242.56 172.239ZM244.713 172.338C244.713 168.574 247.647 165.519 251.269 165.519C254.891 165.519 257.825 168.571 257.825 172.338C257.825 176.105 254.891 179.157 251.269 179.157C247.647 179.157 244.713 176.105 244.713 172.338Z" fill="#2C547B"/>
<path d="M379.926 236.871C385.71 236.93 390.459 231.223 390.534 224.122C390.61 217.02 385.982 211.216 380.199 211.154C374.415 211.095 369.666 216.802 369.591 223.904C369.515 231.005 374.142 236.809 379.926 236.871ZM386.723 229.627C386.064 230.979 385.175 232.121 384.127 232.959C383.243 233.668 382.26 234.144 381.236 234.367C380.026 234.63 378.789 234.528 377.616 234.071C376.72 233.719 375.871 233.166 375.123 232.432C374.102 231.435 373.283 230.132 372.732 228.636C371.96 226.529 371.757 224.14 372.157 221.856C372.416 220.376 372.921 218.984 373.635 217.778C374.423 216.453 375.442 215.386 376.609 214.677C378.3 213.648 380.21 213.414 382.009 214.013C383.251 214.427 384.394 215.222 385.342 216.335C386.923 218.175 387.865 220.763 387.968 223.528C388.046 225.675 387.611 227.808 386.723 229.627Z" fill="#2C547B"/>
<path d="M331.277 315.989C351.738 314.666 367.02 293.474 365.416 268.654C363.811 243.834 345.923 224.787 325.463 226.108C305.002 227.431 289.719 248.623 291.324 273.443C292.929 298.263 310.817 317.31 331.277 315.989ZM354.927 292.278C351.815 300.783 346.196 307.893 337.896 311.807C336.957 312.248 335.959 312.576 334.901 312.791C327.086 314.385 319.3 312.624 312.578 308.211C307.684 305 304.283 300.984 301.553 295.866C298.094 289.377 295.988 282.328 295.234 274.719C294.258 264.838 295.914 255.473 300.203 246.629C301.323 244.322 302.824 242.099 304.702 239.957C308.013 236.119 311.915 233.25 316.414 231.346C320.29 229.704 324.303 228.948 328.452 229.081C335.678 229.314 342.594 234.462 347.088 239.795C353.216 247.064 356.818 256.354 357.993 265.79C359.001 273.889 358.312 281.816 355.927 289.568C355.656 290.445 355.264 291.376 354.927 292.275V292.278ZM347.414 306.888C355.157 298.767 359.195 288.053 359.967 276.851C360.993 261.966 356.348 244.834 344.79 234.745C344.78 234.735 344.78 234.724 344.79 234.714C344.79 234.714 344.812 234.7 344.822 234.708C349.942 238.474 353.982 243.142 356.937 248.706C366.861 267.384 364.41 292.981 347.441 306.92C347.268 307.06 347.258 307.052 347.411 306.89L347.414 306.888Z" fill="#2C547B"/>
<path d="M178.202 226.72C177.257 224.001 176.326 221.277 175.395 218.553C172.553 210.24 169.693 201.924 166.377 193.786C164.815 189.955 163.184 186.152 161.458 182.393C161.232 181.899 161.02 181.357 160.804 180.8C182.065 166.377 213.845 148.891 213.845 148.891C222.377 167.179 228.857 188.632 233.775 210.229C233.422 210.354 233.068 210.481 232.717 210.601C230.496 211.365 228.248 211.968 225.968 212.526L178.202 226.72Z" fill="#2C547B"/>
<path d="M281.02 227.099C278.738 224.129 276.535 221.1 274.319 218.083C278.447 218.054 281.891 218.006 283.287 217.922L291.211 227.996C289.62 230.209 288.275 232.62 287.057 234.841C285.032 232.272 283.017 229.692 281.02 227.099Z" fill="#2C547B"/>
<path d="M275.439 237.779C270.283 231.541 264.619 225.44 260.129 218.63C263.073 218.62 266.484 218.612 269.793 218.599C270.455 219.508 271.114 220.42 271.776 221.329C275.452 226.373 279.235 231.322 283.088 236.227C283.769 237.091 284.449 237.958 285.129 238.825C283.965 241.073 282.861 243.345 281.888 245.67C279.75 243.029 277.602 240.399 275.436 237.782L275.439 237.779Z" fill="#2C547B"/>
<path d="M255.565 218.599C257.964 222.438 260.798 226.008 263.667 229.499C267.301 233.923 271.011 238.28 274.659 242.694C276.588 245.027 278.506 247.371 280.414 249.723C279.939 251.137 279.522 252.577 279.182 254.049C273.965 276.614 282.006 301.578 300.582 315.719C309.542 322.539 320.642 326.004 331.895 325.481C334.713 325.348 337.474 324.92 340.166 324.228C340.759 324.955 341.34 325.689 341.905 326.437C343.106 328.031 344.275 329.698 345.262 331.455L304.499 336.357C300.712 332.872 296.856 329.452 293.24 325.832C285.006 317.59 277.203 308.898 269.143 300.487C265.448 296.629 261.746 292.776 257.961 289.005C255.425 256.123 252.226 219.825 252.021 218.657C252.527 218.63 253.805 218.614 255.568 218.601L255.565 218.599Z" fill="#2C547B"/>
<path d="M344.551 323.937C344.342 323.678 344.127 323.424 343.912 323.164C345.079 322.762 346.235 322.319 347.375 321.824C347.639 321.71 347.9 321.588 348.161 321.468C350.337 324.43 352.476 327.419 354.723 330.326L349.336 330.943C348.023 328.451 346.322 326.131 344.549 323.937H344.551Z" fill="#2C547B"/>
<path d="M357.048 327.403C355.18 324.709 353.275 322.042 351.345 319.392C353.906 317.972 356.366 316.376 358.767 314.701L369.588 328.303L358.709 329.59C358.125 328.868 357.563 328.143 357.048 327.403Z" fill="#2C547B"/>
<path d="M284.543 334.241C277.553 326.855 270.054 320.016 262.776 312.93C261.574 311.759 260.379 310.582 259.188 309.398C258.858 304.646 258.491 299.595 258.103 294.397C266.152 302.66 273.987 311.138 281.864 319.566C285.626 323.593 289.356 327.668 293.329 331.484C295.285 333.364 297.302 335.206 299.318 337.059L288.403 338.388C287.125 336.997 285.842 335.612 284.543 334.241Z" fill="#2C547B"/>
<path d="M260.129 315.377C261.068 316.284 262.007 317.188 262.932 318.094C266.362 321.45 269.854 324.739 273.281 328.097C276.655 331.403 279.927 334.814 283.135 338.286C283.349 338.519 283.563 338.755 283.777 338.989L261.233 341.772C261.225 341.66 261.218 341.546 261.207 341.435C261.509 339.068 261.014 328.914 260.129 315.38V315.377Z" fill="#2C547B"/>
<path d="M102.032 318.591C104.334 320.818 106.964 324.212 109.357 329.314C111.183 333.194 112.885 338.068 114.199 344.165C115.254 349.107 116.989 353.245 119.212 356.649C126.481 356.785 133.138 355.701 139.171 353.787C138.467 353.856 138.081 353.867 138.081 353.867C147.256 350.157 155.682 344.345 163.042 337.919V337.909C171.162 330.819 177.989 322.992 183.105 316.41C149.649 351.39 138.308 345.047 138.308 345.047C156.567 340.173 169.281 315.471 169.664 314.701C141.415 349.185 108.432 324.042 102.026 318.591H102.032Z" fill="#FC72CB"/>
<path d="M214.182 430.689C214.09 436.402 216.514 440.746 221.603 443.984C226.986 447.395 233.211 449.285 240.642 449.769C243.683 449.963 246.209 450.056 248.591 450.056C255.028 450.056 260.33 449.357 265.278 447.836C269.149 446.645 271.988 445.369 274.483 443.715C280.099 439.914 282.308 434.623 281.224 427.533C280.98 425.919 280.799 424.255 280.626 422.641C280.209 418.718 279.774 414.669 278.294 410.734L278.142 410.333C276.744 406.613 275.293 402.772 273.021 399.308C272.434 398.415 272.526 398.271 272.738 397.931C275.799 393.061 273.347 385.726 269.281 382.9C268.389 382.272 268.237 381.985 268.785 380.587C272.09 372.449 276.419 361.704 280.666 350.679C280.786 350.349 280.938 350.022 281.101 349.714L282.418 347.186L279.629 347.616L275.251 348.284L274.469 348.398L274.448 348.438L272.24 348.736L250.23 351.705L249.165 351.849L249.003 352.928C248.893 353.71 248.638 354.643 248.394 355.547C248.211 356.235 248.03 356.892 247.909 357.519C247.25 360.776 246.519 364.086 245.81 367.289C245.202 370.033 244.575 372.877 243.995 375.682C243.712 377.059 243.439 377.469 242.028 377.758C235.852 378.971 231.778 382.187 229.913 387.313C228.94 389.963 228.859 392.306 229.669 394.475C229.963 395.246 229.934 395.666 229.132 396.58C222.015 404.901 217.768 413.39 216.144 422.501C215.971 423.466 215.658 424.423 215.323 425.428C214.774 427.052 214.208 428.735 214.176 430.678L214.182 430.689Z" fill="#2C547B"/>
<path d="M305.54 404.973C305.909 403.891 306.177 403.118 306.073 402.151C305.447 396.508 306.453 391.555 309.068 387.417C309.705 386.407 309.806 385.853 309.509 384.904C308.094 380.228 309.931 375.831 314.301 373.412C317.779 371.507 321.658 370.54 325.823 370.54H326.11C327.177 370.54 327.424 370.281 327.679 369.458C330.48 360.468 331.959 351.007 332.081 341.356V341.295C332.091 341.191 332.081 341.089 332.07 340.996L331.977 339.667L333.291 339.472L354.048 336.352L355.771 336.086L356.787 335.942L360.595 335.374L363.027 335.004L362.153 337.311C362.092 337.476 362.042 337.682 361.988 337.959C359.936 349.616 357.156 363.042 350.025 374.947C349.954 375.061 349.922 375.141 349.893 375.195C349.932 375.235 349.994 375.288 350.097 375.36C352.479 377.068 353.668 379.508 353.657 382.629C353.657 383.257 353.923 383.876 354.427 384.39C354.982 384.947 355.741 385.274 356.458 385.274C356.724 385.274 356.981 385.234 357.228 385.141C360.151 384.081 363.138 383.71 365.681 383.484C366.544 383.401 367.426 383.361 368.289 383.361C380.674 383.361 390.563 391.629 392.913 403.944C393.149 405.138 393.335 406.342 393.518 407.517C393.704 408.772 393.909 410.07 394.155 411.317C395.448 417.773 393.898 420.864 387.794 424.045C379.105 428.567 369.767 429.71 360.974 430.275C359.373 430.379 357.772 430.429 356.225 430.429C344.312 430.429 333.692 427.309 324.674 421.151C324.222 420.842 324.007 420.821 323.975 420.821C323.943 420.832 323.904 420.853 323.832 420.936C322.765 422.1 321.482 422.686 319.985 422.686C319.175 422.686 318.323 422.521 317.224 422.161C316.741 421.996 316.26 421.842 315.777 421.676C314.187 421.151 312.543 420.605 310.956 419.915C303.126 416.507 302.962 412.428 305.497 405.109L305.537 404.975L305.54 404.973Z" fill="#2C547B"/>
<path d="M342.267 402.185C343.574 396.283 347.17 392.364 352.046 389.348C350.67 388.37 349.779 388.575 348.586 389.524C344.757 392.56 338.602 393.378 334.71 391.399C336.248 391.079 337.515 390.835 338.772 390.549C341.835 389.857 344.661 388.695 346.944 386.467C348.4 385.046 348.806 383.354 348.22 381.461C347.894 380.413 347.249 379.369 346.207 379.044C344.998 378.666 344.94 380.09 344.433 380.717C339.851 386.399 329.454 387.634 323.719 383.134C322.757 382.379 321.924 381.506 322.102 380.242C322.306 378.782 323.499 379.039 324.623 378.944C326.132 378.818 326.19 377.211 326.262 376.259C326.341 375.213 325.093 375.735 324.459 375.78C322.197 375.94 319.994 376.453 317.901 377.329C313.208 379.293 312.452 383.129 315.99 386.737C317.496 388.271 319.397 389.291 321.463 390.796C318.941 391.304 316.981 390.762 315.194 389.768C313.953 389.076 313.502 389.445 312.954 390.552C311.124 394.225 310.554 398.087 310.891 402.128C310.97 403.093 311.283 403.908 312.182 404.393C314.889 405.859 317.543 407.487 320.694 407.849C321.574 407.949 322.261 408.358 323.014 408.701C340.193 416.538 357.991 418.211 376.374 413.885C379.721 413.098 382.85 411.737 385.883 410.112C387.554 409.218 387.962 408.061 387.787 406.281C386.551 393.622 374.163 385.615 361.107 389.128C354.149 391 348.689 395.08 344.179 400.52C343.757 401.029 343.357 401.556 342.938 402.065C342.898 402.112 342.781 402.096 342.264 402.183L342.267 402.185Z" fill="#F9FAFA"/>
<path d="M221.387 420.252C223.645 413.023 227.336 406.612 232.072 400.714C233.09 399.446 233.901 398.362 235.592 399.858C236.087 400.302 236.887 400.619 237.8 399.874C235.704 396.742 232.949 393.684 234.43 389.51C235.922 385.307 239.629 384.039 243.644 383.055C243.876 384.84 243.432 386.357 243.256 388.014C242.224 388.174 241.724 386.651 240.863 387.473C240.124 388.179 240.475 389.19 240.733 390.064C241.1 391.308 241.948 392.222 242.945 393.012C248.516 397.417 259.211 396.637 264.051 391.439C264.811 390.618 265.843 389.804 264.615 388.497C264.08 387.935 264.394 387.163 264.952 386.74C265.644 386.218 265.96 387.024 266.327 387.363C270.164 390.893 269.858 395.618 265.633 399.456C264.702 400.302 263.357 400.748 262.692 402.142C263.982 402.441 265.154 402.404 266.043 401.858C267.923 400.708 268.627 401.753 269.483 403.16C272.068 407.413 273.201 412.196 274.677 416.834C277.562 425.894 277.498 427.232 267.981 431.425C258.366 435.661 248.138 435.871 237.847 434.17C232.721 433.325 228.046 431.48 223.908 428.272C221.113 426.109 220.337 423.641 221.39 420.25L221.387 420.252ZM268.843 412.978C267.005 407.678 258.467 403.197 249.484 402.887C241.879 402.625 234.699 403.806 229.753 410.65C243.126 405.129 256.108 405.544 268.843 412.978Z" fill="#F9FAFA"/>
<path d="M310.43 406.742C308.57 411.656 309.219 413.347 313.618 415.262C314.613 415.694 315.682 415.953 316.655 416.419C319.059 417.568 321.041 417.102 322.358 414.755C323.041 413.536 323.543 413.695 324.453 414.404C337.911 424.909 353.187 426.549 369.308 423.893C374.823 422.984 380.28 421.789 385.344 419.251C389.304 417.266 389.571 416.662 388.887 411.899C387.035 412.908 385.293 414.027 383.425 414.847C372.247 419.758 360.497 420.457 348.603 419.273C339.431 418.358 330.572 416.055 322.461 411.338C322.173 411.171 321.864 410.974 321.548 410.939C317.508 410.491 313.858 408.929 310.428 406.742H310.43Z" fill="#F9FAFA"/>
<path d="M219.821 429.078C219.099 432.964 220.046 435.952 223.006 438.22C225.426 440.076 228.126 441.448 231.038 442.208C242.882 445.3 254.739 445.693 266.543 441.946C269.023 441.159 271.322 439.991 273.403 438.394C275.834 436.532 277.008 434.08 277.021 430.557C268.418 437.674 258.407 439.263 248.103 439.196C237.698 439.129 227.632 437.506 219.819 429.076L219.821 429.078Z" fill="#F9FAFA"/>
<path d="M338.503 380.348C339.89 380.114 340.67 379.2 341.272 378.303C343.79 374.578 346.617 371.132 348.35 366.813C351.037 360.095 353.444 353.336 355.055 346.295C355.626 343.797 356.086 341.264 356.482 338.724C356.527 338.435 356.683 338.061 356.746 337.711L354.014 338.119C353.991 338.214 353.975 338.308 353.954 338.408C352.823 344.944 351.156 351.349 349.024 357.632C346.678 364.557 343.742 371.203 339.711 377.347C339.156 378.2 338.49 379.053 338.503 380.343V380.348Z" fill="#F9FAFA"/>
<path d="M257.427 390.499C259.167 390.236 260.13 389.705 260.688 388.249C265.629 375.439 270.372 362.557 275.67 349.893L272.609 350.355C267.821 361.903 263.533 373.634 259.317 385.392C258.738 387.003 258.125 388.605 257.427 390.497V390.499Z" fill="#F9FAFA"/>
<path d="M149.169 172.974L152.119 171.012L152.129 171.022C172.604 157.208 193.13 143.437 215.294 132.351C217.708 131.153 220.184 130.066 222.641 128.95C222.651 128.95 222.763 128.939 222.937 128.928L223.131 128.918C223.274 128.907 223.459 128.897 223.663 128.886H223.684C231.277 128.435 278.529 125.77 311.362 126.786C347.156 127.892 388.503 138.837 388.911 138.948L392.226 140.107L396.258 141.53C396.687 141.674 396.994 142.074 397.026 142.535C397.026 142.543 397.026 142.549 397.026 142.557H397.066C397.066 142.639 397.106 143.386 397.169 144.717C397.18 144.911 397.19 145.107 397.201 145.29C397.201 145.409 397.209 145.531 397.217 145.656C397.233 146.019 397.243 146.383 397.272 146.746H397.262C398.09 166.902 400.68 255.936 385.7 331.279C385.475 332.435 385.242 333.585 385.003 334.733C384.889 335.285 384.445 335.707 383.889 335.789C382.623 335.972 381.31 336.163 379.962 336.351C370.457 337.724 359.313 339.291 352.416 340.111C323.97 343.502 298.003 346.914 274.5 350.348C267.399 351.382 260.491 352.715 253.576 353.943V353.954H253.525V353.943L189.135 344.21L189.096 342.274C187.428 258.537 160.803 198.215 150.92 178.624C150.374 177.539 149.389 175.667 148.783 174.525C148.497 173.984 148.669 173.316 149.177 172.976L149.169 172.974ZM392.573 145.105L388.654 143.731L387.64 143.373C385.543 142.83 345.699 132.46 311.227 131.394C301.987 131.108 291.572 131.118 281.227 131.283C257.24 131.68 233.613 132.937 225.707 133.391C225.707 133.391 225.707 133.391 225.707 133.393C234.057 159.544 240.022 185.631 244.259 210.202C246.734 210.038 250.009 209.833 252.413 209.712C255.032 209.579 257.632 209.454 260.24 209.364H260.25C265.458 209.189 270.655 209.099 275.845 209.099C277.145 209.099 278.463 209.12 279.784 209.16C281.113 209.2 282.445 209.263 283.785 209.354C284.367 209.385 284.952 209.446 285.524 209.518C286.096 209.59 286.66 209.672 287.224 209.783C289.167 210.162 290.335 211.525 291.707 212.827C292.014 213.113 292.31 213.41 292.607 213.718C292.914 214.015 293.21 214.312 293.507 214.619L293.518 214.63C294.111 215.245 294.685 215.871 295.246 216.515C296.382 217.806 297.468 219.158 298.5 220.564C298.54 220.614 298.612 220.625 298.654 220.596C304.886 216.139 311.638 213.392 318.924 212.358C319.835 212.225 320.775 212.132 321.707 212.061C322.024 212.029 322.342 212.01 322.657 211.989C323.282 211.957 323.915 211.928 324.54 211.907C325.562 211.886 326.565 211.886 327.558 211.896C328.429 211.907 329.379 211.978 330.351 212.09C331.323 212.204 332.316 212.366 333.266 212.541C333.902 212.663 334.524 212.798 335.117 212.93C336.364 213.217 337.582 213.556 338.789 213.935C339.199 214.068 339.597 214.192 339.996 214.336C341.982 215.012 343.915 215.812 345.797 216.743C346.544 217.112 347.28 217.501 348.019 217.902C348.019 217.902 348.019 217.912 348.029 217.912C348.755 218.323 349.483 218.753 350.198 219.193C351.273 219.869 352.326 220.588 353.359 221.346C353.42 221.386 353.473 221.396 353.502 221.357C353.523 221.346 353.534 221.325 353.542 221.296C353.634 221.081 353.735 220.866 353.838 220.63C354.166 219.933 354.564 219.145 355.035 218.273C355.885 216.695 356.753 215.229 357.675 213.856C357.992 213.405 358.299 212.954 358.617 212.525C359.21 211.716 359.867 210.997 360.603 210.364C360.817 210.178 361.032 210.006 361.257 209.841C361.717 209.513 362.199 209.237 362.7 208.972C362.874 208.89 363.047 208.807 363.232 208.715C363.846 208.457 364.471 208.232 365.104 208.028C365.657 207.853 366.208 207.71 366.761 207.577C370.497 206.686 374.476 206.021 378.691 205.578C379.877 205.456 381.066 205.342 382.242 205.231C383.428 205.117 384.617 205.016 385.803 204.923C387.113 204.812 388.432 204.708 389.743 204.626C390.791 204.544 392.109 204.467 393.161 204.406C393.732 174.673 392.888 152.128 392.568 145.115L392.573 145.105ZM294.539 230.369C290.16 235.133 286.692 240.913 284.328 247.348C281.82 254.162 280.613 261.57 280.777 269.103C280.92 275.785 282.149 282.434 284.389 288.705C286.782 295.416 290.293 301.554 294.712 306.78C298.537 311.308 302.98 315.06 307.838 317.886C312.392 320.53 317.243 322.322 322.215 323.195C328.087 324.229 334.042 323.963 339.732 322.404C346.486 320.551 352.716 316.932 357.955 311.809C361.998 307.853 365.374 303.089 367.931 297.709C370.91 291.478 372.721 284.563 373.272 277.37C374.325 263.692 370.754 249.838 363.306 238.678C359.827 233.473 355.601 228.985 350.823 225.44C346.187 222.006 341.103 219.516 335.813 218.061C333.102 217.313 330.349 216.852 327.587 216.677C325.458 216.534 323.33 216.563 321.222 216.77C318.286 217.045 315.4 217.65 312.586 218.573C305.802 220.797 299.623 224.843 294.537 230.366L294.539 230.369ZM253.867 349.017C258.828 348.136 265.172 347.11 270.076 346.384C293.978 342.849 317.388 339.692 340.288 336.926C341.238 336.812 342.202 336.69 343.174 336.568C353.732 335.359 368.959 333.585 380.868 331.957C389.298 290.359 392.263 244.32 393.089 208.078C387.802 208.354 382.099 208.784 376.489 209.375C372.97 209.743 369.634 210.327 366.462 211.138C364.723 211.578 363.393 212.286 362.461 213.248C361.633 214.11 360.783 215.237 359.933 216.629C358.532 218.904 357.314 221.158 356.3 223.372C356.25 223.475 356.279 223.597 356.361 223.669C364.783 230.894 370.831 239.93 374.503 250.782C378.914 263.816 379.332 278.11 375.321 291.277C369.692 309.773 355.429 324.836 335.826 327.93C328.561 329.078 321.267 328.359 313.96 325.777C299.758 320.673 288.686 309.556 282.435 295.938C271.129 271.972 275.027 240.402 295.9 222.746C295.932 222.725 295.94 222.674 295.911 222.642C294.1 220.357 292.114 218.093 289.967 215.85C289.149 214.988 288.402 214.301 287.727 213.789C286.867 213.124 285.434 213.113 284.116 213.063C281.405 212.949 278.733 212.898 276.083 212.898C266.814 212.93 257.634 213.288 248.569 213.964C247.669 214.025 245.969 214.129 244.936 214.129C256.152 281.665 254.431 336.966 253.869 349.017H253.867ZM193.649 340.235L249.281 348.648C249.837 336.489 251.492 281.665 240.367 214.784C231.039 217.329 201.465 225.625 177.393 234.765C185.511 262.724 192.625 298.584 193.649 340.233V340.235ZM176.493 231.71C200.904 222.459 230.83 214.089 239.84 211.634C235.617 187.002 229.652 160.817 221.259 134.581C206.514 141.61 192.516 149.92 178.857 158.712C176.207 160.393 173.578 162.113 170.959 163.877C165.434 167.607 159.887 171.346 154.311 175.097L154.301 175.108C158.952 184.176 168.148 203.796 176.495 231.71H176.493Z" fill="#2C547B"/>
<path d="M240.665 214.538C231.334 217.08 201.772 225.391 177.7 234.539C185.814 262.522 192.934 298.422 193.956 340.118L249.575 348.539C250.128 336.365 251.785 281.488 240.665 214.538Z" fill="#B4CCD9"/>
<path d="M244.39 342.448C244.889 324.778 245.103 277.513 236.267 221.306C224.92 224.486 203.165 230.837 183.777 237.932C192.581 269.618 197.62 302.415 198.768 335.55L244.388 342.448H244.39Z" fill="#2C547B"/>
<path d="M395.793 248.642C395.141 258.599 394.305 268.833 393.234 279.159C404.245 288.131 417.887 297.397 429.365 299.565C430.23 299.729 431.109 299.812 431.974 299.812C435.369 299.812 438.64 298.569 441.242 296.239C444.505 293.315 446.206 289.116 445.9 284.723C445.167 274.232 442.761 248.068 436.287 231.758C433.778 225.445 426.664 222.367 420.382 224.9C414.112 227.426 411.054 234.589 413.563 240.913C416.214 247.574 418.243 257.818 419.638 268.227C411.695 262.849 402.816 255.324 395.793 248.642Z" fill="#2C547B"/>
<path d="M203.609 309.961C207.884 309.961 212.039 307.736 214.306 303.769C217.669 297.889 215.611 290.405 209.711 287.054C197.788 280.283 184.58 269.894 175.803 262.558C185.222 254.022 199.141 243.636 208.791 236.438C210.697 235.016 212.463 233.697 214.036 232.513C219.456 228.433 220.53 220.748 216.436 215.346C212.341 209.947 204.63 208.874 199.21 212.954C197.661 214.12 195.924 215.417 194.049 216.815C181.621 226.089 164.602 238.79 154.31 249.123C150.518 252.928 148.463 258.179 148.667 263.528C148.871 268.861 151.314 273.919 155.368 277.41C164.278 285.082 181.605 299.308 197.536 308.354C199.459 309.445 201.549 309.963 203.614 309.963L203.609 309.961Z" fill="#2C547B"/>
<path d="M397.286 167.121C399.177 162.927 402.859 160.053 407.39 159.242C408.419 159.057 409.481 158.964 410.549 158.964C411.756 158.964 413.003 159.083 414.249 159.322C421.766 160.745 428.154 165.48 432.235 172.654C433.819 175.435 434.965 178.296 435.678 181.186C435.67 180.115 436.025 178.93 437.017 177.869C437.13 177.75 437.248 177.633 437.369 177.514L437.48 177.405C444.896 168.208 454.103 161.262 464.113 157.323C467.048 156.169 469.925 155.432 472.673 155.13C473.578 155.032 474.486 154.982 475.372 154.982C479.317 154.982 482.775 155.971 485.376 157.842C489.566 160.859 491.422 166.217 490.11 171.493C488.574 177.668 483.535 182.57 475.916 185.295L469.428 187.618C469.039 187.755 468.634 187.938 468.224 188.14C469.786 190.356 470.859 192.931 471.34 195.77C472.048 199.93 471.164 204.362 468.936 207.899C468.337 208.872 467.437 209.564 466.406 209.903C466.903 212.618 466.732 215.521 465.857 218.475C463.797 225.423 459.363 230.389 452.678 233.236C451.529 233.727 450.4 234.148 449.288 234.509L449.128 235.063C448.204 238.242 446.49 240.771 444.033 242.584C439.818 245.694 434.902 246.346 431.52 246.346C431.291 246.346 431.065 246.344 430.842 246.338C422.399 246.124 414.11 242.303 409.21 236.362C407.861 234.721 406.843 232.979 406.188 231.174C404.24 225.797 405.436 220.763 409.521 216.942C408.466 213.867 408.04 210.614 408.25 207.215C408.405 204.71 408.597 202.87 408.842 201.587C408.968 200.924 409.102 200.269 409.236 199.619C409.673 197.483 410.089 195.468 410.133 193.514C410.183 191.335 409.444 190.563 408.634 190.054C407.943 189.619 407.177 189.208 406.367 188.771C403.708 187.342 400.4 185.56 398.212 181.896C395.548 177.434 395.193 171.777 397.289 167.127L397.286 167.121ZM436.122 183.309C436.138 183.299 436.154 183.291 436.17 183.28L436.088 183.092C436.101 183.164 436.109 183.238 436.122 183.309Z" fill="#2C547B"/>
<path d="M465.567 184.056C466.506 183.521 467.423 183.094 468.322 182.775C470.551 181.977 472.724 181.201 474.841 180.449C479.917 178.64 484.83 175.286 486.186 169.849C487.019 166.513 486.009 163.056 483.214 161.05C480.578 159.155 476.843 158.812 473.615 159.165C471.246 159.423 468.769 160.061 466.186 161.074C456.43 164.903 447.873 171.682 441.269 179.867C441.073 180.112 440.816 180.332 440.597 180.564C440.483 180.686 440.502 180.715 440.655 180.649C443.545 179.402 446.963 178.961 450.112 179.036C454.498 179.142 458.474 180.109 462.04 181.94C463.22 182.543 464.288 183.285 465.342 184.042C465.411 184.093 465.498 184.095 465.57 184.056H465.567Z" fill="white"/>
<path d="M431.492 229.925C431.28 229.787 431.296 229.747 431.542 229.811C433.196 230.226 434.838 230.692 436.436 230.953C441.398 231.768 446.148 230.793 450.839 228.807C456.282 226.498 459.835 222.535 461.509 216.919C462.687 212.962 462.332 208.923 459.776 205.583C457.171 202.178 452.423 200.202 448.228 199.922C443.852 199.629 439.461 201.238 436.263 204.188C434.331 205.97 432.604 208.569 433.644 211.269C434.697 214.012 437.407 216.238 440.002 217.412C443.276 218.898 447.042 218.68 450.147 217.132C451.41 216.504 452.097 215.143 452.821 213.996C452.957 213.783 453.134 213.631 453.352 213.543C453.434 213.511 453.487 213.535 453.514 213.617C453.888 214.781 453.161 216.829 452.62 217.806C451.351 220.091 448.22 221.337 445.704 221.747C440.437 222.602 435.101 220.232 431.526 216.278C427.864 212.23 427.841 207.189 431.211 202.942C431.274 202.862 431.269 202.787 431.197 202.713C429.881 201.421 429.088 199.664 428.822 197.44C428.35 193.523 429.462 189.883 431.81 186.717C431.906 186.586 431.935 186.419 431.885 186.262C431.723 185.74 431.611 185.255 431.553 184.805C431.115 181.322 429.934 177.895 428.008 174.526C424.699 168.737 419.601 164.626 413.01 163.382C411.176 163.036 409.425 163.012 407.75 163.31C400.291 164.644 398.123 173.267 401.631 179.114C403.728 182.608 407.443 183.764 410.637 185.769C413.333 187.46 414.392 190.107 414.318 193.281C414.246 196.309 413.514 199.145 412.933 202.159C412.728 203.227 412.553 204.918 412.41 207.221C412.142 211.506 413.092 215.452 415.263 219.06C417.638 223.007 422.021 226.109 426.323 227.547C426.723 227.68 426.718 227.784 426.299 227.859C426.28 227.859 426.166 227.848 425.951 227.816C420.782 227.041 415.995 223.747 412.819 219.726C412.779 219.676 412.707 219.67 412.657 219.713C409.539 222.373 408.671 225.606 410.056 229.411C410.537 230.727 411.293 232.007 412.322 233.254C416.722 238.563 423.985 241.431 430.712 241.602C434.368 241.695 438.229 240.891 441.183 238.723C442.831 237.512 443.974 235.805 444.619 233.605C444.646 233.517 444.611 233.475 444.521 233.48C442.693 233.592 441.199 233.517 440.036 233.262C437.263 232.641 434.002 231.549 431.492 229.928V229.925Z" fill="white"/>
<path d="M434.12 200.063C437.447 197.378 441.199 195.838 445.373 195.435C452.772 194.724 461.226 198.276 464.774 204.989C464.824 205.085 464.879 205.088 464.936 204.997C466.592 202.408 467.218 199.211 466.707 196.264C465.83 191.184 462.474 187.435 457.647 185.635C450.89 183.116 442.737 183.451 437.073 188.216C435.784 189.299 434.825 190.465 434.193 191.712C432.912 194.228 432.705 197.378 433.837 199.998C433.9 200.146 433.994 200.167 434.122 200.068L434.12 200.063Z" fill="white"/>
<path d="M180.544 339.933C181.175 334.581 184.178 329.823 188.78 326.88C188.999 326.74 189.26 326.584 189.542 326.423C188.834 324.69 189.257 322.701 190.636 321.34L191.278 320.712C189.188 318.641 187.889 315.819 187.649 312.485C187.428 309.437 187.761 306.346 188.639 303.295C188.661 303.224 188.682 303.152 188.706 303.081C189.345 301.218 191.15 299.935 193.133 299.935C194.11 299.935 195.085 300.249 195.878 300.817L198.529 302.724C199.956 303.741 200.774 305.387 200.712 307.123C200.712 307.205 200.72 307.321 200.739 307.445H200.774C202.23 307.445 204.815 306.045 206.926 304.119C209.594 301.683 211.513 298.867 212.33 296.189C212.591 295.333 212.607 294.678 212.562 294.329C212.533 294.326 212.362 294.316 212.362 294.316C212.237 294.316 212.096 294.329 211.934 294.361C211.574 294.429 211.207 294.464 210.842 294.464C208.88 294.464 207.53 293.486 207.009 293.106C206.016 292.382 205.007 291.695 203.998 291.058C202.552 290.142 201.732 288.591 201.804 286.914C201.873 285.273 202.893 283.72 204.36 282.962C207.874 281.147 211.508 280.185 214.87 280.185C218.618 280.185 222.114 281.374 224.981 283.625C228.719 286.56 230.838 291.212 230.976 296.524C231.28 296.725 231.557 296.96 231.802 297.224C232.049 297.491 232.323 297.734 232.598 297.98C232.986 298.331 233.372 298.688 233.745 299.068C238.417 303.884 242.828 310.295 246.167 317.116C248.893 322.682 250.392 328.523 250.626 334.467C250.945 342.543 249.88 353.849 242.999 361.848C238.367 367.232 231.849 370.199 224.651 370.196C221.911 370.196 219.127 369.768 216.371 368.928C213.536 368.062 211.015 366.654 208.875 364.741C208.539 365.037 208.175 365.304 207.762 365.499C206.551 366.073 205.27 366.363 203.955 366.363C203.186 366.363 202.403 366.263 201.644 366.065C197.001 364.871 193.602 361.579 192.124 357.17C191.815 357.233 191.501 357.265 191.182 357.265C191.155 357.265 191.129 357.265 191.102 357.265C188.767 357.225 186.637 356.311 184.95 354.623C180.898 350.592 180.017 344.384 180.546 339.92L180.544 339.933Z" fill="#2C547B"/>
<path d="M220.894 312.095C220.702 312.074 220.675 311.956 220.812 311.742C221.436 310.782 222.075 309.81 222.724 308.831C224.575 306.046 225.742 303.083 226.222 299.942C226.927 295.339 225.953 290.301 222.228 287.363C217.613 283.723 211.741 284.576 206.743 287.171C206.653 287.219 206.653 287.266 206.735 287.321C207.831 288.016 208.908 288.753 209.972 289.532C210.363 289.817 210.761 290.069 211.276 289.972C211.87 289.859 212.449 289.822 213.006 289.861C217.351 290.188 217.972 294.157 216.921 297.616C215.778 301.38 213.204 304.87 210.276 307.557C207.335 310.258 201.513 313.972 197.735 310.961C196.763 310.187 196.375 308.189 196.412 307.036C196.42 306.833 196.325 306.641 196.161 306.523L193.511 304.607C193.487 304.588 193.453 304.599 193.442 304.628C192.716 307.157 192.444 309.681 192.624 312.198C192.956 316.812 196.117 319.57 200.671 319.871C204.937 320.147 209.7 318.536 213.502 316.588C213.621 316.525 213.75 316.493 213.885 316.486C214.109 316.475 214.223 316.572 214.228 316.778C214.233 317.12 213.887 317.28 213.652 317.47C211.353 319.334 208.826 320.776 206.075 321.797C206.022 321.818 205.999 321.879 206.025 321.929C206.411 322.661 206.759 323.413 207.065 324.193C207.905 326.317 209.288 328.315 210.849 329.978C211.49 330.665 212.295 331.094 213.066 331.605C213.872 332.142 214.46 332.842 214.827 333.705C214.864 333.792 214.925 333.816 215.012 333.781C219.741 331.894 225.031 333.434 227.944 337.488C231.146 341.944 232.434 348.906 228.45 353.336C226.497 355.505 223.173 356.808 220.34 355.563C219.978 355.405 219.693 355.181 219.485 354.889C219.395 354.765 219.432 354.594 219.561 354.512C219.915 354.296 220.29 354.194 220.683 354.207C222.523 354.278 224.068 353.552 225.319 352.028C227.099 349.864 227.669 347.382 227.027 344.586C226.346 341.599 224.585 339.446 221.744 338.125C217.074 335.95 213.098 339.98 211.036 343.734C209.27 346.945 208.296 350.74 208.731 354.344C208.945 356.113 209.552 357.987 210.685 359.398C211.179 360.008 211.561 360.656 212.153 361.19C213.784 362.656 215.693 363.725 217.874 364.396C225.818 366.839 233.982 365.117 239.436 358.745C244.912 352.351 246.224 342.741 245.902 334.616C245.693 329.299 244.373 324.145 241.936 319.147C239.011 313.14 235.019 307.081 230.441 302.34C229.794 301.672 229.06 301.098 228.44 300.422C228.384 300.361 228.284 300.382 228.255 300.458C226.98 304.009 225.33 307.186 222.901 310.179C222.354 310.853 221.721 311.479 221 312.061C220.966 312.09 220.921 312.103 220.876 312.098L220.894 312.095Z" fill="white"/>
<path d="M194.031 324.548C196.707 323.794 200.464 324.103 202.585 326.126C202.713 326.249 202.734 326.229 202.653 326.071C202.103 325.019 201.828 323.866 201.823 322.617C201.823 322.519 201.773 322.475 201.684 322.486C199.891 322.72 198.113 322.611 196.359 322.155C196.259 322.127 196.152 322.16 196.081 322.236L193.979 324.448C193.882 324.551 193.9 324.585 194.031 324.546V324.548Z" fill="white"/>
<path d="M191.394 352.468C191.216 345.202 195.17 336.925 201.168 332.593C201.285 332.509 201.354 332.377 201.351 332.235C201.346 331.321 200.991 330.605 200.277 330.033C197.713 327.987 193.969 329.061 191.37 330.726C187.962 332.906 185.721 336.404 185.247 340.42C184.812 344.094 185.618 348.621 188.318 351.312C189.158 352.152 190.142 352.582 191.261 352.6C191.335 352.6 191.394 352.539 191.394 352.468Z" fill="white"/>
<path d="M203.918 350.427C204.575 345.313 206.928 340.136 210.733 336.545C210.833 336.453 210.844 336.349 210.762 336.235C209.959 335.102 208.486 334.866 207.189 335.07C204.015 335.574 201.333 338.313 199.606 340.988C197.451 344.326 196.023 348.11 195.954 352.056C195.872 356.65 198.217 360.733 202.769 361.922C203.796 362.193 204.776 362.103 205.708 361.657C205.84 361.593 205.893 361.434 205.821 361.304C204.036 358.011 203.403 354.383 203.915 350.424L203.918 350.427Z" fill="white"/>
<path d="M43.0594 176.11C43.1466 175.36 43.2206 174.95 43.2206 174.95C43.5217 173.297 44.7052 171.937 46.2981 171.434C46.7472 171.293 47.2043 171.224 47.6613 171.224C48.8236 171.224 49.9622 171.674 50.8128 172.523C74.2023 195.826 90.1052 200.603 106.785 200.603C117.127 200.603 128.695 198.593 142.091 196.265C149.99 194.892 158.942 193.337 168.838 191.983C173.067 191.405 177.178 191.11 181.051 191.11C230.947 191.11 233.747 238.423 233.771 238.899C233.784 239.168 233.768 239.432 233.734 239.692C233.723 239.783 233.699 239.871 233.681 239.959C233.649 240.126 233.615 240.291 233.565 240.451C233.536 240.549 233.499 240.643 233.462 240.736C233.406 240.885 233.343 241.028 233.271 241.169C233.227 241.257 233.182 241.342 233.129 241.428C233.044 241.571 232.952 241.707 232.851 241.837C232.799 241.907 232.748 241.979 232.693 242.045C232.569 242.191 232.437 242.325 232.294 242.452C232.247 242.495 232.207 242.543 232.157 242.583C231.776 242.902 231.343 243.165 230.862 243.349C230.844 243.357 230.823 243.36 230.802 243.365C230.733 243.389 230.659 243.402 230.588 243.424C230.389 243.485 230.191 243.541 229.99 243.573C229.977 243.573 229.967 243.581 229.953 243.583C229.803 243.607 229.658 243.61 229.51 243.618C229.433 243.621 229.356 243.639 229.28 243.639C229.251 243.639 229.224 243.631 229.195 243.629C228.926 243.623 228.662 243.591 228.403 243.538C228.302 243.517 228.207 243.49 228.11 243.464C227.911 243.41 227.719 243.341 227.531 243.261C227.436 243.221 227.344 243.184 227.254 243.139C227 243.008 226.754 242.859 226.527 242.684C226.474 242.644 226.432 242.593 226.382 242.551C226.197 242.394 226.025 242.221 225.864 242.032C225.832 241.994 225.793 241.968 225.764 241.931C211.187 223.52 197.199 214.945 181.745 214.945C176.253 214.945 170.505 216.084 164.662 218.33C158.62 220.651 152.499 223.37 146.017 226.247C128.219 234.149 109.818 242.322 92.2265 242.322C82.7772 242.322 74.2023 239.879 66.7448 235.059C39.4218 217.428 42.2273 182.822 43.0621 176.102L43.0594 176.11Z" fill="#2C547B"/>
<path d="M68.7468 231.093C96.4488 248.846 131.736 225.886 162.747 214.063C193.768 202.228 215.078 221.398 229.045 238.902C229.045 238.902 226.68 188.739 169.139 196.548C111.598 204.356 90.0536 218.316 47.202 175.962C47.202 175.962 47.1464 176.276 47.0777 176.85C46.3583 182.61 43.5654 214.974 68.7468 231.096V231.093Z" fill="#FC46AA"/>
<path d="M47.295 176.847C74.2775 227.514 137.935 206.019 176.834 199.257C217.062 192.26 229.045 238.902 229.045 238.902C229.045 238.902 226.683 188.739 169.21 196.548C111.737 204.356 90.2176 218.316 47.4165 175.962C47.4165 175.962 47.3611 176.276 47.2924 176.85L47.295 176.847Z" fill="#FC72CB"/>
<path d="M326.344 166.407C328.006 165.299 330.009 164.372 332.35 163.627C335.1 162.754 337.292 162.727 339.93 163.754C345.637 165.977 348.841 171.458 348.44 177.482C348.395 178.142 348.083 179.441 347.499 181.376C350.275 177.398 349.526 171.93 347.552 167.78C345.349 163.147 341.431 160.486 336.065 161.183C332.958 161.584 330.105 162.901 327.509 165.13C326.989 165.576 326.603 166.001 326.344 166.41V166.407Z" fill="white"/>
<path d="M299.318 101.393C299.221 96.6386 296.78 92.0811 293.222 88.738C289.627 85.3588 284.993 83.3726 280.151 85.4364C278.429 86.1693 276.925 87.2465 275.632 88.6733C272.765 91.8325 273.485 96.0638 274.783 99.7175C274.797 99.7564 274.85 99.7667 274.874 99.7331C275.718 98.7542 276.737 97.9049 277.934 97.1928C281.883 94.8415 286.377 94.5877 290.751 96.0094C293.923 97.04 296.732 98.8526 299.173 101.447C299.272 101.556 299.323 101.535 299.32 101.393H299.318Z" fill="#2C547B"/>
<path d="M337 102.874C340.793 100.254 345.344 99.9268 349.839 100.9C353.832 101.765 357.37 103.534 360.456 106.205C360.498 106.242 360.554 106.258 360.607 106.253C360.74 106.24 360.807 106.173 360.807 106.056C360.807 105.322 360.695 104.678 360.469 104.122C358.138 98.4025 354.31 91.7198 347.989 89.7485C340.801 87.5059 336.824 94.8323 336.492 100.746C336.455 101.406 336.529 102.079 336.718 102.771C336.763 102.938 336.854 102.97 336.997 102.874H337Z" fill="#2C547B"/>
<path d="M360.694 194.126C359.817 195.29 358.971 196.553 358.166 197.919C358.147 197.948 358.142 197.983 358.155 198.017C358.166 198.049 358.182 198.068 358.205 198.076C358.237 198.086 358.269 198.076 358.295 198.057C360.432 196.401 362.432 194.644 364.294 192.791C364.897 192.193 365.013 191.473 364.648 190.633C364.022 189.2 362.25 188.533 360.826 188.144C358.776 187.581 356.657 187.241 354.473 187.121C354.372 187.116 354.28 187.174 354.24 187.27C354.179 187.416 354.216 187.517 354.351 187.57C356.319 188.37 358.271 189.359 360.213 190.542C360.29 190.59 360.3 190.696 360.232 190.755C359.965 190.991 359.672 191.188 359.349 191.34C334.076 203.249 304.799 199.74 279.571 189.838C278.35 189.359 276.459 188.873 275.788 187.695C275.735 187.605 275.788 187.483 275.888 187.459C278.976 186.717 282.054 185.978 285.121 185.242C286.291 184.96 287.277 184.649 288.074 184.311C288.383 184.181 288.368 184.109 288.035 184.099C287.026 184.064 285.95 184.088 284.809 184.165C280.543 184.457 276.501 184.899 272.676 185.494C271.627 185.656 270.7 185.893 269.897 186.201C268.906 186.584 267.847 187.576 268.378 188.711C269.696 191.515 271.281 194.11 273.133 196.491C273.204 196.582 273.265 196.576 273.315 196.47C273.49 196.095 273.519 195.694 273.405 195.266C273.136 194.266 272.805 193.227 272.407 192.145C272.261 191.752 272.238 191.364 272.335 190.978C272.37 190.837 272.52 190.755 272.658 190.803C273.611 191.124 274.597 191.406 275.526 191.805C285.348 196.01 295.725 198.913 306.653 200.511C320.411 202.52 334.827 202.044 348.022 198.251C350.666 197.491 353.345 196.677 356.063 195.816C357.677 195.303 359.204 194.718 360.646 194.059C360.749 194.011 360.765 194.032 360.696 194.126H360.694Z" fill="#2C547B"/>
<path d="M303.362 145.761C304.851 152.647 304.892 160.507 302.971 167.096C302.945 167.185 302.979 167.235 303.068 167.245C305.792 167.543 308.442 167.966 311.016 168.513C311.097 168.529 311.142 168.5 311.152 168.419C311.501 165.957 311.766 163.574 311.949 161.269C312.741 151.264 311.257 140.603 307.212 131.307C304.578 125.25 300.017 118.311 293.652 115.878C285.416 112.729 279.14 119.126 275.947 125.92C275.399 127.083 274.867 128.335 274.346 129.671C274.296 129.803 274.311 129.811 274.395 129.698C275.648 128.001 277.211 126.628 279.085 125.568C286.53 121.365 293.985 126.191 298.022 132.517C298.08 132.607 298.066 132.725 297.993 132.799C295.458 135.405 292.957 137.946 290.491 140.424C289.497 141.421 288.669 142.452 288.013 143.52C287.106 144.99 288.661 146.277 290.087 146.232C291.212 146.198 292.373 146.142 293.576 146.063C296.769 145.856 299.964 145.869 303.228 145.664C303.291 145.658 303.346 145.703 303.359 145.764L303.362 145.761Z" fill="white"/>
<path d="M310.072 130.684L310.287 131.213C310.952 133.003 311.434 134.346 311.71 135.241C313.79 141.816 314.845 148.573 314.895 155.522C314.917 159.226 314.638 162.747 314.055 166.093C313.88 167.11 313.637 168.026 313.337 168.84C313.305 168.921 313.337 168.971 313.419 168.992C316.083 169.603 318.828 170.356 321.335 171.546C321.703 171.72 322 171.944 322.225 172.239C322.308 172.342 322.308 172.452 322.225 172.555C322.175 172.616 322.093 172.647 322.011 172.626C319.461 172.057 316.859 171.599 314.228 171.241C299.838 169.287 284.833 169.653 270.618 173.205C270.168 173.319 269.768 173.237 269.399 172.96C268.241 172.086 267.187 171.138 266.235 170.133C266.185 170.072 266.203 169.98 266.286 169.959C267.637 169.572 269.031 169.245 270.465 168.961C270.568 168.95 270.597 168.89 270.568 168.798C268.151 161.104 267.107 153.168 267.433 144.976C267.587 141.19 268.13 137.406 269.052 133.62C269.216 132.938 269.381 132.235 269.535 131.534L269.935 130.231C269.945 130.199 269.945 130.17 269.924 130.16C270.568 128.156 271.358 126.355 271.869 125.254C271.89 125.233 271.909 125.215 271.92 125.183C272.084 124.828 272.248 124.48 272.42 124.135C276.547 115.983 284.24 109.127 294.05 112.586C299.438 114.48 303.8 119.251 306.688 124.046C306.688 124.046 308.384 127.016 310.067 130.681L310.072 130.684ZM274.114 129.657C275.383 127.958 276.96 126.584 278.855 125.525C286.384 121.312 293.91 126.147 297.996 132.477C298.057 132.569 298.036 132.69 297.964 132.761C295.404 135.376 292.874 137.911 290.375 140.392C289.37 141.39 288.541 142.427 287.876 143.496C286.953 144.96 288.53 146.253 289.974 146.203C291.111 146.171 292.28 146.121 293.496 146.04C296.721 145.837 299.96 145.848 303.256 145.642C303.317 145.632 303.37 145.674 303.389 145.734C304.894 152.633 304.937 160.501 302.989 167.094C302.968 167.186 302.999 167.236 303.092 167.247C305.848 167.542 308.519 167.968 311.132 168.508C311.215 168.529 311.254 168.497 311.265 168.416C311.612 165.954 311.89 163.563 312.073 161.262C312.871 151.237 311.366 140.573 307.279 131.263C304.616 125.199 300.007 118.258 293.576 115.817C285.249 112.663 278.9 119.074 275.675 125.87C275.121 127.039 274.58 128.293 274.055 129.625C274.005 129.757 274.024 129.767 274.106 129.657H274.114Z" fill="#2C547B"/>
<path d="M356.926 132.441C354.432 135.069 351.944 137.918 349.463 140.983C348.931 141.639 348.467 142.302 348.757 143.187C349.155 144.404 349.806 144.714 351.016 144.791C354.891 145.038 358.908 145.309 362.812 145.065C362.933 145.057 363.044 145.138 363.068 145.257C364.649 152.756 364.156 161.256 360.076 167.803C360.055 167.834 360.076 167.879 360.11 167.89C362.778 168.561 365.358 169.456 367.95 170.531C368.039 170.57 368.1 170.541 368.121 170.441C368.453 169.009 368.738 167.703 368.978 166.523C371.123 156.048 370.66 144.662 367.014 134.555C364.926 128.77 361.278 122.023 355.671 119.045C349.113 115.561 343.39 119.68 340.016 125.136C338.959 126.845 338.018 128.723 337.185 130.766C337.135 130.895 337.15 130.903 337.235 130.795C339.821 127.524 343.714 125.655 347.882 126.371C351.443 126.985 354.662 129.32 356.931 132.133C357.005 132.225 357.002 132.359 356.921 132.443L356.926 132.441Z" fill="white"/>
<path d="M372.697 161.768C372.351 164.973 371.739 168.007 370.87 170.866C370.767 171.222 370.575 171.559 370.432 171.893C370.393 171.985 370.411 172.046 370.503 172.096C372.084 172.931 373.665 173.755 374.961 174.966C375.012 175.006 375.001 175.08 374.951 175.098C374.88 175.148 374.787 175.148 374.687 175.109C367.801 172.423 360.458 170.885 352.664 170.498C352.561 170.498 352.521 170.537 352.55 170.64C354.01 176.623 352.796 183.127 347.155 186.474C343.851 188.438 339.994 188.612 336.373 187.298C334.528 186.637 333.108 185.223 332.271 183.532C332.15 183.287 332.211 183.227 332.446 183.348C333.058 183.664 333.66 183.959 334.272 184.243C336.056 185.057 337.965 185.412 339.984 185.312C343.135 185.149 345.635 183.888 347.482 181.536C350.227 177.568 349.48 172.112 347.533 167.97C345.35 163.348 341.472 160.694 336.17 161.387C333.09 161.795 330.263 163.106 327.692 165.326C327.183 165.774 326.795 166.2 326.539 166.608C326.129 167.046 325.773 167.514 325.478 168.022C325.111 168.673 324.947 168.623 325.008 167.88C325.047 167.443 325.272 166.843 325.691 166.079C326.977 163.78 328.721 161.876 330.925 160.381C331.028 160.31 331.089 160.189 331.068 160.065C330.558 155.973 330.345 152.015 330.434 148.189C330.537 143.741 331.097 139.386 332.129 135.123C332.161 134.98 332.19 134.838 332.232 134.696C332.364 134.188 332.496 133.68 332.641 133.169C332.673 133.005 332.723 132.842 332.773 132.689C333.528 130.156 334.446 128.018 335.191 126.491C335.518 125.809 335.813 125.248 336.048 124.842C336.141 124.669 336.233 124.505 336.333 124.345C336.365 124.295 336.384 124.242 336.415 124.202C336.447 124.142 336.476 124.089 336.497 124.06C336.508 124.039 336.518 124.029 336.529 124.01C339.804 118.557 345.036 113.793 351.829 114.433C359.552 115.155 365.132 122.646 368.017 129.208C368.017 129.208 369.904 134.082 370.078 134.551L370.517 136.036L370.883 137.287C371.076 138.132 371.261 138.967 371.446 139.781C373.077 147.099 373.486 154.424 372.699 161.763L372.697 161.768ZM366.732 134.788C364.641 128.998 360.988 122.251 355.38 119.278C348.81 115.787 343.077 119.91 339.701 125.364C338.64 127.073 337.703 128.955 336.867 130.991C336.816 131.123 336.835 131.133 336.917 131.023C339.509 127.755 343.404 125.882 347.585 126.596C351.146 127.218 354.369 129.548 356.644 132.366C356.715 132.458 356.715 132.589 356.633 132.671C354.134 135.307 351.645 138.146 349.156 141.219C348.625 141.869 348.166 142.533 348.451 143.417C348.85 144.639 349.502 144.945 350.716 145.026C354.593 145.271 358.61 145.545 362.527 145.3C362.648 145.29 362.751 145.371 362.783 145.492C364.364 152.992 363.876 161.489 359.785 168.033C359.764 168.065 359.785 168.115 359.816 168.115C362.49 168.786 365.079 169.681 367.671 170.761C367.764 170.801 367.824 170.772 367.846 170.669C368.173 169.244 368.468 167.93 368.703 166.751C370.854 156.278 370.387 144.892 366.734 134.786L366.732 134.788Z" fill="#2C547B"/>
<defs>
<linearGradient id="paint0_linear_4037_12769" x1="79.7941" y1="261.574" x2="445.808" y2="261.574" gradientUnits="userSpaceOnUse">
<stop stop-color="#FC46AA"/>
<stop offset="1" stop-color="#FC46AA" stop-opacity="0"/>
</linearGradient>
</defs>
</svg>
