<svg width="405" height="320" viewBox="0 0 405 320" fill="none" xmlns="http://www.w3.org/2000/svg">
<g clip-path="url(#clip0_4037_13218)">
<path d="M79.4534 164.958C75.0343 164.958 70.9027 162.232 69.3129 157.848C67.292 152.263 70.1931 146.095 75.7978 144.078C86.8904 140.089 92.7735 127.95 92.8274 127.824C95.3153 122.427 101.701 120.096 107.108 122.58C112.516 125.063 114.869 131.482 112.381 136.879C112.004 137.704 102.806 157.221 83.109 164.321C81.9054 164.76 80.6659 164.958 79.4534 164.958Z" fill="#2C547B"/>
<path d="M206.592 233.559C207.095 233.639 207.589 233.72 208.092 233.81H206.592V233.559Z" fill="#FFF200"/>
<path d="M244.082 42.5752L243.948 42.9518C243.13 45.471 242.223 48.4922 241.235 51.9976C235.72 71.5683 231.095 90.1978 227.502 109.975C227.484 110.038 227.448 110.064 227.385 110.064C218.17 109.419 209.008 109.096 199.919 109.096C197.619 109.105 195.293 109.177 192.94 109.32C191.907 109.392 190.901 109.518 189.931 109.706C188.224 110.038 187.191 111.23 185.997 112.368C183.832 114.413 181.838 116.672 180.024 119.137C179.988 119.182 179.934 119.191 179.889 119.164C174.428 115.264 168.491 112.862 162.105 111.956C159.635 111.597 156.995 111.517 154.516 111.544C152.468 111.58 149.953 111.974 147.878 112.458C142.049 113.812 136.714 116.259 131.863 119.818C131.791 119.872 131.738 119.854 131.702 119.774C131.378 119.03 130.947 118.142 130.399 117.12C129.411 115.282 128.36 113.606 127.247 112.1C126.726 111.391 126.151 110.764 125.513 110.208C124.031 108.908 122.037 108.227 120.097 107.769C116.819 106.989 113.334 106.407 109.624 106.021C106.005 105.645 102.376 105.34 98.7383 105.098C98.2084 105.062 97.6695 105.026 97.1306 104.99C97.1306 104.918 93.466 104.847 93.3941 104.784C93.3492 104.739 93.3223 104.685 93.3223 104.614C93.466 100.373 97.2204 96.2134 97.4719 92.0177C97.7593 87.2393 98.0737 82.2996 98.397 77.1984C98.9359 68.9864 99.7263 60.8371 100.777 52.7417L101.029 50.859L101.181 49.6756C101.181 49.6756 137.243 40.074 168.788 39.1058C184.488 38.6306 203.233 39.4823 218.08 40.4774C233.053 41.4636 244.082 42.5752 244.082 42.5752Z" fill="#45C8F5"/>
<path d="M218.08 40.4774C203.224 40.8091 184.497 41.2663 168.788 41.7505C140.773 42.6111 107.837 53.7368 101.118 55.4402C97.5617 82.9271 98.7383 104.99 98.7383 104.99V105.098C98.2084 105.062 94.0408 105.026 93.5019 104.99C93.5019 104.918 93.466 104.847 93.3941 104.784C93.3492 104.739 93.3223 104.685 93.3223 104.614C93.466 100.373 93.5917 96.2134 93.8432 92.0177C94.1306 87.2393 94.445 82.2996 94.7683 77.1984C95.3073 68.9864 96.0977 60.8371 97.1485 52.7417L97.4 50.859L97.5527 49.6756C97.5527 49.6756 137.243 40.074 168.788 39.1058C184.488 38.6306 203.233 39.4823 218.08 40.4774Z" fill="white"/>
<path d="M397.473 165.962C396.898 160.538 394.671 156.002 390.997 152.702C390.476 152.227 389.919 151.788 389.335 151.367C387.71 150.201 386.246 148.991 384.952 147.754C384.521 147.341 384.117 146.929 383.731 146.516C379.24 141.72 378.845 138.188 378.836 138.134C378.773 136.933 378.162 135.821 377.174 135.122C376.5 134.638 375.692 134.387 374.875 134.387C374.506 134.387 374.129 134.441 373.77 134.539C373.716 134.557 368.363 136.072 360.216 136.072C352.24 136.072 340.061 134.584 327.307 127.475C300.9 112.763 282.568 112.593 281.805 112.593C279.622 112.593 277.853 114.359 277.853 116.537V118.725L270.829 117.353C270.578 117.299 270.326 117.281 270.066 117.281C269.239 117.281 268.431 117.541 267.757 118.025C266.868 118.662 266.284 119.639 266.15 120.724L253.18 220.452C252.919 222.451 254.213 224.333 256.18 224.8L274.601 229.211L276.811 236.141C277.018 236.777 277.377 237.351 277.862 237.808C278.203 238.131 286.377 245.769 300.272 251.534C304.574 253.318 309.406 254.259 314.247 254.259C320.876 254.259 327.073 252.502 332.166 249.167C339.001 244.693 343.645 237.503 345.612 228.359C345.738 227.785 345.863 227.211 345.998 226.655C346.941 222.738 348.127 219.241 349.546 216.238C353.642 207.524 358.267 205.65 358.842 205.444C360.611 205.068 361.797 203.552 361.86 201.741C361.86 201.732 361.86 201.724 361.86 201.706C362.938 201.822 363.962 201.876 364.95 201.876C371.947 201.876 376.473 199.124 382.213 195.627L383.021 195.134C385.267 193.772 387.368 192.023 389.264 189.934C395.219 183.363 398.371 174.174 397.491 165.944L397.473 165.962Z" fill="#2C547B"/>
<path d="M387.027 154.576C384.459 152.738 382.429 150.927 380.839 149.206C375.126 143.101 374.884 138.34 374.884 138.34C374.884 138.34 351.199 145.333 325.376 130.935C299.562 116.564 281.796 116.564 281.796 116.564V123.548L270.057 121.262L257.078 220.99L277.673 225.92L280.575 234.966C280.575 234.966 288.398 242.362 301.772 247.921C309.999 251.327 321.325 251.552 329.984 245.895C332.786 244.066 335.31 241.618 337.349 238.462C339.289 235.495 340.798 231.873 341.723 227.561C342.873 222.236 344.355 217.986 345.944 214.597C348.028 210.142 350.328 207.183 352.33 205.238C352.393 205.175 352.447 205.13 352.51 205.077C355.474 202.252 357.782 201.661 357.782 201.661C336.505 195.798 326.589 184.053 326.283 183.695C364.169 202.916 368.085 199.608 380.965 191.799C382.95 190.598 384.746 189.074 386.327 187.335C394.949 177.805 396.961 161.721 387.036 154.594L387.027 154.576ZM301.592 228.942C292.089 222.836 280.916 211.487 272.581 190.338C272.913 190.903 276.138 196.273 281.59 203.283V203.301L281.617 203.31C286.08 209.057 292.035 215.888 299.113 222.074C305.535 227.695 312.882 232.77 320.885 236.006C320.885 236.006 320.553 235.997 319.933 235.934C317.418 235.674 310.188 234.473 301.583 228.933L301.592 228.942Z" fill="#FC46AA"/>
<path d="M386.308 187.308C335.031 185.228 320.885 149.609 320.885 149.609C347.758 165.648 370.195 162.546 370.195 162.546C357.225 162.51 335.507 150.004 334.834 149.618C355.68 156.548 373.168 152.021 380.83 149.215C382.428 150.927 384.458 152.738 387.027 154.585C396.952 161.712 394.949 177.796 386.317 187.317L386.308 187.308Z" fill="#FC72CB"/>
<path d="M285.048 65.0149C285.075 65.1224 284.985 65.1673 284.769 65.1673C284.67 65.1673 284.572 65.1404 284.491 65.0866C283.476 64.4859 282.47 63.8494 281.437 63.2846C277.602 61.1509 273.605 58.9276 269.446 56.6146C263.177 53.1272 256.809 49.9445 250.351 47.0668C250.288 47.0399 250.225 47.004 250.162 46.9771C249.893 46.8426 249.704 46.9143 249.605 47.1833C248.078 51.3341 246.471 56.1305 244.764 61.5812C240.938 73.8186 237.642 85.1594 233.689 99.387C233.402 100.427 233.007 101.467 232.755 102.534C232.728 102.659 232.63 102.758 232.513 102.776C232.513 102.776 232.486 102.74 232.459 102.65C236.204 84.1733 240.731 66.5748 245.779 49.2632C246.309 47.4343 246.893 45.6413 247.522 43.8841C247.548 43.8214 247.611 43.7945 247.674 43.8214C260.671 49.9804 273.012 57.278 285.048 65.0059V65.0149Z" fill="#45C8F5"/>
<path d="M114.95 120.258C115.291 122.23 115.12 124.292 114.456 126.112C113.98 127.403 113.279 128.533 112.399 129.393C111.752 130.03 111.025 130.505 110.252 130.81C109.246 131.204 108.178 131.294 107.136 131.061C106.255 130.863 105.411 130.451 104.648 129.841C103.749 129.115 102.977 128.129 102.411 126.964C102.133 124.274 102.456 121.71 103.372 119.254C104.378 116.564 106.785 114.126 109.857 114.681C111.294 114.941 112.704 116.08 113.486 117.281C113.989 118.052 114.474 119.047 114.95 120.258Z" fill="#FC46AA"/>
<path d="M143.827 208.232C143.198 207.802 142.542 207.434 141.833 207.112C140.494 206.493 139.821 206.188 139.812 206.179C129.806 200.935 122.656 191.871 119.046 181.176C115.076 169.413 115.507 156.36 120.043 144.804C124.363 133.786 132.357 124.364 143.009 119.272C146.557 117.577 150.383 116.394 154.488 115.73C156.356 115.605 158.224 115.641 160.075 115.811C162.652 116.053 165.185 116.582 167.655 117.389C173.61 119.334 179.035 122.876 183.49 127.708C187.335 131.877 190.379 136.924 192.463 142.563C194.664 148.525 195.724 155.006 195.571 161.596C195.445 167.441 194.367 173.259 192.4 178.746C190.299 184.618 187.218 189.997 183.338 194.569C179.978 198.523 176.08 201.813 171.805 204.288C167.817 206.601 163.56 208.169 159.194 208.932C154.03 209.837 148.811 209.604 143.818 208.232H143.827ZM151.228 202.602C169.155 203.759 184.829 187.101 186.23 165.388C187.64 143.675 174.248 125.144 156.32 123.987C138.393 122.831 122.719 139.488 121.318 161.201C119.908 182.915 133.3 201.446 151.228 202.602Z" fill="#45C8F5"/>
<path d="M220.575 76.3039C221.472 75.1623 221.509 73.6969 220.658 73.0309C219.807 72.3649 218.39 72.7504 217.493 73.8921C216.596 75.0337 216.559 76.4991 217.41 77.1651C218.261 77.8311 219.678 77.4455 220.575 76.3039Z" fill="white"/>
<path d="M166.461 211.182C166.461 211.182 166.497 211.218 166.506 211.227C166.569 211.262 166.578 211.352 166.506 211.397C159.59 215.888 151.964 218.937 143.854 220.111C143.351 220.183 142.839 220.272 142.327 220.371C141.833 220.47 141.33 220.55 140.818 220.622C129.896 219.376 118.983 217.959 108.097 216.364C107.845 216.328 107.693 216.202 107.639 215.978C106.902 213.064 106.265 210.169 105.726 207.282C102.771 191.396 100.732 174.855 99.3755 158.978C97.9473 142.222 97.1031 125.323 96.8516 108.289C96.8516 108.218 96.8875 108.191 96.9504 108.191C101.675 108.433 106.543 108.818 111.564 109.347C114.654 109.67 117.582 110.181 120.366 110.889C121.884 111.275 123.061 111.893 123.878 112.736C124.605 113.489 125.351 114.475 126.096 115.695C127.327 117.694 128.396 119.657 129.285 121.594C129.33 121.683 129.303 121.791 129.231 121.854C121.839 128.174 116.531 136.081 113.306 145.575C109.435 156.979 109.067 169.485 112.588 180.996C117.528 197.187 130.057 210.366 147.267 213.073C153.644 214.077 160.039 213.45 166.461 211.182ZM108.267 133.221C113.243 133.167 117.222 128.156 117.159 122.024C117.097 115.892 113.01 110.961 108.034 111.015C103.058 111.069 99.0791 116.08 99.1419 122.212C99.2048 128.344 103.292 133.275 108.267 133.221Z" fill="white"/>
<path d="M225.552 121.414C225.301 121.719 225.157 122.069 225.103 122.463C225.04 122.974 224.986 123.288 224.941 123.413C224.834 123.709 224.726 124.005 224.609 124.292C224.088 125.538 223.783 126.999 223.37 128.335C217.262 148.256 207.912 167.244 195.382 183.946C195.095 184.322 194.78 184.708 194.421 185.093C194.385 185.138 194.331 185.156 194.277 185.165C194.196 185.174 194.152 185.147 194.125 185.075C204.05 164.106 200.627 136.485 182.305 121.047C182.278 121.02 182.269 120.984 182.296 120.948C183.885 118.949 185.628 116.968 187.514 115.004C188.233 114.251 188.888 113.65 189.481 113.202C190.236 112.628 191.493 112.619 192.652 112.566C195.023 112.467 197.376 112.422 199.702 112.422C207.84 112.449 215.897 112.763 223.855 113.355C224.816 113.426 225.786 113.462 226.765 113.471C226.836 113.471 226.872 113.507 226.863 113.588L225.552 121.414Z" fill="white"/>
<path d="M114.95 120.258C114.474 119.047 113.98 118.061 113.486 117.281C112.705 116.08 111.303 114.941 109.857 114.681C106.786 114.126 104.378 116.564 103.373 119.254C102.456 121.71 102.133 124.274 102.411 126.964C101.648 125.395 101.271 123.548 101.343 121.701C101.432 119.316 102.241 117.084 103.597 115.488C104.414 114.529 105.393 113.839 106.462 113.48C108.007 112.96 109.651 113.166 111.106 114.054C112.112 114.664 112.983 115.587 113.666 116.734C114.276 117.774 114.717 118.976 114.941 120.258H114.95Z" fill="white"/>
<path d="M154.489 115.73C150.375 116.394 146.549 117.577 143.01 119.272C132.358 124.364 124.364 133.786 120.043 144.804C115.517 156.36 115.076 169.413 119.046 181.176C122.657 191.871 129.807 200.935 139.812 206.179C139.812 206.179 140.495 206.493 141.833 207.112C142.534 207.434 143.199 207.811 143.827 208.232C137.899 206.61 132.429 203.445 127.831 198.962C124.283 195.502 121.319 191.333 119.064 186.626C116.46 181.176 114.861 175.124 114.376 168.831C113.451 156.871 116.585 144.741 123.124 134.978C126.178 130.424 129.888 126.506 134.082 123.405C138.151 120.401 142.606 118.214 147.258 116.941C149.639 116.286 152.055 115.883 154.48 115.73H154.489Z" fill="white"/>
<path d="M147.388 130.196L145.625 131.465C145.106 131.839 144.989 132.561 145.363 133.079L145.426 133.167C145.801 133.685 146.525 133.802 147.044 133.428L148.807 132.159C149.326 131.785 149.443 131.063 149.069 130.545L149.006 130.457C148.631 129.939 147.907 129.822 147.388 130.196Z" fill="#FC46AA"/>
<path d="M138.832 141.873C136.829 145.118 135.185 148.686 133.91 152.595C132.572 156.683 131.628 160.583 131.09 164.285C130.838 166.025 130.605 167.764 130.407 169.503C130.353 169.96 130.236 169.978 130.048 169.557C129.994 169.44 129.949 169.234 129.904 168.938C128.53 159.256 131.503 149.233 136.497 140.967C137.817 138.78 139.488 136.592 141.518 134.405C142.865 132.952 144.544 134.71 143.305 136.09C141.401 138.206 139.91 140.133 138.841 141.873H138.832Z" fill="#FC46AA"/>
<path d="M223.001 229.605C223.1 230.071 223.172 230.537 223.181 231.021C223.181 231.057 223.163 231.075 223.127 231.075H223.073C223.073 231.075 223.055 231.075 223.055 231.057C223.01 230.573 222.983 230.08 222.992 229.605C222.992 229.587 222.992 229.587 222.992 229.605H223.001Z" fill="white"/>
<path d="M230.448 56.7311C230.448 60.0482 227.754 62.7467 224.421 62.7467C221.089 62.7467 218.395 60.0572 218.395 56.7311C218.395 53.4051 221.089 50.7155 224.421 50.7155C227.754 50.7155 230.448 53.4051 230.448 56.7311ZM220.397 55.8256C221.017 56.4263 222.266 56.1484 223.182 55.2071C224.098 54.2657 224.341 53.0106 223.712 52.4099C223.092 51.8093 221.844 52.0872 220.927 53.0285C220.011 53.9699 219.769 55.225 220.397 55.8256Z" fill="white"/>
<path d="M227.413 76.9743C227.413 80.2466 224.754 82.9002 221.476 82.9002C218.198 82.9002 215.539 80.2466 215.539 76.9743C215.539 73.702 218.198 71.0484 221.476 71.0484C224.754 71.0484 227.413 73.702 227.413 76.9743ZM217.416 77.1715C218.27 77.8349 219.68 77.4494 220.578 76.3109C221.476 75.1634 221.512 73.702 220.668 73.0386C219.814 72.3752 218.404 72.7607 217.506 73.8993C216.608 75.0468 216.572 76.5081 217.416 77.1715Z" fill="white"/>
<path d="M174.519 136.09C173.162 137.668 171.797 139.219 170.432 140.743C166.983 144.58 163.543 148.426 160.121 152.299C157.318 155.464 154.543 158.664 151.821 161.892C151.705 162.026 151.579 162.161 151.453 162.286C151.13 162.591 150.878 163.003 150.582 163.353C150.106 163.909 149.63 164.465 149.145 165.02C148.75 165.478 148.283 166.042 147.744 166.715C147.187 167.414 146.603 168.113 145.992 168.813C145.408 169.485 144.932 170.265 144.286 170.919C143.828 171.386 143.378 171.906 142.929 172.461C142.103 173.492 141.196 174.577 140.199 175.734C137.747 178.585 135.385 181.427 133.121 184.286C133.031 184.394 132.87 184.403 132.78 184.286C132.151 183.524 131.54 182.798 130.957 182.108C130.93 182.072 130.894 182.054 130.858 182.054C130.795 182.045 130.759 182.009 130.732 181.956C130.696 181.875 130.633 181.839 130.534 181.848C130.238 181.059 129.897 180.243 129.663 179.481C127.57 172.704 126.969 165.765 127.849 158.682C128.882 150.425 132.034 142.303 137.406 135.947C141.34 131.285 147.402 126.775 153.735 126.578C157.372 126.462 160.884 127.125 164.279 128.559C168.222 130.227 171.644 132.737 174.536 136.09H174.519ZM149.01 130.442C148.633 129.922 147.914 129.806 147.393 130.182L145.633 131.455C145.112 131.832 144.995 132.549 145.372 133.069L145.435 133.159C145.813 133.678 146.531 133.795 147.052 133.418L148.812 132.145C149.333 131.769 149.45 131.052 149.073 130.532L149.01 130.442ZM130.31 174.443C129.897 174.945 129.502 175.438 129.133 175.895L129.178 175.949C129.178 175.949 129.214 175.976 129.241 175.949C129.672 175.465 130.112 174.981 130.552 174.514C133.516 171.377 136.373 168.293 139.112 165.262C145.346 158.386 151.579 151.519 157.803 144.643C161.055 141.057 164.432 137.193 167.962 133.033C168.034 132.952 168.025 132.827 167.962 132.755L166.561 131.303C166.471 131.204 166.318 131.213 166.228 131.303C163.21 134.781 160.175 138.179 157.273 141.702C155.693 143.612 154.085 145.548 152.459 147.512C151.606 148.534 150.744 149.592 149.863 150.694C148.48 152.416 146.881 154.352 145.058 156.504C140.576 161.802 135.807 167.593 130.768 173.887C130.624 174.066 130.481 174.246 130.328 174.425L130.31 174.443ZM138.834 141.864C139.903 140.133 141.394 138.206 143.298 136.081C144.537 134.7 142.858 132.943 141.51 134.396C139.489 136.583 137.81 138.771 136.489 140.958C131.496 149.233 128.523 159.247 129.897 168.929C129.942 169.225 129.987 169.431 130.04 169.548C130.229 169.96 130.346 169.942 130.4 169.494C130.597 167.755 130.831 166.007 131.082 164.276C131.621 160.574 132.564 156.674 133.903 152.586C135.178 148.677 136.822 145.109 138.825 141.864H138.834Z" fill="white"/>
<path d="M148.893 175.644C148.893 175.734 148.947 175.77 149.027 175.743C149.063 175.734 149.09 175.716 149.117 175.689C155.584 169.243 162.033 162.743 168.455 156.199C169.398 155.24 170.341 154.235 171.293 153.204C173.198 151.125 175.102 149.045 177.006 146.974C177.114 146.857 177.177 146.875 177.194 147.036C178.56 158.888 175.479 171.395 168.078 180.799C161.386 189.289 150.815 194.507 140.378 189.881C137.863 188.769 135.555 187.075 133.57 185.102C133.516 185.048 133.516 184.986 133.57 184.932C137.468 180.781 141.474 176.415 145.578 171.852C146.881 170.408 148.183 168.965 149.495 167.531C155.351 161.13 163.075 152.622 172.677 141.989C173.521 141.048 174.392 140.035 175.29 138.941C175.344 138.878 175.452 138.896 175.479 138.977C175.919 140.366 176.287 141.792 176.584 143.253C176.638 143.513 176.674 143.746 176.476 143.961C173.952 146.696 171.41 149.466 168.841 152.254C166.264 155.06 163.83 158.001 161.377 160.914C160.479 161.981 159.59 163.021 158.71 164.034C155.584 167.638 152.333 171.448 148.974 175.474C148.929 175.519 148.911 175.59 148.92 175.653L148.893 175.644Z" fill="white"/>
<path d="M225.553 121.414C225.4 122.598 225.068 124.92 224.556 128.362C223.442 135.803 222.436 144.858 221.529 155.544C219.975 173.878 219.203 192.247 219.212 210.653C219.212 217.628 219.311 224.549 219.787 231.532C219.787 231.586 219.769 231.613 219.715 231.604C214.802 230.735 209.889 229.937 204.985 229.211C184.003 226.118 163.453 223.356 143.351 220.936C142.516 220.837 141.672 220.73 140.818 220.622C141.33 220.55 141.833 220.47 142.327 220.371C142.839 220.272 143.351 220.183 143.854 220.111C151.974 218.937 159.59 215.888 166.506 211.397C166.569 211.352 166.56 211.262 166.506 211.227C166.497 211.227 166.479 211.209 166.462 211.182C178.919 206.717 188.647 196.999 194.135 185.075C194.161 185.147 194.206 185.174 194.287 185.165C194.341 185.165 194.386 185.138 194.431 185.093C194.79 184.708 195.105 184.322 195.392 183.946C207.922 167.253 217.281 148.265 223.379 128.335C223.793 126.999 224.098 125.529 224.619 124.292C224.736 124.005 224.852 123.718 224.951 123.413C224.996 123.297 225.05 122.974 225.113 122.463C225.167 122.06 225.311 121.71 225.562 121.414H225.553Z" fill="white"/>
<path d="M252.336 117.299C245.025 115.112 237.884 113.148 230.905 111.409C230.878 111.409 230.861 111.382 230.87 111.355L232.459 102.668C232.486 102.749 232.504 102.794 232.513 102.794C232.63 102.776 232.729 102.677 232.756 102.552C233.007 101.485 233.402 100.445 233.69 99.4049C237.642 85.1773 240.938 73.8365 244.764 61.5991C246.471 56.1484 248.079 51.3521 249.606 47.2012C249.704 46.9233 249.893 46.8605 250.162 46.995C250.225 47.0219 250.288 47.0578 250.351 47.0847C256.809 49.9625 263.177 53.1451 269.446 56.6325C273.605 58.9455 277.602 61.1688 281.437 63.3025C282.47 63.8763 283.467 64.5038 284.491 65.1045C284.581 65.1583 284.671 65.1762 284.77 65.1852C284.985 65.1852 285.075 65.1404 285.048 65.0328C287.374 66.5031 289.692 68.0092 291.982 69.5512C296.832 72.8145 301.709 76.0867 306.604 79.3769C306.685 79.4307 306.721 79.5473 306.676 79.6369C302.078 89.2834 297.685 99.0553 293.832 108.953C291.29 115.497 289.225 122.239 287.186 128.873C287.168 128.927 287.105 128.963 287.051 128.936C287.051 128.936 268.521 122.078 252.336 117.326" fill="#2C9CD7"/>
<path d="M137.072 194.659C122.207 182.467 120.061 160.081 128.755 143.737C131.342 138.869 134.881 134.79 139.372 131.491C139.381 131.491 139.39 131.491 139.399 131.491C139.399 131.491 139.399 131.509 139.399 131.518C129.267 140.34 125.198 155.329 126.105 168.347C126.779 178.145 130.318 187.514 137.099 194.623C137.234 194.767 137.225 194.776 137.072 194.65V194.659Z" fill="#2C9CD7"/>
<path d="M130.31 174.452C130.463 174.272 130.606 174.093 130.75 173.914C135.798 167.629 140.558 161.829 145.04 156.531C146.863 154.379 148.471 152.433 149.845 150.721C150.726 149.627 151.597 148.57 152.441 147.539C154.076 145.575 155.675 143.639 157.255 141.729C160.165 138.215 163.192 134.808 166.21 131.33C166.3 131.231 166.453 131.231 166.543 131.33L167.944 132.782C168.016 132.863 168.025 132.979 167.944 133.06C164.423 137.22 161.037 141.084 157.785 144.67C151.552 151.546 145.318 158.413 139.094 165.289C136.355 168.32 133.498 171.404 130.534 174.541C130.094 175.008 129.654 175.492 129.223 175.976C129.196 176.003 129.178 176.003 129.16 175.976L129.115 175.922C129.483 175.456 129.87 174.972 130.292 174.47L130.31 174.452Z" fill="#B4CCD9"/>
<path d="M130.516 181.857C130.614 181.839 130.677 181.875 130.713 181.964C130.74 182.018 130.785 182.054 130.839 182.063C130.884 182.063 130.911 182.09 130.938 182.117C131.522 182.816 132.123 183.542 132.761 184.295C132.851 184.403 133.022 184.403 133.102 184.295C135.366 181.444 137.728 178.594 140.18 175.743C141.177 174.586 142.084 173.492 142.911 172.47C143.36 171.906 143.809 171.395 144.267 170.928C144.914 170.265 145.381 169.494 145.973 168.822C146.584 168.122 147.168 167.414 147.725 166.724C148.264 166.051 148.731 165.487 149.126 165.029C149.602 164.474 150.087 163.918 150.563 163.362C150.859 163.021 151.111 162.609 151.434 162.295C151.569 162.17 151.686 162.035 151.803 161.901C154.533 158.673 157.299 155.473 160.102 152.308C163.524 148.444 166.964 144.589 170.413 140.752C171.778 139.228 173.143 137.677 174.5 136.099C176.143 137.973 177.464 139.918 178.443 141.935C182.197 149.672 183.652 157.866 182.799 166.509C182.143 173.161 180.293 179.329 177.266 185.004C174.877 189.486 171.895 192.992 167.611 195.798C161.719 199.662 154.901 201.195 148.057 199.805C147.132 199.617 146.252 199.33 145.434 198.944C138.159 195.52 133.237 189.298 130.516 181.857ZM148.892 175.644C148.892 175.581 148.91 175.51 148.946 175.465C152.306 171.439 155.557 167.629 158.683 164.025C159.563 163.012 160.452 161.972 161.35 160.905C163.802 157.992 166.236 155.042 168.814 152.245C171.374 149.457 173.925 146.696 176.449 143.952C176.646 143.737 176.61 143.504 176.557 143.244C176.26 141.783 175.892 140.366 175.452 138.968C175.425 138.887 175.317 138.869 175.263 138.932C174.365 140.026 173.494 141.048 172.649 141.98C163.057 152.613 155.323 161.121 149.467 167.522C148.156 168.956 146.854 170.391 145.551 171.843C141.447 176.415 137.441 180.772 133.542 184.923C133.489 184.977 133.489 185.04 133.542 185.093C135.527 187.075 137.836 188.76 140.351 189.872C150.788 194.498 161.368 189.28 168.051 180.79C175.461 171.386 178.533 158.879 177.167 147.028C177.149 146.875 177.086 146.857 176.979 146.965C175.075 149.036 173.17 151.116 171.266 153.195C170.323 154.226 169.371 155.231 168.428 156.19C162.006 162.734 155.557 169.234 149.09 175.68C149.063 175.707 149.036 175.725 149 175.734C148.919 175.761 148.875 175.734 148.866 175.635L148.892 175.644Z" fill="#B4CCD9"/>
<path d="M232.54 56.6504C232.54 61.0971 228.929 64.7011 224.474 64.7011C220.019 64.7011 216.408 61.0971 216.408 56.6504C216.408 52.2037 220.019 48.5998 224.474 48.5998C228.929 48.5998 232.54 52.2037 232.54 56.6504ZM230.447 56.7311C230.447 53.414 227.752 50.7155 224.42 50.7155C221.088 50.7155 218.393 53.4051 218.393 56.7311C218.393 60.0571 221.088 62.7467 224.42 62.7467C227.752 62.7467 230.447 60.0571 230.447 56.7311Z" fill="#2C547B"/>
<path d="M229.351 76.8846C229.351 81.2686 225.786 84.8277 221.393 84.8277C217.001 84.8277 213.436 81.2686 213.436 76.8846C213.436 72.5007 217.001 68.9416 221.393 68.9416C225.786 68.9416 229.351 72.5007 229.351 76.8846ZM227.402 76.9743C227.402 73.702 224.744 71.0484 221.465 71.0484C218.187 71.0484 215.528 73.702 215.528 76.9743C215.528 80.2465 218.187 82.9002 221.465 82.9002C224.744 82.9002 227.402 80.2465 227.402 76.9743Z" fill="#2C547B"/>
<path d="M108.267 133.221C103.291 133.275 99.2042 128.344 99.1414 122.212C99.0785 116.08 103.057 111.069 108.033 111.015C113.009 110.961 117.096 115.892 117.159 122.024C117.222 128.156 113.243 133.167 108.267 133.221ZM102.42 126.964C102.986 128.129 103.749 129.115 104.656 129.841C105.42 130.451 106.264 130.863 107.144 131.061C108.186 131.285 109.255 131.204 110.261 130.81C111.033 130.505 111.761 130.03 112.408 129.393C113.288 128.533 113.988 127.412 114.464 126.112C115.129 124.292 115.3 122.23 114.958 120.258C114.734 118.976 114.303 117.774 113.683 116.734C113 115.587 112.129 114.672 111.123 114.054C109.668 113.166 108.024 112.96 106.48 113.48C105.411 113.839 104.423 114.52 103.614 115.488C102.258 117.075 101.441 119.316 101.36 121.701C101.288 123.557 101.665 125.395 102.429 126.964H102.42Z" fill="#2C547B"/>
<path d="M151.227 202.593C133.299 201.437 119.916 182.897 121.318 161.192C122.728 139.479 138.392 122.822 156.32 123.978C174.247 125.135 187.63 143.675 186.229 165.379C184.819 187.093 169.155 203.75 151.227 202.593ZM130.506 181.848C133.236 189.289 138.158 195.502 145.425 198.935C146.251 199.321 147.122 199.608 148.047 199.796C154.892 201.195 161.718 199.653 167.601 195.789C171.885 192.983 174.867 189.468 177.256 184.995C180.292 179.32 182.134 173.152 182.789 166.5C183.642 157.857 182.196 149.663 178.433 141.926C177.454 139.909 176.134 137.964 174.49 136.09C171.589 132.737 168.167 130.227 164.233 128.559C160.838 127.125 157.317 126.462 153.688 126.578C147.356 126.784 141.302 131.285 137.359 135.947C131.988 142.303 128.835 150.434 127.802 158.682C126.922 165.765 127.524 172.704 129.617 179.481C129.85 180.252 130.201 181.059 130.488 181.848H130.506ZM137.09 194.632C130.308 187.532 126.769 178.154 126.096 168.355C125.198 155.338 129.266 140.349 139.389 131.527C139.398 131.527 139.398 131.509 139.389 131.5C139.389 131.5 139.371 131.491 139.362 131.5C134.871 134.79 131.332 138.878 128.745 143.746C120.051 160.09 122.198 182.475 137.063 194.668C137.215 194.794 137.224 194.785 137.09 194.641V194.632Z" fill="#2C547B"/>
<path d="M285.776 124.624C286.612 122.248 287.429 119.872 288.246 117.488C290.752 110.226 293.267 102.955 296.195 95.8458C297.57 92.5018 299.007 89.1758 300.525 85.8946C300.722 85.4642 300.911 84.9891 301.099 84.505C282.372 71.909 254.376 56.6235 254.376 56.6235C246.858 72.5993 241.155 91.3453 236.816 110.217C237.131 110.324 237.436 110.432 237.751 110.54C239.709 111.212 241.685 111.732 243.696 112.216L285.767 124.615L285.776 124.624Z" fill="#2C547B"/>
<path d="M195.265 125.171C197.268 122.562 199.199 119.899 201.148 117.245C197.528 117.219 194.502 117.183 193.28 117.102L186.328 125.96C187.729 127.905 188.906 130.021 189.975 131.975C191.753 129.716 193.523 127.448 195.274 125.171H195.265Z" fill="#2C547B"/>
<path d="M200.242 134.154C204.823 128.667 209.853 123.288 213.841 117.299C211.227 117.29 208.191 117.281 205.254 117.272C204.662 118.07 204.078 118.877 203.494 119.675C200.225 124.113 196.865 128.47 193.443 132.791C192.841 133.553 192.231 134.315 191.629 135.077C192.662 137.058 193.641 139.058 194.512 141.102C196.407 138.78 198.32 136.467 200.242 134.154Z" fill="#2C547B"/>
<path d="M217.738 117.317C215.627 120.688 213.131 123.826 210.607 126.883C207.409 130.765 204.14 134.593 200.924 138.466C199.227 140.519 197.538 142.572 195.858 144.634C196.281 145.88 196.64 147.135 196.945 148.435C201.535 168.248 194.457 190.159 178.101 202.575C170.215 208.564 160.434 211.603 150.527 211.146C148.048 211.029 145.614 210.653 143.243 210.043C142.722 210.68 142.21 211.325 141.707 211.98C140.647 213.378 139.623 214.839 138.752 216.381L174.652 220.685C177.985 217.628 181.38 214.624 184.568 211.451C191.817 204.216 198.697 196.587 205.792 189.199C209.044 185.81 212.304 182.431 215.636 179.123C217.873 150.255 220.684 118.393 220.864 117.371C220.415 117.344 219.292 117.335 217.738 117.326V117.317Z" fill="#2C547B"/>
<path d="M139.326 209.694C139.506 209.46 139.685 209.236 139.874 209.003C138.877 208.645 137.889 208.25 136.919 207.802C136.694 207.703 136.47 207.587 136.245 207.479C134.386 210.133 132.563 212.804 130.641 215.404L135.239 215.96C136.362 213.728 137.817 211.657 139.326 209.694Z" fill="#2C547B"/>
<path d="M128.288 213.02C129.914 210.644 131.576 208.286 133.264 205.946C131.028 204.691 128.881 203.284 126.788 201.804L117.357 213.826L126.842 214.965C127.354 214.328 127.839 213.683 128.288 213.029V213.02Z" fill="#2C547B"/>
<path d="M191.961 218.757C198.113 212.347 204.715 206.421 211.128 200.271C212.188 199.258 213.239 198.236 214.29 197.205C214.577 193.081 214.9 188.697 215.242 184.188C208.155 191.351 201.257 198.711 194.323 206.027C191.009 209.523 187.73 213.055 184.227 216.364C182.503 217.995 180.733 219.591 178.955 221.196L188.566 222.352C189.688 221.142 190.82 219.941 191.961 218.757Z" fill="#2C547B"/>
<path d="M213.947 202.181C213.103 202.979 212.259 203.768 211.424 204.557C208.334 207.497 205.19 210.375 202.1 213.306C199.065 216.202 196.11 219.188 193.217 222.227C193.02 222.433 192.831 222.639 192.643 222.845L212.96 225.284C212.96 225.185 212.977 225.087 212.986 224.988C212.717 222.917 213.157 214.033 213.956 202.181H213.947Z" fill="#2C547B"/>
<path d="M352.332 205.211C350.32 207.156 348.03 210.115 345.946 214.571C344.356 217.959 342.874 222.209 341.724 227.534C340.808 231.846 339.29 235.459 337.35 238.436C331.009 238.552 325.207 237.602 319.943 235.934C320.554 235.997 320.896 236.006 320.896 236.006C312.893 232.77 305.546 227.695 299.124 222.083C292.037 215.879 286.091 209.048 281.627 203.301C310.809 233.837 320.698 228.296 320.698 228.296C304.773 224.038 293.69 202.477 293.348 201.804C317.985 231.909 346.754 209.962 352.341 205.202L352.332 205.211Z" fill="#FC72CB"/>
<path d="M254.24 303.101C254.321 308.085 252.174 311.878 247.665 314.702C242.896 317.678 237.381 319.328 230.797 319.749C228.103 319.919 225.866 320 223.756 320C218.052 320 213.355 319.39 208.971 318.064C205.54 317.024 203.026 315.912 200.816 314.469C195.84 311.151 193.882 306.534 194.843 300.349C195.059 298.941 195.22 297.489 195.373 296.081C195.741 292.656 196.127 289.124 197.439 285.691L197.574 285.341C198.813 282.096 200.097 278.743 202.109 275.721C202.63 274.941 202.549 274.816 202.361 274.52C199.648 270.271 201.822 263.87 205.424 261.404C206.214 260.857 206.349 260.606 205.864 259.387C202.936 252.287 199.1 242.909 195.337 233.29C195.229 233.003 195.095 232.716 194.951 232.447L193.783 230.242L196.253 230.618L200.133 231.201L200.825 231.299L200.843 231.335L202.801 231.595L222.301 234.186L223.244 234.312L223.387 235.253C223.486 235.934 223.711 236.75 223.926 237.539C224.088 238.14 224.25 238.714 224.357 239.26C224.941 242.102 225.588 244.989 226.217 247.786C226.756 250.18 227.312 252.663 227.824 255.111C228.076 256.312 228.318 256.671 229.567 256.922C235.037 257.979 238.647 260.786 240.3 265.259C241.162 267.572 241.234 269.616 240.516 271.508C240.255 272.18 240.282 272.548 240.992 273.346C247.297 280.607 251.06 288.013 252.497 295.965C252.65 296.807 252.929 297.641 253.225 298.52C253.71 299.936 254.213 301.406 254.24 303.101Z" fill="#2C547B"/>
<path d="M173.574 280.634C173.251 279.693 173.017 279.021 173.107 278.178C173.655 273.265 172.775 268.953 170.485 265.349C169.928 264.47 169.838 263.986 170.098 263.161C171.338 259.091 169.73 255.263 165.904 253.156C162.859 251.498 159.464 250.655 155.817 250.655H155.566C154.632 250.655 154.416 250.431 154.191 249.714C151.739 241.887 150.446 233.648 150.338 225.248V225.194C150.329 225.105 150.338 225.015 150.338 224.934L150.419 223.778L149.269 223.607L131.099 220.891L129.59 220.658L128.701 220.532L125.369 220.039L123.24 219.716L124.004 221.725C124.057 221.868 124.102 222.047 124.147 222.289C125.944 232.438 128.378 244.128 134.62 254.492C134.683 254.591 134.71 254.662 134.737 254.707C134.701 254.743 134.647 254.788 134.557 254.851C132.473 256.339 131.432 258.464 131.44 261.18C131.44 261.727 131.207 262.265 130.767 262.713C130.282 263.197 129.617 263.484 128.988 263.484C128.755 263.484 128.53 263.448 128.315 263.368C125.755 262.444 123.141 262.121 120.914 261.924C120.159 261.852 119.387 261.817 118.632 261.817C107.791 261.817 99.1328 269.016 97.076 279.738C96.8694 280.778 96.7077 281.827 96.5461 282.849C96.3844 283.942 96.2047 285.072 95.9892 286.157C94.8575 291.778 96.2137 294.467 101.558 297.238C109.166 301.173 117.339 302.168 125.036 302.662C126.438 302.751 127.839 302.796 129.195 302.796C139.623 302.796 148.919 300.08 156.814 294.718C157.209 294.449 157.398 294.432 157.425 294.432C157.452 294.441 157.488 294.458 157.551 294.53C158.485 295.543 159.608 296.054 160.919 296.054C161.628 296.054 162.374 295.911 163.335 295.597C163.757 295.454 164.179 295.319 164.601 295.176C165.994 294.718 167.431 294.243 168.823 293.643C175.676 290.675 175.82 287.125 173.601 280.751L173.565 280.634H173.574Z" fill="#2C547B"/>
<path d="M141.257 278.447C140.107 273.229 136.954 269.76 132.688 267.088C133.892 266.218 134.673 266.407 135.724 267.24C139.083 269.93 144.472 270.647 147.885 268.899C146.538 268.612 145.424 268.397 144.328 268.146C141.643 267.536 139.164 266.505 137.161 264.533C135.886 263.278 135.526 261.781 136.047 260.104C136.335 259.172 136.9 258.257 137.808 257.962C138.868 257.63 138.921 258.885 139.362 259.441C143.376 264.47 152.493 265.564 157.514 261.583C158.358 260.911 159.086 260.14 158.933 259.028C158.753 257.737 157.711 257.962 156.723 257.881C155.403 257.773 155.349 256.348 155.286 255.505C155.214 254.582 156.31 255.039 156.867 255.084C158.852 255.227 160.783 255.684 162.615 256.455C166.729 258.195 167.394 261.583 164.295 264.775C162.975 266.129 161.313 267.034 159.499 268.37C161.708 268.818 163.424 268.343 164.996 267.456C166.082 266.846 166.478 267.169 166.963 268.146C168.561 271.4 169.064 274.816 168.768 278.384C168.696 279.236 168.427 279.962 167.636 280.392C165.265 281.692 162.939 283.127 160.172 283.449C159.4 283.539 158.798 283.898 158.143 284.202C143.089 291.132 127.488 292.612 111.374 288.793C108.437 288.093 105.698 286.892 103.039 285.458C101.575 284.669 101.216 283.647 101.368 282.069C102.455 270.871 113.314 263.789 124.757 266.891C130.856 268.549 135.643 272.153 139.595 276.968C139.963 277.416 140.314 277.882 140.682 278.33C140.718 278.375 140.817 278.357 141.275 278.438L141.257 278.447Z" fill="#F9FAFA"/>
<path d="M247.414 294.163C245.438 287.771 242.213 282.105 238.073 276.896C237.183 275.775 236.474 274.816 234.992 276.143C234.561 276.537 233.86 276.815 233.061 276.152C234.893 273.382 237.3 270.683 236.007 266.989C234.704 263.278 231.462 262.157 227.95 261.288C227.743 262.866 228.139 264.201 228.291 265.672C229.19 265.815 229.63 264.47 230.384 265.196C231.031 265.824 230.725 266.712 230.501 267.483C230.178 268.585 229.441 269.392 228.57 270.091C223.702 273.982 214.352 273.292 210.121 268.702C209.456 267.976 208.558 267.258 209.627 266.102C210.094 265.609 209.825 264.927 209.331 264.551C208.729 264.094 208.45 264.802 208.127 265.098C204.768 268.218 205.037 272.395 208.738 275.784C209.555 276.528 210.732 276.923 211.307 278.16C210.184 278.42 209.151 278.393 208.379 277.909C206.735 276.896 206.124 277.819 205.37 279.056C203.115 282.813 202.118 287.044 200.834 291.141C198.31 299.147 198.373 300.331 206.681 304.033C215.088 307.781 224.025 307.96 233.016 306.463C237.498 305.719 241.584 304.087 245.195 301.254C247.638 299.344 248.321 297.166 247.396 294.163H247.414ZM205.936 287.735C207.543 283.046 215.007 279.092 222.857 278.814C229.504 278.581 235.782 279.63 240.102 285.673C228.417 280.796 217.064 281.163 205.936 287.726V287.735Z" fill="#F9FAFA"/>
<path d="M169.497 282.589C171.132 286.811 170.566 288.273 166.695 289.913C165.823 290.281 164.88 290.505 164.018 290.908C161.898 291.894 160.156 291.491 158.997 289.474C158.395 288.425 157.955 288.559 157.156 289.169C145.3 298.206 131.845 299.613 117.654 297.327C112.795 296.547 107.989 295.516 103.534 293.338C100.049 291.626 99.8069 291.114 100.418 287.017C102.052 287.887 103.579 288.846 105.223 289.555C115.067 293.777 125.414 294.378 135.896 293.365C143.98 292.576 151.776 290.595 158.925 286.542C159.177 286.399 159.455 286.229 159.725 286.202C163.282 285.816 166.497 284.471 169.515 282.589H169.497Z" fill="#F9FAFA"/>
<path d="M249.346 301.783C249.983 305.154 249.148 307.745 246.543 309.717C244.415 311.331 242.043 312.514 239.484 313.178C229.074 315.858 218.655 316.199 208.281 312.953C206.098 312.272 204.086 311.259 202.254 309.869C200.116 308.256 199.083 306.131 199.074 303.074C206.637 309.251 215.43 310.623 224.484 310.569C233.627 310.506 242.474 309.107 249.337 301.792L249.346 301.783Z" fill="#F9FAFA"/>
<path d="M144.562 259.342C143.341 259.136 142.658 258.329 142.128 257.54C139.91 254.259 137.422 251.22 135.904 247.419C133.542 241.502 131.422 235.54 130.003 229.336C129.5 227.131 129.096 224.898 128.745 222.666C128.709 222.415 128.566 222.083 128.512 221.769L130.919 222.128C130.937 222.209 130.955 222.298 130.973 222.379C131.97 228.144 133.434 233.783 135.311 239.323C137.377 245.428 139.955 251.283 143.502 256.697C143.987 257.451 144.58 258.204 144.562 259.342Z" fill="#F9FAFA"/>
<path d="M216.049 267.895C214.513 267.671 213.66 267.205 213.166 265.932C208.801 254.752 204.615 243.501 199.936 232.447L202.639 232.85C206.87 242.927 210.651 253.174 214.378 263.439C214.89 264.847 215.429 266.245 216.049 267.895Z" fill="#F9FAFA"/>
<path d="M311.104 77.4943L308.518 75.773C290.545 63.697 272.527 51.6479 253.073 41.9477C250.953 40.8988 248.779 39.9485 246.624 38.9713C246.615 38.9713 246.516 38.9623 246.363 38.9533H246.193C246.067 38.9354 245.905 38.9264 245.726 38.9175H245.708C239.043 38.523 197.565 36.1921 168.742 37.0796C137.324 38.0479 101.028 47.6226 100.669 47.7212L97.7589 48.7342L94.22 49.9804C93.8428 50.1059 93.5733 50.4555 93.5464 50.859C93.5464 50.859 93.5464 50.8679 93.5464 50.8769H93.5104C93.5104 50.9486 93.4745 51.6031 93.4206 52.7685C93.4116 52.9389 93.4027 53.1092 93.3937 53.2706C93.3937 53.3782 93.3937 53.4768 93.3757 53.5933C93.3578 53.9071 93.3488 54.2299 93.3308 54.5436H93.3398C92.6123 72.178 90.3399 150.076 103.489 215.996C103.687 217.009 103.893 218.013 104.1 219.017C104.199 219.501 104.585 219.869 105.079 219.941C106.193 220.102 107.342 220.263 108.528 220.434C116.872 221.635 126.653 223.007 132.707 223.724C157.677 226.691 180.473 229.677 201.104 232.68C207.337 233.586 213.4 234.751 219.472 235.827L219.499 235.836H219.517L276.039 227.31L276.075 225.616C277.539 152.353 300.91 99.5753 309.586 82.434C310.063 81.4837 310.934 79.8521 311.464 78.848C311.715 78.3728 311.562 77.7901 311.113 77.4943H311.104ZM97.4445 53.1182L100.885 51.9169L101.774 51.6031C103.615 51.1279 138.59 42.0553 168.85 41.1229C176.961 40.8719 186.104 40.8808 195.185 41.0243C216.238 41.3739 236.986 42.4676 243.92 42.8711C236.591 65.75 231.355 88.5751 227.636 110.073C225.463 109.93 222.588 109.751 220.478 109.643C218.178 109.527 215.897 109.419 213.607 109.338H213.598C209.026 109.186 204.463 109.105 199.909 109.105C198.769 109.105 197.61 109.123 196.451 109.159C195.284 109.195 194.116 109.249 192.939 109.329C192.427 109.356 191.915 109.41 191.412 109.473C190.909 109.536 190.415 109.607 189.921 109.706C188.215 110.038 187.191 111.23 185.987 112.368C185.718 112.619 185.458 112.879 185.197 113.148C184.928 113.408 184.667 113.668 184.407 113.937H184.398C183.877 114.484 183.374 115.031 182.88 115.596C181.883 116.726 180.931 117.909 180.023 119.137C179.988 119.182 179.925 119.191 179.889 119.164C174.419 115.264 168.491 112.862 162.096 111.956C161.296 111.84 160.47 111.759 159.653 111.696C159.374 111.669 159.096 111.651 158.817 111.633C158.269 111.606 157.713 111.58 157.165 111.562C156.267 111.544 155.386 111.544 154.515 111.553C153.752 111.562 152.916 111.624 152.063 111.723C151.21 111.822 150.339 111.965 149.503 112.117C148.946 112.225 148.398 112.342 147.878 112.458C146.782 112.709 145.713 113.005 144.653 113.337C144.294 113.453 143.943 113.561 143.593 113.686C141.851 114.278 140.153 114.977 138.5 115.793C137.845 116.116 137.198 116.457 136.551 116.806C136.551 116.806 136.551 116.815 136.542 116.815C135.905 117.174 135.267 117.55 134.638 117.936C133.695 118.527 132.77 119.155 131.863 119.818C131.809 119.854 131.764 119.863 131.737 119.827C131.719 119.818 131.71 119.801 131.701 119.774C131.62 119.585 131.531 119.397 131.441 119.191C131.153 118.581 130.803 117.891 130.39 117.129C129.644 115.748 128.881 114.466 128.073 113.265C127.794 112.871 127.525 112.476 127.246 112.1C126.725 111.391 126.15 110.764 125.504 110.208C125.315 110.047 125.127 109.894 124.929 109.751C124.525 109.464 124.103 109.222 123.662 108.989C123.51 108.917 123.357 108.845 123.195 108.765C122.657 108.54 122.109 108.343 121.552 108.164C121.067 108.011 120.582 107.886 120.097 107.769C116.818 106.989 113.324 106.407 109.624 106.021C108.582 105.914 107.54 105.815 106.507 105.716C105.465 105.618 104.423 105.528 103.381 105.447C102.232 105.349 101.073 105.259 99.9235 105.187C99.0073 105.116 97.8487 105.044 96.9235 104.99C96.4206 78.9735 97.1661 59.2503 97.4445 53.1182ZM183.499 127.717C187.344 131.885 190.389 136.942 192.463 142.572C194.664 148.534 195.724 155.015 195.58 161.605C195.454 167.45 194.376 173.268 192.409 178.755C190.308 184.627 187.227 189.997 183.347 194.569C179.988 198.532 176.089 201.813 171.823 204.288C167.826 206.601 163.569 208.169 159.204 208.931C154.048 209.837 148.821 209.604 143.827 208.241C137.899 206.618 132.429 203.454 127.83 198.971C124.282 195.511 121.318 191.342 119.073 186.635C116.459 181.185 114.869 175.133 114.384 168.84C113.459 156.871 116.594 144.75 123.133 134.987C126.186 130.433 129.896 126.506 134.09 123.404C138.159 120.401 142.623 118.223 147.267 116.95C149.647 116.295 152.063 115.892 154.488 115.739C156.356 115.614 158.225 115.641 160.075 115.82C162.653 116.062 165.186 116.591 167.656 117.398C173.61 119.343 179.036 122.885 183.499 127.717ZM219.202 231.524C214.846 230.753 209.277 229.856 204.975 229.219C183.993 226.127 163.443 223.365 143.342 220.945C142.506 220.846 141.662 220.739 140.809 220.631C131.54 219.573 118.175 218.022 107.72 216.597C100.319 180.198 97.7139 139.918 96.9954 108.209C101.639 108.451 106.642 108.827 111.564 109.347C114.654 109.67 117.582 110.181 120.366 110.889C121.893 111.275 123.061 111.893 123.878 112.736C124.606 113.489 125.351 114.475 126.097 115.695C127.327 117.685 128.396 119.657 129.285 121.594C129.33 121.683 129.303 121.791 129.231 121.854C121.839 128.174 116.531 136.081 113.306 145.575C109.435 156.979 109.067 169.485 112.588 181.005C117.528 197.187 130.049 210.366 147.258 213.073C153.635 214.077 160.039 213.45 166.452 211.191C178.919 206.726 188.637 196.999 194.125 185.084C204.05 164.115 200.628 136.494 182.305 121.047C182.278 121.029 182.269 120.984 182.305 120.957C183.895 118.958 185.637 116.977 187.523 115.013C188.242 114.26 188.898 113.659 189.49 113.211C190.245 112.628 191.502 112.619 192.661 112.575C195.041 112.476 197.385 112.431 199.712 112.431C207.849 112.458 215.906 112.772 223.864 113.364C224.654 113.417 226.145 113.507 227.052 113.507C217.208 172.596 218.717 220.981 219.211 231.524H219.202ZM272.06 223.84L223.226 231.201C222.741 220.559 221.286 172.596 231.049 114.081C239.232 116.313 265.198 123.566 286.333 131.563C279.21 156.028 272.959 187.397 272.06 223.84ZM287.123 128.891C265.692 120.796 239.429 113.471 231.516 111.329C235.226 89.7764 240.462 66.8706 247.827 43.911C260.77 50.0611 273.057 57.3318 285.048 65.0238C287.374 66.4941 289.683 68.0002 291.982 69.5422C296.832 72.8055 301.7 76.0778 306.596 79.359H306.605C302.518 87.3021 294.452 104.47 287.123 128.891Z" fill="#2C547B"/>
<path d="M231.04 114.081C239.232 116.304 265.189 123.566 286.324 131.563C279.201 156.02 272.95 187.397 272.052 223.84L223.217 231.201C222.732 220.559 221.277 172.596 231.04 114.081Z" fill="#B4CCD9"/>
<path d="M227.528 226.019C227.088 210.518 226.899 169.046 234.678 119.738C244.665 122.526 263.806 128.102 280.871 134.324C273.12 162.125 268.692 190.903 267.677 219.968L227.528 226.019Z" fill="#2C547B"/>
<path d="M263.455 197.662C259.71 197.662 256.072 195.708 254.078 192.229C251.132 187.066 252.937 180.494 258.111 177.554C268.557 171.61 280.134 162.492 287.832 156.055C279.578 148.561 267.38 139.443 258.919 133.123C257.249 131.876 255.704 130.72 254.321 129.68C249.569 126.103 248.626 119.352 252.219 114.61C255.803 109.867 262.566 108.926 267.317 112.512C268.674 113.534 270.201 114.672 271.844 115.901C282.739 124.041 297.658 135.194 306.676 144.257C309.999 147.601 311.804 152.209 311.625 156.898C311.445 161.578 309.307 166.025 305.751 169.082C297.945 175.814 282.757 188.303 268.79 196.246C267.102 197.205 265.27 197.662 263.464 197.662H263.455Z" fill="#2C547B"/>
<path d="M283.377 223.724C282.829 219.026 280.206 214.848 276.182 212.266C275.994 212.141 275.76 212.006 275.518 211.863C276.137 210.339 275.769 208.591 274.565 207.398L274.009 206.843C275.832 205.023 276.964 202.548 277.179 199.617C277.377 196.936 277.08 194.229 276.317 191.548C276.299 191.485 276.281 191.423 276.254 191.36C275.697 189.719 274.125 188.599 272.392 188.599C271.539 188.599 270.685 188.877 269.994 189.379L267.676 191.055C266.428 191.952 265.718 193.395 265.772 194.919C265.772 194.991 265.772 195.098 265.745 195.206H265.718C264.452 195.206 262.188 193.978 260.347 192.283C258.021 190.141 256.341 187.675 255.632 185.317C255.407 184.564 255.389 183.991 255.434 183.686C255.461 183.686 255.605 183.677 255.605 183.677C255.713 183.677 255.838 183.686 255.982 183.713C256.296 183.775 256.62 183.802 256.934 183.802C258.65 183.802 259.826 182.942 260.284 182.61C261.147 181.973 262.036 181.373 262.916 180.808C264.182 180.001 264.892 178.638 264.829 177.168C264.766 175.725 263.877 174.362 262.602 173.699C259.53 172.103 256.359 171.26 253.422 171.26C250.153 171.26 247.099 172.309 244.593 174.281C241.333 176.854 239.482 180.942 239.357 185.613C239.096 185.793 238.854 185.999 238.638 186.232C238.423 186.465 238.18 186.68 237.947 186.895C237.605 187.2 237.273 187.514 236.95 187.855C232.872 192.086 229.019 197.716 226.108 203.705C223.728 208.591 222.417 213.719 222.219 218.945C221.941 226.037 222.866 235.961 228.875 242.99C232.917 247.714 238.611 250.323 244.889 250.323C247.279 250.323 249.713 249.947 252.12 249.212C254.59 248.45 256.799 247.212 258.668 245.536C258.964 245.796 259.278 246.029 259.638 246.199C260.698 246.701 261.811 246.961 262.961 246.961C263.635 246.961 264.317 246.872 264.982 246.701C269.033 245.652 272.006 242.766 273.29 238.893C273.559 238.947 273.838 238.973 274.107 238.973C274.134 238.973 274.152 238.973 274.179 238.973C276.218 238.938 278.077 238.14 279.55 236.652C283.089 233.11 283.853 227.66 283.395 223.742L283.377 223.724Z" fill="#2C547B"/>
<path d="M248.267 199.249C248.438 199.231 248.465 199.124 248.339 198.935C247.791 198.084 247.225 197.232 246.66 196.371C245.034 193.915 244.001 191.306 243.579 188.536C242.959 184.475 243.812 180.037 247.1 177.446C251.16 174.237 256.333 174.99 260.734 177.276C260.815 177.321 260.815 177.356 260.734 177.41C259.773 178.02 258.821 178.674 257.887 179.356C257.546 179.607 257.195 179.831 256.737 179.741C256.216 179.642 255.704 179.607 255.21 179.642C251.384 179.929 250.836 183.426 251.761 186.474C252.767 189.791 255.031 192.866 257.608 195.233C260.195 197.609 265.324 200.89 268.647 198.236C269.5 197.555 269.842 195.789 269.815 194.776C269.815 194.596 269.887 194.426 270.039 194.318L272.375 192.633C272.375 192.633 272.429 192.633 272.438 192.651C273.075 194.883 273.318 197.106 273.156 199.321C272.869 203.391 270.084 205.821 266.069 206.081C262.315 206.323 258.12 204.906 254.77 203.185C254.662 203.131 254.555 203.104 254.429 203.095C254.231 203.086 254.133 203.167 254.124 203.355C254.124 203.66 254.42 203.794 254.627 203.965C256.647 205.605 258.875 206.878 261.3 207.775C261.345 207.793 261.372 207.847 261.345 207.891C261.004 208.537 260.698 209.2 260.429 209.891C259.692 211.764 258.471 213.522 257.097 214.992C256.531 215.592 255.821 215.978 255.147 216.426C254.438 216.901 253.917 217.52 253.594 218.273C253.558 218.345 253.504 218.372 253.432 218.345C249.273 216.677 244.612 218.04 242.052 221.608C239.232 225.535 238.1 231.676 241.603 235.576C243.327 237.485 246.246 238.633 248.743 237.539C249.058 237.396 249.309 237.198 249.498 236.947C249.579 236.84 249.543 236.687 249.426 236.616C249.112 236.427 248.788 236.338 248.438 236.347C246.821 236.409 245.456 235.764 244.36 234.428C242.797 232.519 242.294 230.331 242.86 227.866C243.462 225.23 245.007 223.338 247.513 222.173C251.627 220.254 255.13 223.805 256.944 227.113C258.498 229.946 259.36 233.29 258.974 236.463C258.785 238.023 258.246 239.673 257.249 240.919C256.818 241.457 256.477 242.031 255.956 242.497C254.519 243.788 252.839 244.729 250.917 245.321C243.92 247.472 236.735 245.957 231.938 240.336C227.115 234.697 225.965 226.234 226.244 219.071C226.424 214.382 227.591 209.846 229.738 205.435C232.316 200.137 235.828 194.802 239.86 190.625C240.426 190.033 241.073 189.531 241.621 188.93C241.666 188.877 241.756 188.894 241.783 188.966C242.905 192.095 244.36 194.892 246.498 197.537C246.983 198.128 247.54 198.684 248.169 199.195C248.196 199.222 248.24 199.231 248.276 199.231L248.267 199.249Z" fill="white"/>
<path d="M271.674 210.348C269.293 209.72 265.961 209.98 264.084 211.666C263.967 211.764 263.949 211.755 264.021 211.621C264.506 210.742 264.749 209.783 264.758 208.743C264.758 208.662 264.802 208.627 264.883 208.636C266.473 208.833 268.054 208.743 269.608 208.358C269.698 208.331 269.787 208.358 269.85 208.429L271.718 210.276C271.808 210.366 271.79 210.393 271.674 210.357V210.348Z" fill="white"/>
<path d="M273.973 234.805C274.125 228.404 270.667 221.115 265.404 217.296C265.305 217.224 265.242 217.108 265.242 216.982C265.242 216.175 265.557 215.548 266.185 215.046C268.431 213.244 271.718 214.194 273.99 215.655C276.972 217.574 278.939 220.658 279.353 224.199C279.73 227.435 279.029 231.425 276.658 233.792C275.922 234.536 275.059 234.912 274.08 234.93C274.017 234.93 273.964 234.876 273.964 234.814L273.973 234.805Z" fill="white"/>
<path d="M262.934 232.734C262.35 228.26 260.284 223.742 256.934 220.595C256.844 220.514 256.835 220.425 256.907 220.326C257.617 219.331 258.91 219.125 260.051 219.313C262.844 219.752 265.206 222.146 266.724 224.486C268.62 227.408 269.877 230.708 269.94 234.159C270.012 238.176 267.946 241.744 263.94 242.784C263.033 243.017 262.171 242.945 261.353 242.55C261.237 242.497 261.192 242.353 261.254 242.246C262.826 239.368 263.383 236.194 262.934 232.734Z" fill="white"/>
<path d="M404.57 80.5424C404.498 79.888 404.426 79.5294 404.426 79.5294C404.166 78.086 403.115 76.9026 401.723 76.4633C401.327 76.3378 400.923 76.275 400.528 76.275C399.504 76.275 398.507 76.6695 397.753 77.4046C377.175 97.7195 363.182 101.879 348.514 101.879C339.416 101.879 329.239 100.131 317.455 98.0961C310.503 96.9037 302.626 95.541 293.923 94.3666C290.204 93.8645 286.584 93.6045 283.18 93.6045C239.286 93.6045 236.816 134.844 236.798 135.265C236.789 135.498 236.798 135.732 236.834 135.956C236.843 136.036 236.861 136.108 236.879 136.189C236.906 136.332 236.942 136.476 236.978 136.619C237.005 136.7 237.041 136.789 237.068 136.87C237.121 136.996 237.175 137.121 237.238 137.247C237.274 137.327 237.319 137.399 237.364 137.471C237.436 137.596 237.517 137.713 237.607 137.829C237.651 137.892 237.696 137.955 237.75 138.009C237.858 138.134 237.975 138.251 238.101 138.367C238.145 138.403 238.181 138.448 238.217 138.484C238.55 138.762 238.936 138.995 239.358 139.156C239.376 139.156 239.394 139.156 239.412 139.174C239.475 139.192 239.538 139.21 239.6 139.228C239.771 139.282 239.951 139.327 240.13 139.362C240.139 139.362 240.148 139.362 240.166 139.362C240.301 139.38 240.427 139.389 240.562 139.389C240.633 139.389 240.696 139.407 240.768 139.407C240.795 139.407 240.822 139.407 240.84 139.407C241.074 139.407 241.307 139.371 241.541 139.327C241.63 139.309 241.711 139.282 241.801 139.264C241.972 139.219 242.142 139.156 242.313 139.084C242.394 139.049 242.475 139.022 242.555 138.977C242.78 138.86 242.996 138.735 243.193 138.582C243.238 138.547 243.274 138.502 243.319 138.466C243.481 138.331 243.633 138.179 243.777 138.018C243.804 137.982 243.84 137.964 243.867 137.928C256.693 121.88 268.998 114.404 282.597 114.404C287.429 114.404 292.486 115.399 297.623 117.353C302.94 119.379 308.321 121.746 314.024 124.256C329.679 131.141 345.874 138.269 361.349 138.269C369.666 138.269 377.202 136.135 383.768 131.939C407.803 116.573 405.342 86.4056 404.606 80.5514L404.57 80.5424Z" fill="#2C547B"/>
<path d="M381.593 128.613C357.253 144.195 326.238 124.041 298.996 113.669C271.737 103.287 253.009 120.105 240.74 135.472C240.74 135.472 242.815 91.453 293.383 98.3023C343.951 105.152 362.875 117.407 400.536 80.2377C400.536 80.2377 400.59 80.5156 400.644 81.0176C401.273 86.0739 403.734 114.475 381.602 128.622L381.593 128.613Z" fill="#FC46AA"/>
<path d="M400.635 80.9996C376.896 125.466 320.894 106.604 286.673 100.669C251.285 94.528 240.74 135.463 240.74 135.463C240.74 135.463 242.815 91.444 293.383 98.2933C343.951 105.143 362.875 117.398 400.536 80.2286C400.536 80.2286 400.59 80.5066 400.644 81.0086L400.635 80.9996Z" fill="#FC72CB"/>
<path d="M155.171 71.9718C153.725 70.9946 151.974 70.1788 149.935 69.5243C147.537 68.7533 145.624 68.7354 143.333 69.6319C138.357 71.5863 135.573 76.4005 135.914 81.6899C135.95 82.2727 136.229 83.4112 136.732 85.1146C134.316 81.6182 134.962 76.8129 136.687 73.1641C138.609 69.094 142.022 66.7541 146.702 67.3637C149.405 67.7134 151.893 68.8699 154.157 70.8332C154.606 71.2277 154.947 71.5952 155.171 71.9538V71.9718Z" fill="white"/>
<path d="M179.439 15.0434C179.52 10.785 181.64 6.7059 184.73 3.7026C187.855 0.672395 191.87 -1.10269 196.083 0.744116C197.574 1.39857 198.885 2.3668 200.008 3.64881C202.496 6.48177 201.876 10.265 200.744 13.5463C200.735 13.5821 200.69 13.5911 200.664 13.5642C199.936 12.6856 199.047 11.9236 198.005 11.2871C194.574 9.18027 190.676 8.95614 186.876 10.2292C184.119 11.1526 181.685 12.7753 179.565 15.0972C179.475 15.1958 179.439 15.1779 179.439 15.0524V15.0434Z" fill="#2C547B"/>
<path d="M146.181 16.0565C142.867 13.7704 138.888 13.4835 134.954 14.3352C131.46 15.0883 128.37 16.6303 125.667 18.9612C125.631 18.997 125.577 19.006 125.532 19.006C125.415 18.997 125.361 18.9343 125.361 18.8357C125.361 18.1991 125.46 17.6343 125.658 17.1502C127.697 12.1656 131.038 6.33833 136.571 4.61704C142.858 2.66265 146.334 9.04579 146.621 14.2097C146.657 14.7834 146.585 15.3751 146.424 15.9758C146.388 16.1192 146.307 16.1461 146.181 16.0655V16.0565Z" fill="#2C547B"/>
<path d="M125.253 95.8996C126.026 96.9127 126.771 98.0154 127.481 99.2077C127.499 99.2346 127.499 99.2615 127.49 99.2974C127.49 99.3243 127.463 99.3422 127.445 99.3512C127.418 99.3512 127.391 99.3512 127.364 99.3332C125.487 97.8899 123.726 96.3568 122.083 94.7341C121.553 94.2142 121.454 93.5866 121.768 92.8515C122.316 91.6053 123.879 91.0226 125.127 90.6819C126.933 90.1888 128.792 89.893 130.714 89.7854C130.804 89.7854 130.885 89.8302 130.921 89.9109C130.975 90.0364 130.939 90.1261 130.822 90.1709C129.088 90.8702 127.373 91.7308 125.666 92.7618C125.595 92.8066 125.595 92.8963 125.648 92.9501C125.882 93.1563 126.142 93.3266 126.421 93.4611C148.66 103.852 174.411 100.795 196.605 92.1522C197.683 91.7308 199.344 91.3095 199.928 90.2875C199.973 90.2068 199.928 90.0992 199.838 90.0813C197.126 89.4358 194.413 88.7903 191.719 88.1448C190.686 87.9027 189.824 87.6248 189.123 87.329C188.854 87.2124 188.863 87.1497 189.159 87.1407C190.048 87.1138 190.991 87.1317 191.997 87.1945C195.752 87.4455 199.308 87.831 202.668 88.351C203.593 88.4944 204.41 88.7006 205.111 88.9696C205.982 89.3013 206.916 90.1709 206.449 91.1571C205.29 93.6045 203.898 95.8727 202.263 97.9436C202.201 98.0243 202.147 98.0154 202.102 97.9257C201.949 97.603 201.922 97.2444 202.021 96.8768C202.254 96.0072 202.551 95.1017 202.901 94.1514C203.027 93.8107 203.045 93.4701 202.964 93.1384C202.937 93.0128 202.802 92.9411 202.677 92.9859C201.841 93.2639 200.97 93.5149 200.153 93.8556C191.512 97.5223 182.387 100.059 172.767 101.449C160.66 103.206 147.977 102.785 136.373 99.4767C134.046 98.8133 131.693 98.105 129.295 97.3519C127.876 96.9037 126.529 96.3927 125.262 95.8189C125.172 95.7741 125.154 95.792 125.217 95.8727L125.253 95.8996Z" fill="#2C547B"/>
<path d="M175.533 53.7995C174.213 59.8689 174.177 66.8079 175.874 72.6173C175.901 72.6979 175.874 72.7428 175.784 72.7517C173.368 73.0117 171.024 73.3883 168.734 73.8724C168.662 73.8903 168.626 73.8634 168.608 73.7917C168.303 71.6221 168.06 69.5153 167.898 67.4892C167.198 58.6676 168.509 49.2632 172.093 41.0601C174.428 35.7169 178.47 29.6027 184.12 27.4511C191.422 24.6719 196.982 30.3199 199.82 36.3086C200.305 37.3307 200.781 38.4423 201.239 39.6167C201.284 39.7333 201.266 39.7423 201.194 39.6436C200.08 38.1465 198.697 36.9362 197.035 36.0038C190.434 32.3012 183.823 36.5507 180.248 42.1359C180.195 42.2166 180.213 42.3152 180.275 42.387C182.521 44.691 184.739 46.9233 186.922 49.1108C187.802 49.9894 188.539 50.9038 189.122 51.8451C189.922 53.1451 188.548 54.2747 187.281 54.2388C186.284 54.2119 185.251 54.1581 184.191 54.0954C181.362 53.9161 178.524 53.925 175.632 53.7457C175.578 53.7457 175.524 53.7816 175.515 53.8354L175.533 53.7995Z" fill="white"/>
<path d="M169.676 40.5312L169.488 40.9974C168.904 42.5752 168.482 43.7586 168.239 44.5475C166.416 50.339 165.491 56.2918 165.446 62.415C165.428 65.6783 165.67 68.7802 166.182 71.7297C166.335 72.6262 166.551 73.4331 166.811 74.1503C166.838 74.222 166.811 74.2668 166.739 74.2848C164.404 74.8227 161.997 75.4861 159.796 76.535C159.473 76.6874 159.212 76.8846 159.015 77.1446C158.943 77.2343 158.943 77.3329 159.015 77.4225C159.06 77.4763 159.132 77.5032 159.203 77.4853C161.44 76.9832 163.721 76.5798 166.03 76.266C178.649 74.5447 191.808 74.8675 204.274 77.9963C204.67 78.0949 205.02 78.0232 205.343 77.7811C206.358 77.0101 207.283 76.1764 208.119 75.2888C208.163 75.2351 208.145 75.1544 208.074 75.1364C206.888 74.7958 205.666 74.5089 204.409 74.2579C204.319 74.2489 204.292 74.1951 204.319 74.1144C206.439 67.3368 207.355 60.344 207.068 53.1271C206.933 49.7921 206.457 46.4571 205.649 43.1221C205.505 42.5214 205.361 41.9028 205.226 41.2843L204.876 40.1367C204.876 40.1367 204.867 40.0829 204.885 40.074C204.319 38.3078 203.628 36.721 203.179 35.7528C203.161 35.7349 203.143 35.7169 203.134 35.69C202.99 35.3763 202.846 35.0714 202.694 34.7666C199.074 27.5856 192.328 21.5431 183.724 24.5912C178.999 26.2588 175.173 30.4634 172.64 34.6859C172.64 34.6859 171.149 37.3037 169.676 40.5312ZM201.212 39.6257C200.098 38.1285 198.715 36.9182 197.053 35.9859C190.451 32.2743 183.85 36.5328 180.266 42.109C180.212 42.1897 180.23 42.2973 180.293 42.3601C182.538 44.6641 184.757 46.8964 186.948 49.0839C187.829 49.9625 188.556 50.8769 189.14 51.8182C189.948 53.1092 188.565 54.2478 187.299 54.2029C186.302 54.1761 185.278 54.1312 184.209 54.0595C181.38 53.8802 178.541 53.8892 175.649 53.7099C175.595 53.7009 175.55 53.7368 175.532 53.7906C174.212 59.8689 174.176 66.7989 175.883 72.6083C175.901 72.689 175.874 72.7338 175.793 72.7428C173.377 73.0027 171.033 73.3793 168.742 73.8544C168.67 73.8724 168.634 73.8455 168.625 73.7737C168.32 71.6042 168.078 69.4974 167.916 67.4713C167.215 58.6407 168.536 49.2453 172.119 41.0422C174.455 35.699 178.496 29.5848 184.137 27.4332C191.439 24.654 197.008 30.302 199.837 36.2907C200.322 37.3217 200.798 38.4244 201.256 39.5988C201.301 39.7154 201.283 39.7243 201.212 39.6257Z" fill="#2C547B"/>
<path d="M128.683 42.0732C130.884 44.3862 133.076 46.8964 135.258 49.5949C135.725 50.1776 136.138 50.7603 135.878 51.5313C135.528 52.6072 134.953 52.8761 133.884 52.9478C130.471 53.163 126.923 53.4051 123.483 53.1899C123.375 53.1899 123.276 53.2526 123.258 53.3602C121.866 59.9675 122.297 67.4534 125.899 73.2179C125.917 73.2448 125.899 73.2896 125.872 73.2896C123.519 73.8813 121.246 74.6702 118.956 75.6116C118.875 75.6474 118.821 75.6116 118.803 75.5309C118.516 74.2668 118.256 73.1193 118.049 72.0793C116.154 62.8543 116.567 52.8223 119.782 43.92C121.624 38.8278 124.839 32.884 129.779 30.2572C135.564 27.1911 140.611 30.813 143.584 35.6273C144.518 37.1334 145.345 38.783 146.081 40.585C146.126 40.7015 146.108 40.7105 146.036 40.6119C143.755 37.7341 140.324 36.0845 136.65 36.712C133.507 37.25 130.677 39.3119 128.674 41.7863C128.612 41.867 128.612 41.9835 128.683 42.0642V42.0732Z" fill="white"/>
<path d="M114.528 67.7044C114.834 70.5284 115.373 73.2 116.136 75.7192C116.226 76.0329 116.396 76.3288 116.522 76.6246C116.558 76.7053 116.54 76.7591 116.459 76.8039C115.067 77.5391 113.675 78.2653 112.534 79.3321C112.489 79.368 112.498 79.4307 112.534 79.4486C112.597 79.4935 112.678 79.4935 112.768 79.4576C118.831 77.0908 125.298 75.7371 132.16 75.3964C132.249 75.3964 132.285 75.4323 132.258 75.5219C130.974 80.7934 132.043 86.5221 137.01 89.4716C139.92 91.2019 143.315 91.3543 146.504 90.1978C148.129 89.6151 149.378 88.3689 150.114 86.8807C150.222 86.6655 150.168 86.6118 149.962 86.7193C149.423 86.9973 148.893 87.2572 148.354 87.5083C146.782 88.2255 145.102 88.5393 143.324 88.4496C140.549 88.3062 138.348 87.1945 136.722 85.1235C134.306 81.6272 134.962 76.8219 136.677 73.1731C138.6 69.1029 142.013 66.763 146.683 67.3727C149.396 67.7313 151.884 68.8878 154.147 70.8422C154.596 71.2366 154.938 71.6132 155.162 71.9718C155.521 72.3573 155.836 72.7697 156.096 73.2179C156.42 73.7917 156.563 73.7468 156.509 73.0924C156.473 72.7069 156.276 72.178 155.908 71.5056C154.776 69.4795 153.24 67.803 151.3 66.4851C151.21 66.4224 151.156 66.3148 151.174 66.2072C151.623 62.6032 151.812 59.1158 151.731 55.7449C151.641 51.8272 151.147 47.9901 150.24 44.2338C150.213 44.1083 150.186 43.9827 150.15 43.8572C150.033 43.409 149.917 42.9607 149.791 42.5125C149.764 42.369 149.719 42.2256 149.674 42.0911C149.01 39.8588 148.201 37.9761 147.546 36.6314C147.258 36.0307 146.998 35.5376 146.791 35.179C146.71 35.0266 146.629 34.8832 146.54 34.7397C146.513 34.6949 146.495 34.6501 146.468 34.6142C146.441 34.5604 146.414 34.5156 146.396 34.4887C146.387 34.4708 146.378 34.4618 146.369 34.4439C143.486 29.6386 138.878 25.4429 132.896 26.0077C126.097 26.6443 121.184 33.2426 118.642 39.025C118.642 39.025 116.98 43.3193 116.828 43.7317L116.441 45.0406L116.118 46.1433C115.947 46.8874 115.786 47.6226 115.624 48.3398C114.187 54.7857 113.828 61.2405 114.519 67.7044H114.528ZM119.783 43.9379C121.624 38.8368 124.839 32.8929 129.779 30.2751C135.564 27.2001 140.612 30.831 143.585 35.6362C144.519 37.1424 145.345 38.8009 146.081 40.5939C146.126 40.7105 146.108 40.7195 146.037 40.6208C143.755 37.743 140.324 36.0935 136.642 36.721C133.507 37.2679 130.669 39.3209 128.666 41.8042C128.603 41.8849 128.603 42.0015 128.675 42.0732C130.875 44.3951 133.067 46.8964 135.258 49.6039C135.725 50.1776 136.13 50.7604 135.878 51.5403C135.528 52.6161 134.953 52.8851 133.884 52.9568C130.471 53.172 126.932 53.414 123.483 53.1989C123.375 53.1899 123.286 53.2616 123.259 53.3692C121.866 59.9765 122.298 67.4623 125.899 73.2269C125.917 73.2538 125.899 73.2986 125.872 73.2986C123.519 73.8903 121.238 74.6792 118.956 75.6295C118.875 75.6654 118.822 75.6295 118.804 75.5488C118.516 74.2937 118.256 73.1372 118.049 72.0973C116.154 62.8722 116.567 52.8403 119.783 43.9379Z" fill="#2C547B"/>
<path d="M123.573 204.225C123.546 203.669 123.519 203.113 123.492 202.557C123.483 202.279 123.474 202.001 123.465 201.724C123.447 201.437 123.447 201.159 123.438 200.881C123.411 200.029 123.375 199.186 123.312 198.353C123.312 198.29 123.312 198.227 123.294 198.164C123.267 197.797 123.24 197.429 123.204 197.062C123.204 196.99 123.204 196.918 123.186 196.855C123.151 196.47 123.115 196.084 123.07 195.699C123.07 195.645 123.061 195.591 123.052 195.538C123.007 195.134 122.953 194.731 122.899 194.327C122.845 193.897 122.782 193.467 122.71 193.045C122.639 192.615 122.567 192.194 122.495 191.763C122.423 191.342 122.342 190.921 122.252 190.499C122.163 190.078 122.082 189.657 121.983 189.235C121.893 188.85 121.803 188.455 121.704 188.07C121.642 187.783 121.57 187.505 121.498 187.236C121.435 186.967 121.363 186.698 121.282 186.438C121.201 186.133 121.112 185.828 121.022 185.524C120.914 185.138 120.797 184.762 120.672 184.376C120.411 183.542 120.133 182.726 119.836 181.911C119.693 181.507 119.54 181.113 119.387 180.727C119.234 180.333 119.082 179.938 118.92 179.553C118.606 178.773 118.264 178.002 117.914 177.249C117.743 176.881 117.573 176.523 117.402 176.164C116.666 174.64 115.857 173.152 114.995 171.708C114.806 171.386 114.609 171.063 114.411 170.749C114.366 170.668 114.312 170.588 114.259 170.507C114.07 170.202 113.872 169.897 113.675 169.593C113.477 169.288 113.279 168.983 113.073 168.687C112.507 167.835 111.914 167.011 111.295 166.195C111.124 165.971 110.962 165.756 110.792 165.54C110.495 165.155 110.19 164.769 109.875 164.393C109.714 164.187 109.543 163.98 109.372 163.783C109.049 163.389 108.717 163.003 108.384 162.627C108.124 162.331 107.854 162.035 107.585 161.739C107.307 161.434 107.028 161.13 106.741 160.834C106.525 160.61 106.31 160.385 106.094 160.161C105.878 159.937 105.663 159.722 105.438 159.507C105.106 159.184 104.774 158.861 104.441 158.548C104.432 158.548 104.432 158.53 104.423 158.53C104.307 158.422 104.199 158.315 104.091 158.216C104.01 158.135 103.929 158.064 103.849 157.992C103.669 157.83 103.498 157.678 103.328 157.517C103.238 157.436 103.148 157.355 103.058 157.275C102.995 157.221 102.932 157.167 102.87 157.122C102.816 157.068 102.771 157.024 102.717 156.988C102.555 156.844 102.394 156.701 102.232 156.566C101.9 156.279 101.567 156.002 101.226 155.724C101.001 155.544 100.768 155.356 100.543 155.177C100.471 155.114 100.391 155.051 100.31 154.989C100.211 154.908 100.103 154.827 99.9954 154.746C99.8696 154.648 99.7439 154.549 99.6181 154.46C99.5193 154.379 99.4205 154.307 99.3217 154.226C99.0612 154.029 98.8008 153.832 98.5313 153.644C98.3786 153.536 98.2259 153.429 98.0822 153.321C98.0373 153.294 98.0014 153.258 97.9565 153.231C97.6241 152.989 97.2918 152.756 96.9505 152.532C96.8427 152.451 96.7349 152.38 96.6182 152.308C96.3487 152.12 96.0793 151.949 95.8008 151.77C95.747 151.734 95.6841 151.698 95.6302 151.653C95.5314 151.591 95.4326 151.528 95.3248 151.465L95.3068 151.447C95.3068 151.447 95.2529 151.411 95.226 151.393C95.1541 151.358 95.0913 151.313 95.0284 151.277C94.8308 151.151 94.6332 151.026 94.4356 150.909C94.229 150.775 94.0135 150.649 93.8069 150.533C93.6632 150.443 93.5194 150.354 93.3668 150.273C93.1153 150.12 92.8638 149.977 92.6033 149.834C92.5135 149.78 92.4147 149.726 92.3159 149.672C92.2081 149.609 92.1003 149.556 91.9925 149.493C91.265 149.089 90.5195 148.704 89.774 148.336C89.4956 148.193 89.2172 148.058 88.9297 147.924H88.9208C88.8309 147.879 88.7321 147.834 88.6423 147.79C88.4986 147.718 88.3549 147.655 88.2112 147.592C88.1842 147.574 88.1573 147.565 88.1304 147.556C88.1034 147.547 88.0854 147.53 88.0585 147.521C87.8609 147.431 87.6633 147.341 87.4657 147.252C87.3489 147.198 87.2411 147.144 87.1244 147.099C87.0346 147.063 86.9447 147.019 86.8549 146.983C86.4418 146.803 86.0286 146.633 85.6065 146.463C85.5526 146.445 85.4987 146.418 85.4448 146.4C85.4268 146.391 85.4178 146.391 85.3999 146.382C85.2472 146.319 85.0855 146.248 84.9328 146.194C84.9149 146.185 84.8969 146.176 84.8789 146.176C84.825 146.149 84.7711 146.122 84.7173 146.104C84.5646 146.05 84.4209 145.997 84.2771 145.943C84.1783 145.898 84.0885 145.862 83.9897 145.835C83.7831 145.754 83.5676 145.683 83.352 145.602C83.1095 145.512 82.876 145.432 82.6335 145.351C82.3281 145.243 82.0227 145.136 81.7083 145.037C81.6724 145.019 81.6275 145.01 81.5916 145.001C81.4119 144.939 81.2323 144.885 81.0527 144.831C80.6664 144.706 80.2802 144.589 79.885 144.472C79.876 144.472 79.8581 144.463 79.8401 144.463C79.6066 144.392 79.3731 144.329 79.1485 144.266C78.6815 144.132 78.2144 144.006 77.7384 143.89C77.3791 143.8 77.0288 143.71 76.6695 143.63C76.6695 143.63 76.6516 143.621 76.6426 143.621C76.4899 143.594 76.3462 143.558 76.1935 143.522C75.9869 143.477 75.7893 143.432 75.5827 143.388C75.5288 143.37 75.4749 143.361 75.4211 143.352C75.2324 143.307 75.0438 143.271 74.8462 143.235C74.5768 143.173 74.3073 143.119 74.0378 143.083C73.939 143.056 73.8402 143.038 73.7325 143.02C73.5169 142.984 73.3013 142.939 73.0858 142.913C72.7175 142.841 72.3493 142.787 71.972 142.733C71.6666 142.679 71.3613 142.635 71.0469 142.599C70.7415 142.554 70.4451 142.518 70.1397 142.482C69.7355 142.428 69.3314 142.393 68.9272 142.348C68.4242 142.294 67.9212 142.249 67.4182 142.213C67.032 142.186 66.6548 142.159 66.2686 142.142C65.9542 142.124 65.6309 142.106 65.3165 142.097C64.9572 142.079 64.5979 142.07 64.2387 142.061C63.7716 142.052 63.2956 142.043 62.8285 142.043C29.9011 142.043 3.10829 168.239 2.22807 200.881C2.19214 202.001 2.13825 203.113 2.08436 204.225C2.03945 205.023 2.02148 205.821 2.02148 206.627C2.02148 207.031 2.03047 207.443 2.03945 207.847C2.04843 208.358 2.07538 208.869 2.10232 209.389V209.407C2.12927 209.918 2.16519 210.438 2.2101 210.958C2.29992 211.998 2.42567 213.055 2.56938 214.113C2.62327 214.535 2.68614 214.956 2.75799 215.386C2.8029 215.655 2.84781 215.924 2.89272 216.202C2.94661 216.507 3.0005 216.821 3.06338 217.135C3.06338 217.161 3.07236 217.188 3.08134 217.224C3.28792 218.318 3.52145 219.43 3.79091 220.541C3.88971 220.972 3.99749 221.411 4.11425 221.841C4.3388 222.711 4.58131 223.58 4.8328 224.459C5.0304 225.122 5.228 225.795 5.44356 226.458C5.50644 226.673 5.56931 226.889 5.64116 227.104C5.88367 227.839 6.13517 228.583 6.39564 229.327C6.44055 229.462 6.48546 229.596 6.53935 229.73C6.69204 230.17 6.85371 230.609 7.01539 231.048C7.698 232.877 8.43452 234.715 9.21594 236.553C9.38659 236.929 9.54826 237.306 9.71892 237.691C9.90754 238.131 10.1051 238.57 10.3117 239.018C10.5902 239.637 10.8776 240.264 11.174 240.883C11.4165 241.394 11.659 241.914 11.9105 242.425C13.7697 246.253 15.8176 250.063 18.0002 253.82C18.4223 254.546 18.8534 255.272 19.2846 255.998C19.3564 256.124 19.4283 256.24 19.5091 256.366C19.9672 257.137 20.4342 257.908 20.9103 258.67C21.1708 259.1 21.4312 259.521 21.7007 259.943C22.2127 260.759 22.7246 261.574 23.2456 262.381C24.0809 263.672 24.9162 264.954 25.7695 266.218C26.2365 266.927 26.7126 267.626 27.1886 268.316C27.2784 268.451 27.3682 268.576 27.458 268.711C27.7275 269.105 27.997 269.491 28.2664 269.876C29.1107 271.086 29.946 272.279 30.7903 273.453C31.0777 273.848 31.3562 274.242 31.6436 274.628C32.4879 275.793 33.3322 276.95 34.1765 278.079C34.4549 278.456 34.7423 278.832 35.0208 279.2C35.2902 279.576 35.5776 279.953 35.865 280.32C36.1435 280.688 36.4219 281.056 36.7004 281.414C36.9788 281.791 37.2752 282.167 37.5626 282.544C38.1105 283.252 38.6584 283.951 39.1973 284.633C39.4668 284.982 39.7452 285.332 40.0236 285.682C40.2931 286.031 40.5715 286.372 40.841 286.713C44.6403 291.482 48.242 295.749 51.3946 299.362C51.6192 299.604 51.8258 299.846 52.0234 300.08C52.2838 300.366 52.5353 300.653 52.7868 300.94C54.9694 303.406 56.8915 305.512 58.4544 307.198C58.7238 307.476 58.9753 307.745 59.2088 308.005C59.9274 308.776 60.5561 309.43 61.0771 309.977C61.3286 310.246 61.5621 310.488 61.7597 310.694C62.0202 310.963 62.2357 311.187 62.3974 311.358C62.4603 311.411 62.5052 311.465 62.5501 311.51C62.7297 311.689 62.8285 311.788 62.8285 311.788C62.8285 311.788 125.89 248.387 123.573 204.225ZM62.8285 175.886C77.5857 175.886 89.5495 187.828 89.5495 202.557C89.5495 217.287 77.5857 229.228 62.8285 229.228C48.0714 229.228 36.1076 217.287 36.1076 202.557C36.1076 187.828 48.0714 175.886 62.8285 175.886Z" fill="#FC46AA"/>
<path d="M62.8282 175.079C47.6309 175.079 35.2988 187.379 35.2988 202.557C35.2988 217.735 47.6219 230.035 62.8282 230.035C78.0344 230.035 90.3575 217.744 90.3575 202.557C90.3575 187.37 78.0434 175.079 62.8282 175.079Z" stroke="#2C547B" stroke-width="4.31" stroke-miterlimit="10"/>
<path d="M62.8284 311.788C62.8284 311.788 58.1579 307.09 51.3945 299.362C66.8343 282.544 108.357 233.783 106.471 197.797C106.408 196.685 106.354 195.573 106.327 194.462C105.726 172.506 93.4205 153.473 75.412 143.352C102.331 149.018 122.665 172.515 123.429 200.881C123.465 202.001 123.519 203.113 123.573 204.225C125.89 248.387 62.8284 311.788 62.8284 311.788Z" fill="#E5309C"/>
<path d="M10.5998 214.418C9.4142 237.109 24.9438 264.712 40.8416 286.713C22.8959 264.219 0.701817 230.752 2.08502 204.225C2.13891 203.113 2.1928 202.001 2.22873 200.881C3.10895 168.239 29.9018 142.043 62.8292 142.043C78.9426 142.043 93.583 148.318 104.442 158.548C95.2716 153.267 84.6281 150.255 73.284 150.255C39.3057 150.255 11.6597 177.285 10.7525 210.976C10.7166 212.123 10.6627 213.271 10.5998 214.418Z" fill="#FC72CB"/>
<path d="M123.573 204.225C123.546 203.669 123.519 203.113 123.492 202.557C123.483 202.279 123.474 202.001 123.465 201.724C123.447 201.437 123.447 201.159 123.438 200.881C123.411 200.029 123.375 199.186 123.312 198.353C123.312 198.29 123.312 198.227 123.294 198.164C123.267 197.797 123.24 197.429 123.204 197.062C123.204 196.99 123.204 196.918 123.186 196.855C123.151 196.47 123.115 196.084 123.07 195.699C123.07 195.645 123.061 195.591 123.052 195.538C123.007 195.134 122.953 194.731 122.899 194.327C122.845 193.897 122.782 193.467 122.71 193.045C122.639 192.615 122.567 192.194 122.495 191.763C122.423 191.342 122.342 190.921 122.252 190.499C122.163 190.078 122.082 189.657 121.983 189.235C121.893 188.85 121.803 188.455 121.704 188.07C121.642 187.783 121.57 187.505 121.498 187.236C121.435 186.967 121.363 186.698 121.282 186.438C121.201 186.133 121.112 185.828 121.022 185.524C120.914 185.138 120.797 184.762 120.672 184.376C120.411 183.542 120.133 182.726 119.836 181.911C119.693 181.507 119.54 181.113 119.387 180.727C119.234 180.333 119.082 179.938 118.92 179.553C118.606 178.773 118.264 178.002 117.914 177.249C117.743 176.881 117.573 176.523 117.402 176.164C116.666 174.64 115.857 173.152 114.995 171.708C114.806 171.386 114.609 171.063 114.411 170.749C114.366 170.668 114.312 170.588 114.259 170.507C114.07 170.202 113.872 169.897 113.675 169.593C113.477 169.288 113.279 168.983 113.073 168.687C112.507 167.835 111.914 167.011 111.295 166.195C111.124 165.971 110.962 165.756 110.792 165.54C110.495 165.155 110.19 164.769 109.875 164.393C109.714 164.187 109.543 163.98 109.372 163.783C109.049 163.389 108.717 163.003 108.384 162.627C108.124 162.331 107.854 162.035 107.585 161.739C107.307 161.434 107.028 161.13 106.741 160.834C106.525 160.61 106.31 160.385 106.094 160.161C105.878 159.937 105.663 159.722 105.438 159.507C105.106 159.184 104.774 158.861 104.441 158.548C104.432 158.548 104.432 158.53 104.423 158.53C104.307 158.422 104.199 158.315 104.091 158.216C104.01 158.135 103.929 158.064 103.849 157.992C103.669 157.83 103.498 157.678 103.328 157.517C103.238 157.436 103.148 157.355 103.058 157.275C102.995 157.221 102.932 157.167 102.87 157.122C102.816 157.068 102.771 157.024 102.717 156.988C102.555 156.844 102.394 156.701 102.232 156.566C101.9 156.279 101.567 156.002 101.226 155.724C101.001 155.544 100.768 155.356 100.543 155.177C100.471 155.114 100.391 155.051 100.31 154.989C100.211 154.908 100.103 154.827 99.9954 154.746C99.8696 154.648 99.7439 154.549 99.6181 154.46C99.5193 154.379 99.4205 154.307 99.3217 154.226C99.0612 154.029 98.8008 153.832 98.5313 153.644C98.3786 153.536 98.2259 153.429 98.0822 153.321C98.0373 153.294 98.0014 153.258 97.9565 153.231C97.6241 152.989 97.2918 152.756 96.9505 152.532C96.8427 152.451 96.7349 152.38 96.6182 152.308C96.3487 152.12 96.0793 151.949 95.8008 151.77C95.747 151.734 95.6841 151.698 95.6302 151.653C95.5314 151.591 95.4326 151.528 95.3248 151.465L95.3068 151.447C95.3068 151.447 95.2529 151.411 95.226 151.393C95.1541 151.358 95.0913 151.313 95.0284 151.277C94.8308 151.151 94.6332 151.026 94.4356 150.909C94.229 150.775 94.0135 150.649 93.8069 150.533C93.6632 150.443 93.5194 150.354 93.3668 150.273C93.1153 150.12 92.8638 149.977 92.6033 149.834C92.5135 149.78 92.4147 149.726 92.3159 149.672C92.2081 149.609 92.1003 149.556 91.9925 149.493C91.265 149.089 90.5195 148.704 89.774 148.336C89.4956 148.193 89.2172 148.058 88.9297 147.924H88.9208C88.8309 147.879 88.7321 147.834 88.6423 147.79C88.4986 147.718 88.3549 147.655 88.2112 147.592C88.1842 147.574 88.1573 147.565 88.1304 147.556C88.1034 147.547 88.0854 147.53 88.0585 147.521C87.8609 147.431 87.6633 147.341 87.4657 147.252C87.3489 147.198 87.2411 147.144 87.1244 147.099C87.0346 147.063 86.9447 147.019 86.8549 146.983C86.4418 146.803 86.0286 146.633 85.6065 146.463C85.5526 146.445 85.4987 146.418 85.4448 146.4C85.4268 146.391 85.4178 146.391 85.3999 146.382C85.2472 146.319 85.0855 146.248 84.9328 146.194C84.9149 146.185 84.8969 146.176 84.8789 146.176C84.825 146.149 84.7711 146.122 84.7173 146.104C84.5646 146.05 84.4209 145.997 84.2771 145.943C84.1783 145.898 84.0885 145.862 83.9897 145.835C83.7831 145.754 83.5676 145.683 83.352 145.602C83.1095 145.512 82.876 145.432 82.6335 145.351C82.3281 145.243 82.0227 145.136 81.7083 145.037C81.6724 145.019 81.6275 145.01 81.5916 145.001C81.4119 144.939 81.2323 144.885 81.0527 144.831C80.6664 144.706 80.2802 144.589 79.885 144.472C79.876 144.472 79.8581 144.463 79.8401 144.463C79.6066 144.392 79.3731 144.329 79.1485 144.266C78.6815 144.132 78.2144 144.006 77.7384 143.89C77.3791 143.8 77.0288 143.71 76.6695 143.63C76.6695 143.63 76.6516 143.621 76.6426 143.621C76.4899 143.594 76.3462 143.558 76.1935 143.522C75.9869 143.477 75.7893 143.432 75.5827 143.388C75.5288 143.37 75.4749 143.361 75.4211 143.352C75.2324 143.307 75.0438 143.271 74.8462 143.235C74.5768 143.173 74.3073 143.119 74.0378 143.083C73.939 143.056 73.8402 143.038 73.7325 143.02C73.5169 142.984 73.3013 142.939 73.0858 142.913C72.7175 142.841 72.3493 142.787 71.972 142.733C71.6666 142.679 71.3613 142.635 71.0469 142.599C70.7415 142.554 70.4451 142.518 70.1397 142.482C69.7355 142.428 69.3314 142.393 68.9272 142.348C68.4242 142.294 67.9212 142.249 67.4182 142.213C67.032 142.186 66.6548 142.159 66.2686 142.142C65.9542 142.124 65.6309 142.106 65.3165 142.097C64.9572 142.079 64.5979 142.07 64.2387 142.061C63.7716 142.052 63.2956 142.043 62.8285 142.043C29.9011 142.043 3.10829 168.239 2.22807 200.881C2.19214 202.001 2.13825 203.113 2.08436 204.225C2.03945 205.023 2.02148 205.821 2.02148 206.627C2.02148 207.031 2.03047 207.443 2.03945 207.847C2.04843 208.358 2.07538 208.869 2.10232 209.389V209.407C2.12927 209.918 2.16519 210.438 2.2101 210.958C2.29992 211.998 2.42567 213.055 2.56938 214.113C2.62327 214.535 2.68614 214.956 2.75799 215.386C2.8029 215.655 2.84781 215.924 2.89272 216.202C2.94661 216.507 3.0005 216.821 3.06338 217.135C3.06338 217.161 3.07236 217.188 3.08134 217.224C3.28792 218.318 3.52145 219.43 3.79091 220.541C3.88971 220.972 3.99749 221.411 4.11425 221.841C4.3388 222.711 4.58131 223.58 4.8328 224.459C5.0304 225.122 5.228 225.795 5.44356 226.458C5.50644 226.673 5.56931 226.889 5.64116 227.104C5.88367 227.839 6.13517 228.583 6.39564 229.327C6.44055 229.462 6.48546 229.596 6.53935 229.73C6.69204 230.17 6.85371 230.609 7.01539 231.048C7.698 232.877 8.43452 234.715 9.21594 236.553C9.38659 236.929 9.54826 237.306 9.71892 237.691C9.90754 238.131 10.1051 238.57 10.3117 239.018C10.5902 239.637 10.8776 240.264 11.174 240.883C11.4165 241.394 11.659 241.914 11.9105 242.425C13.7697 246.253 15.8176 250.063 18.0002 253.82C18.4223 254.546 18.8534 255.272 19.2846 255.998C19.3564 256.124 19.4283 256.24 19.5091 256.366C19.9672 257.137 20.4342 257.908 20.9103 258.67C21.1708 259.1 21.4312 259.521 21.7007 259.943C22.2127 260.759 22.7246 261.574 23.2456 262.381C24.0809 263.672 24.9162 264.954 25.7695 266.218C26.2365 266.927 26.7126 267.626 27.1886 268.316C27.2784 268.451 27.3682 268.576 27.458 268.711C27.7275 269.105 27.997 269.491 28.2664 269.876C29.1107 271.086 29.946 272.279 30.7903 273.453C31.0777 273.848 31.3562 274.242 31.6436 274.628C32.4879 275.793 33.3322 276.95 34.1765 278.079C34.4549 278.456 34.7423 278.832 35.0208 279.2C35.2902 279.576 35.5776 279.953 35.865 280.32C36.1435 280.688 36.4219 281.056 36.7004 281.414C36.9788 281.791 37.2752 282.167 37.5626 282.544C38.1105 283.252 38.6584 283.951 39.1973 284.633C39.4668 284.982 39.7452 285.332 40.0236 285.682C40.2931 286.031 40.5715 286.372 40.841 286.713C44.6403 291.482 48.242 295.749 51.3946 299.362C51.6192 299.604 51.8258 299.846 52.0234 300.08C52.2838 300.366 52.5353 300.653 52.7868 300.94C54.9694 303.406 56.8915 305.512 58.4544 307.198C58.7238 307.476 58.9753 307.745 59.2088 308.005C59.9274 308.776 60.5561 309.43 61.0771 309.977C61.3286 310.246 61.5621 310.488 61.7597 310.694C62.0202 310.963 62.2357 311.187 62.3974 311.358C62.4603 311.411 62.5052 311.465 62.5501 311.51C62.7297 311.689 62.8285 311.788 62.8285 311.788C62.8285 311.788 125.89 248.387 123.573 204.225Z" stroke="#2C547B" stroke-width="4.5" stroke-miterlimit="10"/>
<path d="M73.6592 143.872L70.9467 136.996C68.2162 130.048 58.6505 121.979 50.4142 121.979C47.8005 121.979 45.3844 122.777 43.4263 124.292C41.8186 125.529 40.5881 127.259 39.6809 129.268C38.9264 128.703 38.0103 128.371 37.0313 128.353H36.7798C31.1302 128.353 24.5375 131.491 22.4537 139.945C21.843 139.649 21.1783 139.479 20.4867 139.479C20.1544 139.479 19.8221 139.515 19.4897 139.586C14.0557 140.806 8.55884 145.683 9.43906 155.751C10.2115 164.474 16.3461 171.565 23.1184 171.574C27.0884 171.574 30.4296 169.082 32.0643 164.913C32.1002 164.823 32.1182 164.725 32.1451 164.626C33.2589 165.011 34.4086 165.209 35.5672 165.209C37.7408 165.209 40.9833 164.518 44.082 161.219C44.4862 160.789 44.7826 160.287 44.9892 159.758C46.3095 160.341 47.8095 160.717 49.4352 160.717C52.0669 160.717 55.9111 159.731 59.3062 155.042C62.0996 151.178 62.5127 146.409 62.0906 142.276C62.5846 142.249 63.0696 142.231 63.5546 142.231C65.2881 142.231 66.3749 142.428 66.3749 142.428L73.6412 143.881L73.6592 143.872Z" fill="#2C547B"/>
<path d="M45.9057 127.475C39.349 132.54 41.4507 150.82 43.4267 153.536C45.4027 156.253 51.2229 159.345 56.0462 152.675C60.8694 146.005 56.0462 134.521 56.0462 134.521C59.3874 135.633 59.6389 138.475 59.6389 138.475C64.0939 137.856 67.1837 138.475 67.1837 138.475C64.4622 131.554 52.4535 122.418 45.8967 127.484L45.9057 127.475Z" fill="white"/>
<path d="M37.4544 133.042C37.5352 132.719 37.3017 132.387 36.9694 132.387C34.5802 132.343 26.3888 133.06 25.8588 144.652C25.2481 158.028 34.4994 165.54 41.1549 158.458C41.3345 158.27 41.3435 157.974 41.1818 157.768C39.7897 155.993 33.8257 147.368 37.4544 133.042Z" fill="white"/>
<path d="M21.017 144.051C21.017 143.71 20.7206 143.45 20.3883 143.522C18.4213 143.961 12.6639 146.05 13.4812 155.392C14.4603 166.473 25.0499 171.798 28.3192 163.434C28.4001 163.218 28.3282 162.967 28.1486 162.824C26.7115 161.703 20.8014 156.324 21.017 144.051Z" fill="white"/>
</g>
<defs>
<clipPath id="clip0_4037_13218">
<rect width="405" height="320" fill="white"/>
</clipPath>
</defs>
</svg>
