<svg width="32" height="32" viewBox="0 0 32 32" fill="none" xmlns="http://www.w3.org/2000/svg">
<path d="M16.0008 26.6667L6.24077 14.4667C5.79677 13.912 5.5741 13.6347 5.51544 13.3014C5.45677 12.968 5.56877 12.6307 5.79277 11.9574L6.78477 8.98004C7.37144 7.22004 7.66477 6.34004 8.36344 5.83737C9.0621 5.33471 9.9901 5.33337 11.8448 5.33337H20.1568C22.0114 5.33337 22.9394 5.33337 23.6368 5.83737C24.3368 6.34004 24.6301 7.22004 25.2168 8.98004L26.2088 11.9574C26.4328 12.6307 26.5448 12.9667 26.4861 13.3014C26.4261 13.6347 26.2048 13.912 25.7608 14.4667L16.0008 26.6667ZM16.0008 26.6667L20.6674 12M16.0008 26.6667L11.3341 12M20.6674 12L26.0008 13.3334M20.6674 12L18.6674 6.66671M20.6674 12H11.3341M11.3341 12L13.3341 6.66671M11.3341 12L6.00077 13.3334" stroke="#45C8F5" stroke-width="2" stroke-linecap="round"/>
</svg>
