<svg width="32" height="32" viewBox="0 0 32 32" fill="none" xmlns="http://www.w3.org/2000/svg">
<mask id="path-1-outside-1_4097_13309" maskUnits="userSpaceOnUse" x="3" y="3" width="26" height="26" fill="black">
<rect fill="white" x="3" y="3" width="26" height="26"/>
<path fill-rule="evenodd" clip-rule="evenodd" d="M6.22199 15.2932C6.22199 12.2397 7.07524 10.0109 8.54353 8.54463C10.0083 7.07834 12.2391 6.22522 15.2931 6.22522C18.347 6.22522 20.5743 7.08011 22.0408 8.54641C23.5073 10.0127 24.3641 12.2433 24.3641 15.2949C24.3641 18.3466 23.5073 20.5772 22.0408 22.0435C20.5743 23.5098 18.3452 24.3647 15.2931 24.3647C12.2391 24.3647 10.01 23.5098 8.54353 22.0435C7.07701 20.5772 6.22199 18.3466 6.22199 15.2932ZM15.2931 4.00355C11.8285 4.00355 8.9666 4.98109 6.97214 6.97347C4.9759 8.96942 4 11.8309 4 15.2932C4 18.7554 4.97768 21.6169 6.97214 23.6111C8.9666 25.607 11.8303 26.5845 15.2913 26.5845C18.1141 26.5845 20.5352 25.9358 22.4159 24.617L25.3436 27.5443C25.4881 27.6888 25.6596 27.8034 25.8484 27.8816C26.0372 27.9598 26.2395 28 26.4439 28C26.6482 28 26.8506 27.9598 27.0394 27.8816C27.2282 27.8034 27.3997 27.6888 27.5442 27.5443C27.6887 27.3998 27.8033 27.2283 27.8816 27.0395C27.9598 26.8508 28 26.6484 28 26.4441C28 26.2398 27.9598 26.0375 27.8816 25.8487C27.8033 25.66 27.6887 25.4884 27.5442 25.344L24.6165 22.4167C25.9355 20.5381 26.5843 18.1156 26.5843 15.2932C26.5843 11.8309 25.6067 8.96942 23.6122 6.97525C21.6177 4.97753 18.7558 4 15.2931 4"/>
</mask>
<path fill-rule="evenodd" clip-rule="evenodd" d="M6.22199 15.2932C6.22199 12.2397 7.07524 10.0109 8.54353 8.54463C10.0083 7.07834 12.2391 6.22522 15.2931 6.22522C18.347 6.22522 20.5743 7.08011 22.0408 8.54641C23.5073 10.0127 24.3641 12.2433 24.3641 15.2949C24.3641 18.3466 23.5073 20.5772 22.0408 22.0435C20.5743 23.5098 18.3452 24.3647 15.2931 24.3647C12.2391 24.3647 10.01 23.5098 8.54353 22.0435C7.07701 20.5772 6.22199 18.3466 6.22199 15.2932ZM15.2931 4.00355C11.8285 4.00355 8.9666 4.98109 6.97214 6.97347C4.9759 8.96942 4 11.8309 4 15.2932C4 18.7554 4.97768 21.6169 6.97214 23.6111C8.9666 25.607 11.8303 26.5845 15.2913 26.5845C18.1141 26.5845 20.5352 25.9358 22.4159 24.617L25.3436 27.5443C25.4881 27.6888 25.6596 27.8034 25.8484 27.8816C26.0372 27.9598 26.2395 28 26.4439 28C26.6482 28 26.8506 27.9598 27.0394 27.8816C27.2282 27.8034 27.3997 27.6888 27.5442 27.5443C27.6887 27.3998 27.8033 27.2283 27.8816 27.0395C27.9598 26.8508 28 26.6484 28 26.4441C28 26.2398 27.9598 26.0375 27.8816 25.8487C27.8033 25.66 27.6887 25.4884 27.5442 25.344L24.6165 22.4167C25.9355 20.5381 26.5843 18.1156 26.5843 15.2932C26.5843 11.8309 25.6067 8.96942 23.6122 6.97525C21.6177 4.97753 18.7558 4 15.2931 4" fill="#45C8F5"/>
<path d="M8.54353 8.54463L8.89684 8.89843L8.89727 8.898L8.54353 8.54463ZM6.97214 6.97347L6.61877 6.61974L6.61861 6.61989L6.97214 6.97347ZM6.97214 23.6111L7.32582 23.2576L7.32566 23.2575L6.97214 23.6111ZM22.4159 24.617L22.7694 24.2635L22.4725 23.9666L22.1288 24.2077L22.4159 24.617ZM25.3436 27.5443L24.99 27.8979L25.3436 27.5443ZM26.4439 28V28.5V28ZM28 26.4441H27.5H28ZM27.5442 25.344L27.1907 25.6975L27.5442 25.344ZM24.6165 22.4167L24.2073 22.1294L23.9659 22.4732L24.263 22.7703L24.6165 22.4167ZM23.6122 6.97525L23.2584 7.32852L23.2587 7.32883L23.6122 6.97525ZM6.22199 15.2932H6.72199C6.72199 12.3317 7.54784 10.2456 8.89684 8.89843L8.54353 8.54463L8.19022 8.19084C6.60263 9.77627 5.72199 12.1478 5.72199 15.2932H6.22199ZM8.54353 8.54463L8.89727 8.898C10.2428 7.55107 12.3309 6.72522 15.2931 6.72522V6.22522V5.72522C12.1474 5.72522 9.77377 6.6056 8.18979 8.19127L8.54353 8.54463ZM15.2931 6.22522V6.72522C18.2547 6.72522 20.3396 7.55254 21.6873 8.89999L22.0408 8.54641L22.3943 8.19283C20.809 6.60769 18.4393 5.72522 15.2931 5.72522V6.22522ZM22.0408 8.54641L21.6873 8.89999C23.035 10.2475 23.8641 12.3357 23.8641 15.2949H24.3641H24.8641C24.8641 12.1508 23.9796 9.77791 22.3943 8.19283L22.0408 8.54641ZM24.3641 15.2949H23.8641C23.8641 18.2541 23.035 20.3424 21.6873 21.6899L22.0408 22.0435L22.3943 22.397C23.9796 20.812 24.8641 18.4391 24.8641 15.2949H24.3641ZM22.0408 22.0435L21.6873 21.6899C20.3396 23.0373 18.2529 23.8647 15.2931 23.8647V24.3647V24.8647C18.4374 24.8647 20.8089 23.9822 22.3943 22.397L22.0408 22.0435ZM15.2931 24.3647V23.8647C12.3313 23.8647 10.2447 23.0373 8.89706 21.6899L8.54353 22.0435L8.19 22.397C9.77543 23.9822 12.1469 24.8647 15.2931 24.8647V24.3647ZM8.54353 22.0435L8.89706 21.6899C7.54953 20.3425 6.72199 18.2545 6.72199 15.2932H6.22199H5.72199C5.72199 18.4387 6.6045 20.8118 8.19 22.397L8.54353 22.0435ZM15.2931 4.00355V3.50355C11.7368 3.50355 8.73234 4.50836 6.61877 6.61974L6.97214 6.97347L7.32551 7.32721C9.20086 5.45381 11.9203 4.50355 15.2931 4.50355V4.00355ZM6.97214 6.97347L6.61861 6.61989C4.50315 8.73504 3.5 11.7392 3.5 15.2932H4H4.5C4.5 11.9226 5.44865 9.20379 7.32566 7.32705L6.97214 6.97347ZM4 15.2932H3.5C3.5 18.8473 4.50501 21.8514 6.61861 23.9646L6.97214 23.6111L7.32566 23.2575C5.45034 21.3824 4.5 18.6635 4.5 15.2932H4ZM6.97214 23.6111L6.61845 23.9645C8.7321 26.0797 11.7385 27.0845 15.2913 27.0845V26.5845V26.0845C11.9221 26.0845 9.20109 25.1343 7.32582 23.2576L6.97214 23.6111ZM15.2913 26.5845V27.0845C18.1885 27.0845 20.7176 26.4186 22.7029 25.0264L22.4159 24.617L22.1288 24.2077C20.3528 25.453 18.0397 26.0845 15.2913 26.0845V26.5845ZM22.4159 24.617L22.0623 24.9706L24.99 27.8979L25.3436 27.5443L25.6971 27.1907L22.7694 24.2635L22.4159 24.617ZM25.3436 27.5443L24.99 27.8979C25.181 28.0888 25.4076 28.2402 25.6571 28.3435L25.8484 27.8816L26.0397 27.4196C25.9116 27.3665 25.7952 27.2888 25.6971 27.1907L25.3436 27.5443ZM25.8484 27.8816L25.6571 28.3435C25.9065 28.4468 26.1739 28.5 26.4439 28.5V28V27.5C26.3052 27.5 26.1679 27.4727 26.0397 27.4196L25.8484 27.8816ZM26.4439 28V28.5C26.7139 28.5 26.9813 28.4468 27.2307 28.3435L27.0394 27.8816L26.8481 27.4196C26.7199 27.4727 26.5826 27.5 26.4439 27.5V28ZM27.0394 27.8816L27.2307 28.3435C27.4802 28.2402 27.7068 28.0888 27.8978 27.8979L27.5442 27.5443L27.1907 27.1907C27.0926 27.2888 26.9762 27.3665 26.8481 27.4196L27.0394 27.8816ZM27.5442 27.5443L27.8978 27.8979C28.0887 27.707 28.2401 27.4803 28.3435 27.2309L27.8815 27.0395L27.4196 26.8482C27.3666 26.9763 27.2888 27.0927 27.1907 27.1907L27.5442 27.5443ZM27.8815 27.0395L28.3435 27.2309C28.4468 26.9815 28.5 26.7141 28.5 26.4441H28H27.5C27.5 26.5828 27.4727 26.7201 27.4196 26.8482L27.8815 27.0395ZM28 26.4441H28.5C28.5 26.1741 28.4468 25.9068 28.3435 25.6574L27.8815 25.8487L27.4196 26.0401C27.4727 26.1682 27.5 26.3055 27.5 26.4441H28ZM27.8815 25.8487L28.3435 25.6574C28.2401 25.4079 28.0887 25.1813 27.8978 24.9904L27.5442 25.344L27.1907 25.6975C27.2888 25.7956 27.3666 25.912 27.4196 26.0401L27.8815 25.8487ZM27.5442 25.344L27.8978 24.9904L24.9701 22.0631L24.6165 22.4167L24.263 22.7703L27.1907 25.6975L27.5442 25.344ZM24.6165 22.4167L25.0257 22.704C26.4183 20.7205 27.0843 18.1898 27.0843 15.2932H26.5843H26.0843C26.0843 18.0413 25.4527 20.3556 24.2073 22.1294L24.6165 22.4167ZM26.5843 15.2932H27.0843C27.0843 11.7391 26.0793 8.73496 23.9657 6.62167L23.6122 6.97525L23.2587 7.32883C25.134 9.20388 26.0843 11.9228 26.0843 15.2932H26.5843ZM23.6122 6.97525L23.966 6.62199C21.8524 4.50486 18.8476 3.5 15.2931 3.5V4V4.5C18.664 4.5 21.3831 5.4502 23.2584 7.32852L23.6122 6.97525Z" fill="#45C8F5" mask="url(#path-1-outside-1_4097_13309)"/>
</svg>
