<svg width="74" height="15" viewBox="0 0 74 15" fill="none" xmlns="http://www.w3.org/2000/svg">
<path d="M57.5181 11.4097H59.1469V0.398144H57.5181V11.4097ZM72.1888 4.36461L70.3217 9.13882H70.2658L68.328 4.36461H66.5735L69.4793 11.0371L67.8235 14.749H69.5212L74 4.36461H72.1888ZM62.9519 10.1588C62.4176 10.1588 61.6739 9.89019 61.6739 9.22338C61.6739 8.37424 62.6001 8.04833 63.4005 8.04833C64.1163 8.04833 64.4541 8.20424 64.8888 8.41652C64.7622 9.43655 63.892 10.1588 62.9519 10.1588ZM63.1483 4.12414C61.969 4.12414 60.7469 4.64825 60.2424 5.81009L61.6879 6.41876C61.9969 5.81009 62.5721 5.61102 63.1762 5.61102C64.0185 5.61102 64.8748 6.12103 64.8888 7.0283V7.14105C64.5938 6.97105 63.9627 6.71648 63.1902 6.71648C61.632 6.71648 60.0451 7.5806 60.0451 9.1952C60.0451 10.6689 61.323 11.6184 62.7546 11.6184C63.8501 11.6184 64.4541 11.1225 64.8329 10.5411H64.8888V11.3912H66.4609V7.16924C66.4609 5.21463 65.0154 4.12414 63.1483 4.12414M53.0821 5.70527H50.7655V1.93082H53.0821C54.2998 1.93082 54.9911 2.94821 54.9911 3.8176C54.9911 4.67115 54.2998 5.70527 53.0821 5.70527ZM53.0402 0.398144H49.1375V11.4097H50.7655V7.23795H53.0402C54.8453 7.23795 56.6199 5.91843 56.6199 3.8176C56.6199 1.71678 54.8453 0.398144 53.0402 0.398144M31.7583 10.1606C30.6332 10.1606 29.6913 9.21017 29.6913 7.90475C29.6913 6.58524 30.6332 5.61982 31.7583 5.61982C32.8695 5.61982 33.7406 6.58524 33.7406 7.90475C33.7406 9.21017 32.8695 10.1606 31.7583 10.1606ZM33.6289 4.98121H33.5722C33.2064 4.54166 32.5038 4.1444 31.6178 4.1444C29.7611 4.1444 28.0599 5.78983 28.0599 7.90475C28.0599 10.0047 29.7611 11.6369 31.6178 11.6369C32.5038 11.6369 33.2064 11.2396 33.5722 10.7851H33.6289V11.3251C33.6289 12.7582 32.8695 13.5246 31.6457 13.5246C30.6471 13.5246 30.0282 12.8005 29.7751 12.1901L28.3549 12.7864C28.7626 13.78 29.8458 15 31.6457 15C33.5582 15 35.1757 13.8646 35.1757 11.0978V4.37078H33.6289V4.98121ZM36.3008 11.4097H37.9322V0.397263H36.3008V11.4097ZM40.3362 7.77703C40.2943 6.32979 41.4474 5.59164 42.2766 5.59164C42.9243 5.59164 43.4725 5.91755 43.6549 6.38616L40.3362 7.77703ZM45.3989 6.52798C45.0899 5.69117 44.1472 4.1444 42.2208 4.1444C40.3083 4.1444 38.7196 5.6621 38.7196 7.89066C38.7196 9.9906 40.2943 11.6369 42.4032 11.6369C44.1053 11.6369 45.0899 10.5869 45.4976 9.97651L44.2319 9.12473C43.8103 9.74925 43.2333 10.1606 42.4032 10.1606C41.5739 10.1606 40.983 9.77744 40.6033 9.02607L45.5674 6.95343L45.3989 6.52798ZM5.8501 5.29391V6.88296H9.61836C9.50576 7.77703 9.21072 8.42974 8.76118 8.88337C8.21214 9.43743 7.35409 10.0479 5.8501 10.0479C3.52909 10.0479 1.71523 8.1602 1.71523 5.8189C1.71523 3.47672 3.52909 1.58993 5.8501 1.58993C7.10182 1.58993 8.01574 2.08673 8.69048 2.72535L9.80167 1.60403C8.85895 0.695871 7.6081 -4.39352e-07 5.8501 -4.39352e-07C2.67191 -4.39352e-07 0 2.61172 0 5.8189C0 9.02607 2.67191 11.6369 5.8501 11.6369C7.56533 11.6369 8.85895 11.0688 9.8715 10.0047C10.9129 8.95472 11.2358 7.4793 11.2358 6.28663C11.2358 5.91755 11.2079 5.57754 11.1512 5.29391H5.8501ZM15.5208 10.1606C14.3957 10.1606 13.425 9.22426 13.425 7.89066C13.425 6.54207 14.3957 5.61982 15.5208 5.61982C16.6451 5.61982 17.6158 6.54207 17.6158 7.89066C17.6158 9.22426 16.6451 10.1606 15.5208 10.1606ZM15.5208 4.1444C13.4669 4.1444 11.7936 5.71936 11.7936 7.89066C11.7936 10.0479 13.4669 11.6369 15.5208 11.6369C17.5739 11.6369 19.2472 10.0479 19.2472 7.89066C19.2472 5.71936 17.5739 4.1444 15.5208 4.1444ZM23.65 10.1606C22.5249 10.1606 21.5542 9.22426 21.5542 7.89066C21.5542 6.54207 22.5249 5.61982 23.65 5.61982C24.7752 5.61982 25.745 6.54207 25.745 7.89066C25.745 9.22426 24.7752 10.1606 23.65 10.1606ZM23.65 4.1444C21.597 4.1444 19.9237 5.71936 19.9237 7.89066C19.9237 10.0479 21.597 11.6369 23.65 11.6369C25.7031 11.6369 27.3764 10.0479 27.3764 7.89066C27.3764 5.71936 25.7031 4.1444 23.65 4.1444Z" fill="white"/>
</svg>
