<svg width="21" height="24" viewBox="0 0 21 24" fill="none" xmlns="http://www.w3.org/2000/svg">
<path d="M9.80506 11.4617L0.0898438 22.0059C0.0907562 22.0078 0.0907561 22.0106 0.0916686 22.0125C0.390051 23.1574 1.41203 24 2.62564 24C3.11108 24 3.56641 23.8656 3.95695 23.6305L3.98798 23.6118L14.9232 17.1593L9.80506 11.4617Z" fill="#EA4335"/>
<path d="M19.6332 9.66619L19.624 9.65966L14.9029 6.86123L9.58398 11.7013L14.922 17.1582L19.6177 14.3878C20.4407 13.9324 21.0001 13.045 21.0001 12.0223C21.0001 11.0052 20.4489 10.1225 19.6332 9.66619Z" fill="#FBBC04"/>
<path d="M0.0894234 1.99337C0.0310244 2.21359 0 2.445 0 2.68388V21.3164C0 21.5553 0.0310245 21.7867 0.0903359 22.006L10.1386 11.7314L0.0894234 1.99337Z" fill="#4285F4"/>
<path d="M9.87715 11.9999L14.9049 6.85932L3.9825 0.383476C3.58557 0.139932 3.12203 -3.51432e-05 2.62655 -3.51432e-05C1.41295 -3.51432e-05 0.389138 0.844437 0.0907557 1.99031C0.0907557 1.99124 0.0898438 1.99217 0.0898438 1.99311L9.87715 11.9999Z" fill="#34A853"/>
</svg>
