<svg width="11" height="12" viewBox="0 0 11 12" fill="none" xmlns="http://www.w3.org/2000/svg">
<path d="M5.1358 5.73084L0.046875 11.003C0.047353 11.0039 0.0473529 11.0053 0.0478309 11.0062C0.204126 11.5787 0.73945 12 1.37515 12C1.62943 12 1.86793 11.9328 2.0725 11.8152L2.08875 11.8059L7.81672 8.57965L5.1358 5.73084Z" fill="#EA4335"/>
<path d="M10.2834 4.83309L10.2786 4.82983L7.80561 3.43062L5.01953 5.85066L7.81564 8.5791L10.2753 7.19389C10.7064 6.9662 10.9994 6.52251 10.9994 6.01116C10.9994 5.50261 10.7107 5.06124 10.2834 4.83309Z" fill="#FBBC04"/>
<path d="M0.0468408 0.996626C0.0162509 1.10673 0 1.22244 0 1.34188V10.6581C0 10.7776 0.0162509 10.8933 0.0473188 11.0029L5.3107 5.86564L0.0468408 0.996626Z" fill="#4285F4"/>
<path d="M5.17356 6L7.80716 3.42972L2.08589 0.191799C1.87797 0.0700271 1.63516 4.34636e-05 1.37563 4.34636e-05C0.739928 4.34636e-05 0.203648 0.42228 0.0473527 0.995215C0.0473527 0.995681 0.046875 0.996148 0.046875 0.996615L5.17356 6Z" fill="#34A853"/>
</svg>
