<svg width="9" height="10" viewBox="0 0 9 10" fill="none" xmlns="http://www.w3.org/2000/svg">
<path d="M4.20273 4.7757L0.0390625 9.16914C0.0394536 9.16991 0.0394535 9.17108 0.0398446 9.17186C0.167723 9.64891 0.605715 10 1.12583 10C1.33388 10 1.52902 9.94401 1.69639 9.84604L1.70969 9.83826L6.39621 7.14971L4.20273 4.7757Z" fill="#EA4335"/>
<path d="M8.41422 4.02762L8.4103 4.0249L6.38694 2.85889L4.10742 4.87559L6.39515 7.14929L8.40757 5.99495C8.76031 5.80521 9.00003 5.43546 9.00003 5.00934C9.00003 4.58555 8.76383 4.21774 8.41422 4.02762Z" fill="#FBBC04"/>
<path d="M0.0383243 0.830603C0.0132962 0.92236 0 1.01878 0 1.11831V8.88187C0 8.9814 0.0132962 9.07782 0.0387154 9.16919L4.34512 4.88812L0.0383243 0.830603Z" fill="#4285F4"/>
<path d="M4.23362 5L6.38839 2.8581L1.70734 0.159833C1.53723 0.0583561 1.33857 3.64113e-05 1.12622 3.64113e-05C0.606106 3.64113e-05 0.167331 0.3519 0.0394533 0.829346C0.0394533 0.829735 0.0390625 0.830124 0.0390625 0.830512L4.23362 5Z" fill="#34A853"/>
</svg>
