<svg width="12" height="12" viewBox="0 0 12 12" fill="none" xmlns="http://www.w3.org/2000/svg">
<path d="M9.35444 9.75C8.93944 10.37 8.49944 10.975 7.82944 10.985C7.15944 11 6.94444 10.59 6.18444 10.59C5.41944 10.59 5.18444 10.975 4.54944 11C3.89444 11.025 3.39944 10.34 2.97944 9.735C2.12444 8.5 1.46944 6.225 2.34944 4.695C2.78444 3.935 3.56444 3.455 4.40944 3.44C5.04944 3.43 5.65944 3.875 6.05444 3.875C6.44444 3.875 7.18444 3.34 7.95444 3.42C8.27944 3.435 9.18944 3.55 9.77444 4.41C9.72944 4.44 8.68944 5.05 8.69944 6.315C8.71444 7.825 10.0244 8.33 10.0394 8.335C10.0244 8.37 9.82944 9.055 9.34944 9.75M6.49944 1.75C6.86444 1.335 7.46944 1.02 7.96944 1C8.03444 1.585 7.79944 2.175 7.44944 2.595C7.10444 3.02 6.53444 3.35 5.97444 3.305C5.89944 2.73 6.17944 2.13 6.49944 1.75Z" fill="#555555"/>
</svg>
