<svg width="260" height="704" viewBox="0 0 260 704" fill="none" xmlns="http://www.w3.org/2000/svg">
<path d="M174.372 701.647C175.072 703.797 177.782 704.437 179.372 702.837C183.942 698.257 192.222 687.547 200.962 664.377C213.872 630.167 225.162 605.607 228.922 547.047C229.052 544.967 230.022 543.027 231.602 541.667C237.332 536.707 251.502 524.157 257.862 515.857C259.692 513.467 259.992 510.247 258.622 507.567C253.352 497.167 239.432 468.747 238.922 457.417C238.292 443.437 242.472 439.477 247.892 437.597C253.312 435.717 254.152 428.417 246.012 419.027C240.642 412.837 236.912 408.997 234.992 407.107C234.262 406.397 234.232 405.227 234.942 404.497C236.352 403.017 238.292 399.977 238.292 394.407C238.292 385.647 241.212 387.107 244.342 369.377C246.842 355.227 248.272 349.177 250.872 345.617C251.452 344.827 251.152 343.677 250.272 343.257C249.002 342.657 247.552 341.097 246.432 337.457C243.932 329.317 238.092 322.857 238.092 314.717C238.092 307.897 233.702 299.027 232.272 294.127C231.922 292.937 230.712 292.227 229.512 292.527C227.072 293.137 223.052 293.607 219.112 291.767C216.302 290.457 214.502 289.737 213.372 289.337C212.242 288.937 211.532 287.957 211.442 286.807C211.082 282.197 210.172 270.837 209.512 263.807C208.682 254.837 217.232 255.667 213.472 237.517C209.712 219.367 185.932 139.677 181.132 124.237C176.332 108.797 168.402 90.8571 163.192 78.7571C157.982 66.6571 163.612 50.7971 156.722 39.5371C150.872 29.9571 133.112 7.57714 127.912 1.07714C127.062 0.0171436 125.602 -0.302856 124.392 0.307144C118.242 3.38714 100.402 12.6471 97.4716 17.6371C93.9216 23.6871 102.482 51.4371 90.5916 59.3571C78.7016 67.2771 48.8716 76.8771 23.4116 73.5471C-2.04843 70.2171 0.0415664 77.7171 0.0415664 77.7171C0.0415664 77.7171 6.30157 85.6471 7.13157 91.9071C7.96157 98.1671 14.8516 98.5871 13.1816 105.257C11.5116 111.927 17.3516 121.117 24.2416 130.707C31.1316 140.297 29.8716 152.407 39.8916 148.857C49.9116 145.307 49.7016 142.177 53.2416 135.087C56.7816 127.997 60.3316 121.947 64.9216 118.397C69.5116 114.847 72.2216 106.717 78.4816 102.957C78.4816 102.957 75.7716 111.097 71.8016 116.517C67.8316 121.937 65.1216 135.297 57.4116 142.807C49.7016 150.317 37.8016 151.357 39.6816 166.587C41.5616 181.817 50.9516 206.437 51.7816 224.587C52.6116 242.737 55.3316 263.807 55.1216 275.697C54.9116 287.587 62.4216 293.637 69.1016 294.677C74.0316 295.447 69.8616 299.407 67.3416 301.417C66.3816 302.187 66.3716 303.667 67.3416 304.437C68.6916 305.507 70.8516 306.227 73.6916 303.857C78.7016 299.687 83.2916 295.517 86.2116 301.977C89.1316 308.437 92.6816 313.247 88.9216 321.797C86.1516 328.117 84.1716 332.727 83.8316 336.977C83.7316 338.237 85.4316 338.727 86.0416 337.627C87.2416 335.447 88.7716 332.997 89.9616 332.237C92.2516 330.777 96.0116 335.577 93.3016 343.507C90.5916 351.437 93.9316 372.087 100.602 377.717C107.272 383.347 111.872 394.197 104.362 409.847C96.8516 425.497 84.7516 437.387 73.4816 437.597C62.2116 437.807 51.1616 448.027 50.7416 460.547C50.3216 473.067 51.5716 475.357 58.0416 484.327C64.5116 493.297 69.9316 502.267 74.3116 515.827C78.6916 529.387 96.8416 528.967 97.0516 543.787C97.2616 558.607 103.312 571.947 98.7216 580.087C94.1316 588.227 104.352 592.397 104.982 605.747C105.612 619.097 121.252 624.707 127.722 635.257C134.192 645.807 136.062 644.967 136.062 644.967C136.062 644.967 145.662 640.167 149.622 648.517C153.582 656.867 151.082 663.747 158.172 673.347C165.262 682.947 169.022 685.867 171.732 693.797C172.852 697.057 173.722 699.687 174.352 701.647H174.372Z" fill="url(#paint0_linear_4037_13081)"/>
<defs>
<linearGradient id="paint0_linear_4037_13081" x1="129.737" y1="0" x2="129.737" y2="703.731" gradientUnits="userSpaceOnUse">
<stop stop-color="#ECFAFE"/>
<stop offset="1" stop-color="#C5EEFC"/>
</linearGradient>
</defs>
</svg>
