<svg width="282" height="726" viewBox="0 0 282 726" fill="none" xmlns="http://www.w3.org/2000/svg">
<path d="M188.232 724.7C182.572 724.7 177.592 721.08 175.852 715.7C175.232 713.78 174.372 711.2 173.282 708C171.902 703.96 170.252 701.89 166.642 697.36C165.062 695.37 163.262 693.12 161.142 690.26C155.512 682.65 154.382 676.13 153.482 670.9C153.072 668.54 152.732 666.59 152.012 664.75C151.802 664.81 151.612 664.87 151.462 664.93L151.162 665.09H151.122C149.812 665.66 148.402 665.96 146.942 665.96C140.392 665.96 135.672 660.41 130.182 651.46C128.512 648.74 125.372 646.01 122.042 643.13C115.142 637.15 106.562 629.71 105.982 617.2C105.802 613.36 104.322 610.71 102.612 607.64C100.062 603.06 95.7816 595.41 101.002 586.16C102.072 584.26 100.922 577.58 100.082 572.71C99.1716 567.41 98.1316 561.4 98.0416 554.92C98.0116 552.57 97.0816 551.58 91.4616 547.83C86.1516 544.29 78.8716 539.45 75.7916 529.9C71.8516 517.71 67.0016 509.6 60.9216 501.17C53.1616 490.4 51.2416 486.05 51.7416 471.21C52.3216 453.85 67.2216 438.91 84.2916 438.6C89.8916 438.5 99.5216 430.72 106.342 416.52C110.562 407.73 110.142 400.57 105.152 396.36C96.5916 389.14 92.7716 371.22 93.5016 358.96C91.3116 358.46 89.3016 357.31 87.7716 355.64C85.6716 353.37 84.6116 350.29 84.8616 347.19C85.3416 341.13 87.8616 335.41 90.7616 328.79C91.7816 326.46 91.8116 325.32 90.7616 322.82C87.0116 325.81 83.4116 326.44 81.0216 326.44C77.8116 326.44 74.7316 325.35 72.1316 323.28C69.2716 321.01 67.6316 317.62 67.6216 313.97C67.6216 313.05 67.7216 312.14 67.9216 311.26C61.1416 306.56 55.9216 298.27 56.1316 286.53C56.2416 280.29 55.4316 270.74 54.5716 260.62C53.8816 252.49 53.1716 244.08 52.8016 236.05C52.3716 226.65 49.2516 214.81 46.2316 203.35C43.8716 194.4 41.6416 185.94 40.7616 178.81C40.3016 175.09 40.4516 171.86 41.0216 169.03C35.1416 166.16 32.6116 159.68 30.9416 155.4C29.8716 152.65 28.7616 149.82 27.1216 147.54C19.3216 136.67 12.4816 126.03 14.1316 115.56C12.2316 113.58 9.00161 110.03 8.22161 104.22C7.95161 102.17 5.34161 97.66 3.18161 94.89L1.96161 93.33L1.41161 91.4C0.41161 87.81 1.24161 83.78 3.63161 80.63C8.35161 74.41 16.9916 73.69 23.0716 73.69C26.6916 73.69 30.9416 74.01 35.7016 74.63C38.7216 75.03 41.9516 75.23 45.2916 75.23C66.4116 75.23 88.0516 67.36 96.0216 62.04C98.8716 60.14 98.1116 47.13 97.8216 42.24C97.3716 34.49 97.0116 28.37 99.8216 23.58C101.222 21.19 104.502 15.6 130.892 2.37C132.672 1.48 134.672 1 136.662 1C140.592 1 144.252 2.76 146.712 5.83C153.602 14.45 170.272 35.55 176.242 45.32C181.362 53.7 181.482 62.99 181.592 71.18C181.662 76.75 181.732 82.01 183.362 85.8L184.722 88.95C189.952 101.05 197.112 117.62 201.672 132.27C205.342 144.06 230.182 226.83 234.252 246.49C237.052 260.02 234.322 266.46 231.272 271.9C230.952 272.48 230.502 273.27 230.432 273.52C230.432 273.52 230.432 273.63 230.442 273.88C230.942 279.31 231.592 287.18 232.032 292.66C232.752 292.98 233.512 293.32 234.312 293.7C234.832 293.94 235.432 294.06 236.162 294.06C236.892 294.06 237.622 293.93 238.072 293.81C239.042 293.57 240.042 293.45 241.042 293.45C246.482 293.45 251.332 297.1 252.852 302.33C253.152 303.37 253.762 304.99 254.412 306.7C256.492 312.2 259.072 319.05 259.072 325.71C259.072 328.33 260.652 331.47 262.492 335.1C264.022 338.13 265.762 341.57 266.972 345.51C267.052 345.78 267.132 346 267.202 346.18C269.472 347.76 271.112 350.11 271.802 352.85C272.652 356.2 271.972 359.72 269.942 362.51C268.222 364.86 266.322 375.66 265.182 382.12C263.422 392.1 261.612 396.86 260.412 400C259.482 402.45 259.282 402.96 259.282 405.41C259.282 409.53 258.542 412.89 257.472 415.59C259.422 417.68 261.792 420.28 264.552 423.47C271.552 431.54 274.352 439.92 272.442 447.06C271.052 452.25 267.302 456.25 262.152 458.03C261.092 458.4 260.992 458.58 260.882 458.79C260.582 459.34 259.622 461.61 259.902 467.95C260.132 473.05 265.982 489.27 278.532 514.02C281.612 520.1 280.932 527.52 276.782 532.92C270.322 541.35 257.412 553.01 249.832 559.6C246.262 613.64 236.322 639.62 224.812 669.67C223.662 672.68 222.492 675.74 221.302 678.88C212.242 702.9 203.322 714.98 197.442 720.88C194.982 723.35 191.712 724.71 188.232 724.71V724.7Z" stroke="#FC46AA" stroke-width="2" stroke-miterlimit="10" stroke-dasharray="4 4"/>
</svg>
